<svg width="512" height="512" viewBox="0 0 512 512" fill="none" xmlns="http://www.w3.org/2000/svg">
<path d="M157.841 201.402C162.89 200.417 167.764 200.811 172.889 200.406C191.001 198.973 208.938 197.087 227.127 196.718C250.827 196.238 274.613 196.06 298.306 196.943C306.465 197.247 314.569 197.72 322.697 198.462C334.731 199.562 322.103 198.403 329.499 199.06C330.286 199.13 327.921 198.962 327.132 198.911C288.275 196.415 249.341 196.324 210.584 201.029C202.884 201.963 195.09 203.26 187.738 205.812C187.545 205.879 181.287 207.925 183.951 209.151C185.491 209.859 188.214 209.785 189.581 209.798C193.813 209.84 201.174 209.569 205.003 209.45C218.97 209.015 232.935 208.559 246.909 208.403C271.44 208.129 295.982 209.354 320.131 213.959C323.804 214.66 329.321 215.902 333.036 216.998C333.444 217.119 338.14 218.601 339.016 219.39C339.964 220.245 326.521 221.572 326.359 221.583C295.197 223.582 263.993 220.74 232.832 222.828C212.559 224.187 192.216 226.483 172.341 230.801C168.73 231.585 161.916 233.321 158.09 234.638C157.663 234.785 154.042 236.117 153.356 237.079C152.934 237.672 154.427 238.239 155.15 238.325C157.53 238.607 162.542 238.354 164.518 238.225C184.049 236.951 203.506 234.506 223.016 232.943C256.701 230.245 290.99 229.251 324.615 233.442C330.911 234.226 338.56 234.786 344.497 237.378C344.573 237.411 346.398 238.303 344.995 238.674C343.461 239.079 338.852 238.906 337.87 238.873C312.905 238.026 288.008 235.22 263.028 234.687C247.155 234.349 231.261 235.399 215.442 236.556C198.428 237.801 181.208 238.992 164.493 242.61C163.539 242.817 158.197 243.869 156.62 244.778C155.883 245.202 158.087 245.806 158.937 245.849C167.86 246.305 177.105 244.744 185.969 244.08C226.367 241.056 267.125 237.693 307.599 241.165C316.39 241.919 325.668 242.501 334.257 244.728C335.228 244.98 336.436 244.917 337.122 245.65C337.455 246.005 336.574 246.577 336.101 246.696C330.892 248.006 317.697 248.433 314.301 248.589C281.158 250.118 248.165 250.245 215.218 254.644C202.558 256.334 189.902 258.276 177.373 260.772C170.592 262.124 163.736 263.67 157.318 266.303C156.714 266.551 151.997 268.211 154.752 269.343C159.071 271.117 164.616 270.473 169.102 270.115C196.744 267.909 224.221 266.043 251.966 265.332C272.355 264.809 292.75 264.467 313.105 266.079C317.754 266.447 323.625 266.515 328.004 268.521C331.493 270.119 327.263 270.754 325.861 270.813C318.075 271.14 310.208 270.438 302.442 270.016C291.046 269.395 279.676 269.069 268.26 269.218C235.366 269.649 202.778 272.661 170.497 279.034C163.696 280.377 156.44 281.533 149.918 284.017C147.389 284.981 145.712 286.51 149.569 286.857C155.517 287.393 161.742 286.296 167.607 285.512C180.744 283.757 193.843 281.728 207.021 280.28C238.191 276.855 270.124 277.424 301.246 281.127C309.805 282.146 318.415 283.503 326.758 285.711C329.355 286.399 335.115 287.397 336.624 290.196C338.846 294.315 317.907 295.271 316.394 295.353C296.26 296.444 276.107 297.204 256.052 299.439C242.41 300.96 227.474 302.503 214.545 307.486C212.504 308.273 209.257 309.49 207.968 311.423C206.719 313.296 211.86 313.628 212.378 313.69C217.584 314.317 224.228 313.474 229.17 315.509C232.477 316.87 222.031 315.048 218.457 314.911C209.95 314.583 201.492 314.189 193.019 313.266C185.507 312.448 178.461 310.306 171.319 307.96C168.106 306.904 164.666 306.577 161.329 306.091C160.347 305.948 156.136 306.177 158.04 308.134C159.329 309.459 164.06 312.001 162.226 311.771C161.321 311.658 158.829 307.317 157.941 306.54C156.506 305.285 154.313 303.494 154.253 301.407C154.2 299.551 156.743 301.673 157.343 302.155C159.487 303.878 161.588 305.367 163.123 307.686C164.517 309.792 166.268 310.697 168.155 312.27C171.63 315.166 173.882 318.23 175.779 322.26C176.435 323.655 176.891 324.942 177.996 326.047C179.096 327.147 179.161 328.81 180.263 329.834C183.924 333.234 176.18 333.712 174.434 333.447C172.009 333.078 170.304 332.223 168.828 330.233C168.635 329.973 167.403 327.389 167.134 327.442C166.73 327.523 168.047 329.465 168.155 329.585C168.678 330.166 170.009 331.591 169.002 330.009C167.409 327.505 166.071 325.333 163.945 323.207C163.533 322.795 161.558 320.291 161.952 320.815C164.059 323.626 166.625 325.609 169.301 327.891C178.854 336.034 189.146 340.74 200.145 346.576C201.061 347.063 215.503 355.319 216.115 353.179C216.528 351.733 209.611 347.096 212.851 347.149C217.489 347.225 222.385 349.053 226.952 349.84C233.757 351.012 240.739 352.377 247.631 352.88C253.649 353.319 258.174 350.69 263.975 349.84C268.517 349.174 272.964 349.588 277.478 350.289C279.736 350.639 282.019 351.575 284.305 351.634C289.314 351.762 294.053 351.069 298.804 349.392C307.112 346.46 316.049 344.086 323.968 340.198C325.576 339.409 329.502 337.056 331.367 338.454C332.777 339.512 330.106 342.638 329.474 343.387C321.239 353.138 306.626 354.308 294.868 355.222C279.432 356.421 264.03 357.663 248.827 360.603C244.959 361.351 241.075 362.018 237.217 362.746C234.628 363.234 239.602 362.34 240.057 362.297C247.514 361.598 255.028 359.765 262.38 358.361C273.953 356.151 285.402 353.062 296.512 349.143C304.523 346.317 311.944 342.838 318.885 337.931C323.18 334.896 326.719 331.085 330.645 327.617C336.74 322.232 344.375 318.371 350.152 312.594C357.289 305.457 358.925 295.992 359.819 286.359C360.315 281.015 360.556 275.557 360.741 270.19C360.858 266.801 361.441 260.152 358.648 257.534C356.665 255.674 353.195 256.059 351.597 258.256C348.899 261.966 348.264 267.499 348.035 271.909C347.653 279.257 349.416 293.504 340.61 296.823C332.529 299.869 323.661 300.179 315.198 301.308C300.427 303.277 286.63 308.249 272.744 313.466C262.551 317.295 252.204 321.393 242.349 326.022C241.588 326.38 235.939 328.832 236.37 330.457C236.844 332.244 244.262 331.628 245.14 331.603C262.219 331.126 279.414 327.449 296.263 324.926C303.229 323.883 310.215 323.003 317.191 322.036C319.525 321.713 326.522 320.964 324.167 320.89C322.151 320.827 319.855 321.253 317.889 321.463C309.842 322.323 301.817 323.38 293.772 324.253C280.099 325.737 266.788 327.466 253.461 330.905C246.054 332.817 268.787 331.212 276.407 330.532C283.763 329.875 291.085 328.883 298.356 327.592C303.47 326.684 310.421 326.21 315.048 323.556C319.33 321.1 309.226 320.049 309.169 320.043C300.17 319.048 290.998 317.851 281.938 317.851C270.263 317.851 258.578 319.527 247.008 320.915C235.747 322.266 224.496 323.756 213.299 325.574C208.337 326.379 203.121 327.111 198.251 328.464C196.393 328.98 202.103 328.713 204.031 328.713C217.865 328.713 231.662 327.272 245.488 327.044C246.58 327.026 247.848 326.958 248.927 327.318C250.096 327.708 246.542 326.691 245.339 326.421C231.657 323.344 218.34 319.75 206.872 311.273C203.336 308.66 200.382 305.548 197.803 302.005C196.929 300.805 194.545 297.989 195.212 296.225C196.327 293.273 203.781 292.924 206.074 292.538C212.087 291.525 218.144 291.065 224.212 290.545C229.6 290.083 245.729 288.338 240.356 288.95C226.973 290.475 213.306 291.176 200.294 294.93C199.855 295.056 190.571 297.828 195.212 300.211C197.095 301.178 200.991 301.334 202.686 301.357C207.639 301.427 214.979 300.911 219.727 300.461C245.077 298.055 270.866 293.728 295.366 286.758C305.096 283.99 319.098 278.628 320.878 266.926C321.698 261.538 319.912 255.146 323.22 250.333C330.338 239.981 347.445 238.458 358.299 242.66C360.134 243.37 361.82 245.018 360.99 242.66C359.778 239.214 358.29 235.996 356.854 232.644C356.554 231.945 354.5 225.158 355.26 225.918C356.901 227.559 357.23 230.683 357.851 232.794" stroke="#FFF5E0" stroke-width="30" stroke-linecap="round"/>
<path d="M53.1425 196.682C47.4135 197.61 43.6202 201.975 40.1019 206.342C35.6087 211.92 31.613 218.399 28.4663 224.849C27.7365 226.345 27.2748 227.933 27.4564 229.613C27.5015 230.03 29.6869 225.707 29.8274 225.332C32.9685 216.956 34.913 208.148 37.7309 199.668C39.1285 195.463 40.9733 191.606 43.5267 187.989C43.7269 187.705 45.3833 185.22 44.0975 186.935C41.0289 191.026 38.7369 195.622 36.1502 200.019C35.2642 201.526 33.8644 204.879 31.9789 205.508C30.9035 205.866 32.5223 203.32 32.5278 203.313C37.2843 197.175 44.4643 193.865 51.4301 190.865C57.7742 188.132 64.0757 187.19 70.8155 186.035C73.4057 185.591 75.9485 185.618 78.5652 185.618C80.7436 185.618 74.2064 185.786 72.0449 186.057C67.5079 186.624 62.9929 187.46 58.4993 188.296C56.6724 188.636 56.2306 188.727 54.5476 189.086C54.1546 189.17 53.1285 189.633 53.3621 189.306C54.2866 188.012 59.476 188.263 60.6508 188.164C72.8337 187.141 84.1881 186.698 96.0406 190.382C105.312 193.263 114.261 197.391 122.517 202.478C123.453 203.055 133.366 209.041 132.309 210.733C131.705 211.699 125.27 203.613 124.581 202.917C122.41 200.725 120.131 198.512 117.512 196.858C117.283 196.713 114.889 195.191 115.272 196.682C115.877 199.034 117.999 200.947 114.482 202.368C112.232 203.278 110.174 202.749 107.94 202.127C102.414 200.588 96.7397 199.691 91.0131 199.361C85.8392 199.063 80.6625 199.358 75.5136 199.888C69.99 200.456 64.2845 201.199 59.5092 204.278C48.3846 211.453 47.4545 227.053 48.1809 239.097C48.2452 240.163 48.4803 247.143 50.7715 247.089C53.2472 247.03 53.8993 238.887 54.1085 237.297C54.7218 232.636 55.3938 227.824 55.3379 223.115C55.3208 221.67 55.2608 214.428 52.0229 216.814C48.0495 219.742 45.0812 225.456 43.1754 229.833C39.3717 238.568 36.8394 248.286 35.4037 257.692C35.0295 260.144 33.9741 265.597 37.5113 266.584C40.6382 267.456 43.0919 264.28 44.6024 262.105C46.9547 258.718 48.2068 255.124 48.9054 251.084C49.3583 248.466 50.2086 244.723 49.0152 242.127C47.8986 239.698 45.2708 240.569 43.878 242.215C40.8858 245.751 39.5311 250.9 38.3456 255.256C33.4865 273.106 28.1604 291.13 25.3488 309.438C25.1211 310.921 24.8832 312.66 24.778 314.18C24.7143 315.101 24.2787 317.599 24.9317 316.946C25.5267 316.351 25.3669 315.318 25.5025 314.487C26.0007 311.436 26.3886 308.345 26.6661 305.267C27.5301 295.681 27.6294 284.56 23.1095 275.717C21.0335 271.655 19.5828 276.057 19.0261 278.395C17.9612 282.867 17.8814 287.926 18.104 292.489C18.3183 296.883 18.6574 302.226 20.3433 306.364C20.6715 307.17 21.2234 304.812 21.3312 303.949C22.9455 291.035 25.2066 278.252 27.2149 265.398C28.6415 256.268 22.7277 283.343 21.1337 292.446C20.0878 298.417 18.2437 305.598 19.8164 311.633C21.3198 317.402 25.4929 322.076 28.8175 326.869C30.8536 329.805 33.1399 333.964 36.4575 335.519C38.7073 336.574 36.6529 335.359 35.3159 335.651C33.0699 336.142 31.2446 337.09 28.9493 336.09C27.4906 335.455 26.4814 334.443 25.744 333.038C25.3924 332.369 24.5149 330.697 25.261 330.821C26.5437 331.035 29.0371 336.553 29.0371 337.802C29.0371 339.139 27.9595 335.356 27.3686 334.158C25.5476 330.466 24.2988 326.722 23.8999 322.61C23.0691 314.05 23.1494 305.627 23.7242 297.056C24.2814 288.75 25.8757 280.443 25.8757 272.116C25.8757 263.815 27.2794 256.596 33.7572 251.062C38.2633 247.213 43.819 245.052 49.1469 242.61C59.2021 238.001 69.1948 233.014 78.7409 227.418C82.7834 225.048 86.9693 222.545 90.5082 219.449C92.223 217.948 94.2789 215.804 93.5817 213.28C92.1407 208.062 81.7787 208.802 78.0822 210.469C70.8882 213.716 64.1781 221.829 62.3412 229.46C61.7652 231.852 60.8377 236.399 64.6025 236.551C69.7104 236.756 75.6171 233.44 79.4434 230.36C82.7036 227.735 85.8032 224.159 87.5883 220.349C88.639 218.106 89.4001 213.552 85.4588 213.982C77.6358 214.836 68.6953 226.014 74.7452 233.302C77.5926 236.731 82.3425 236.231 86.2491 235.541C96.7402 233.688 106.929 229.708 116.633 225.42C119.541 224.136 121.636 223.17 124.405 221.754C125.807 221.037 129.833 219.712 128.357 219.163C127.38 218.801 126.311 219.637 125.371 220.085C121.98 221.704 118.822 223.867 115.865 226.167C108.364 232 101.451 239.081 95.6015 246.562C93.5482 249.188 91.6598 252.01 90.1569 254.992C89.0714 257.146 86.2746 262.168 87.0834 264.849C88.0626 268.096 98.5859 255.83 99.0702 255.168C104.173 248.186 108.942 240.191 111.342 231.831C112.368 228.258 113.596 223.13 111.847 219.536C110.364 216.487 107.017 217.721 104.954 219.339C101.026 222.418 97.8657 227.06 96.2601 231.765C95.5961 233.711 94.2169 240.471 98.6311 238.658C104.004 236.452 108.255 230.193 111.672 225.815C114.506 222.184 118.204 217.844 119.092 213.148C119.749 209.675 117.27 210.666 115.558 212.336C111.588 216.207 107.591 222.317 107.105 227.989C106.784 231.738 109.689 235.032 113.252 235.892C117.501 236.918 121.347 233.022 123.505 229.877C126.879 224.958 125.34 220.126 124.91 214.707C124.841 213.831 124.515 210.503 125.547 209.899C126.659 209.247 127.52 221.207 127.523 221.732C127.565 229.643 124.874 253.264 125.481 245.376C126.161 236.528 128.15 227.825 129.542 219.075C130.09 215.637 130.056 211.564 131.167 208.23C131.797 206.341 131.134 212.215 130.991 214.202C130.093 226.722 129.567 239.308 128.203 251.787C126.778 264.822 130.294 277.057 128.203 290C127.363 295.2 122.296 301.452 121.595 306.672C121.32 308.718 121.436 310.823 122.385 312.687C123.737 315.34 125.217 317.748 126.074 320.678C126.156 320.96 126.941 324.502 127.04 323.357C127.177 321.75 127.649 319.976 129.433 319.976C130.746 319.976 131.648 320.266 132.748 321.03C133.278 321.398 135.616 323.957 136.282 323.752C138.588 323.042 133.772 311.181 133.362 310.009C132.199 306.681 130.81 303.48 129.433 300.239C128.742 298.614 126.947 293.658 127.303 295.387C129.826 307.644 133.918 319.713 135.689 332.116C136.185 335.583 126.884 337.478 125.042 338.154C110.025 343.66 93.4816 347.675 77.4236 346.672C70.425 346.234 62.8969 344.687 56.2161 342.501C56.0709 342.453 52.967 341.227 52.923 341.403C52.8097 341.856 55.4062 343.018 55.6014 343.115C57.1549 343.892 58.7148 344.64 60.2556 345.442C61.3963 346.037 63.6477 346.459 64.4269 347.55C65.1366 348.544 62.0464 348.752 61.8583 348.758C58.7502 348.856 55.5436 348.524 52.44 348.34C51.0484 348.258 47.7313 348.478 46.5783 347.44C45.9108 346.84 48.2489 346.621 49.1469 346.628C56.8641 346.689 64.0884 349.959 71.7156 350.624C80.2883 351.371 88.4532 349.159 96.4358 346.211C100.274 344.793 104.087 343.201 107.676 341.227C110.146 339.869 112.346 338.002 114.833 336.705C116.18 336.002 112.925 336.508 112.199 336.354C108.536 335.577 106.93 334.619 106.93 330.558C106.93 328.035 107.264 325.53 107.215 323.006C107.123 318.22 106.134 313.51 105.876 308.735C105.51 301.967 105.966 295.167 106.271 288.406C106.518 282.947 106.492 277.475 106.974 272.028C107.379 267.446 108.22 262.932 108.796 258.373C109.001 256.752 108.806 253.888 109.257 257.1C111.215 271.039 112.861 285.09 113.428 299.163C113.525 301.557 113.604 305.592 113.604 308.077C113.604 309.278 113.911 310.577 113.428 311.677C113.249 312.085 112.913 310.926 112.813 310.492C111.933 306.668 111.754 302.565 111.452 298.681C110.123 281.59 110.036 264.525 112.396 247.528C112.402 247.486 113.593 240.787 113.933 241.864C115.107 245.58 113.799 250.896 113.604 254.685C112.945 267.461 113.876 281.102 110.355 293.543C108.909 298.652 105.895 302.779 102.934 307.111C101.052 309.865 98.9713 312.477 97.0944 315.234C96.5669 316.009 94.8603 320.172 93.8232 320.327C90.7389 320.79 93.3945 298.688 93.4939 297.671C94.6137 286.218 96.0592 274.754 96.4797 263.247C96.5554 261.174 96.5902 258.363 96.304 256.178C96.2215 255.548 95.819 254.048 95.382 254.509C93.0872 256.931 92.7414 264.967 92.3084 267.682C90.5231 278.877 90.1184 290.084 90.4643 301.403C90.7409 310.456 91.4932 319.509 92.6377 328.494C92.6502 328.592 94.1133 337.674 93.1866 334.334C88.3225 316.801 86.4892 298.195 83.8342 280.239C82.5684 271.679 81.7293 262.968 79.641 254.553C79.5704 254.269 77.6711 246.309 77.248 250.074C75.5702 265.006 76.8193 280.221 78.2579 295.102C79.1808 304.65 80.2422 314.188 81.4192 323.708C82.1203 329.379 80.7343 323.053 80.3435 321.513C78.0943 312.648 76.6649 303.568 74.9209 294.597C72.86 283.996 70.509 273.474 68.2469 262.918C67.5927 259.865 66.4736 250.647 66.271 253.763C65.4149 266.925 66.7808 280.583 67.3468 293.741C67.6517 300.83 68.0643 307.91 68.7738 314.97C69.0534 317.753 69.3608 320.474 69.6958 323.247C69.7273 323.508 70.7725 330.787 69.6519 323.796C67.7277 311.791 65.8238 299.782 64.2512 287.725C63.0545 278.551 62.0788 269.334 60.2117 260.261C59.8969 258.731 58.8881 253.074 57.4894 257.802C55.0313 266.111 54.4885 275.179 53.0986 283.708C52.3247 288.457 51.8046 291.47 50.8813 296.244C50.7029 297.166 48.9749 310.741 47.3028 311.194C46.5665 311.394 47.1177 309.673 47.1491 308.911C47.235 306.828 47.4466 304.751 47.654 302.676C48.3943 295.274 49.3475 287.876 50.4861 280.525C51.0725 276.738 51.7578 272.959 52.4839 269.196C52.6232 268.475 52.7696 267.944 52.5498 268.713C51.5639 272.164 50.6227 275.636 49.8494 279.141C47.8593 288.162 46.7559 297.376 46.0953 306.584C45.7727 311.08 44.5783 324.376 46.0295 320.108C46.2263 319.529 46.4225 316.407 46.4246 316.375C46.6901 312.32 46.8533 308.252 46.9954 304.191C47.1598 299.494 48.3611 292.734 46.6442 288.187C45.6425 285.533 42.7322 295.95 42.7144 296.024C41.0493 303.01 39.7707 310.606 40.8922 317.78C41.5561 322.027 43.3297 326.77 47.215 329.109C51.9493 331.959 59.1349 331.743 64.4488 331.743C69.5406 331.743 74.5942 331.028 79.6629 330.645C80.0475 330.616 86.6196 330.464 86.293 330.909C84.8564 332.868 80.1261 333.102 78.0822 333.148C72.0158 333.285 65.687 331.588 60.3873 328.67C56.7206 326.651 51.0972 322.721 50.3324 318.132C49.7587 314.689 57.2295 316.135 58.5213 316.397C68.3994 318.401 78.4895 326.38 83.2195 335.256C84.1276 336.96 84.7774 339.655 82.5608 340.722C78.7298 342.567 72.2997 337.912 69.4763 335.914C59.724 329.016 51.9278 316.736 57.3138 304.872C61.3355 296.012 69.9567 293.784 78.8287 292.709" stroke="#FF7777" stroke-width="20" stroke-linecap="round"/>
<path d="M48.6514 348.726C47.396 348.45 45.8571 348.294 44.7438 347.574C43.8981 347.027 43.6746 346.148 42.6461 345.805C41.056 345.275 39.8001 344.926 38.3683 344.078C37.6105 343.629 37.5186 344.586 37.957 345.024C38.4472 345.514 39.3758 346.309 39.7668 346.505" stroke="#FF7777" stroke-width="20" stroke-linecap="round"/>
<path d="M389.278 206.166C388.422 206.177 386.026 206.663 386.71 206.149C388.285 204.968 390.786 204.148 392.495 203.257C395.281 201.804 398.053 200.319 400.796 198.79C401.501 198.397 403.525 197.193 402.731 197.335C397.863 198.206 393.164 200.956 388.593 202.743C387.594 203.134 384.878 204.532 385.512 203.668C386.496 202.326 389.252 201.36 390.681 200.638C394.038 198.943 397.396 197.266 400.728 195.521C400.882 195.44 401.033 195.355 401.19 195.281C401.454 195.156 400.689 195.579 400.437 195.726C399.035 196.543 397.633 197.36 396.209 198.139C394.195 199.242 388.224 202.615 390.048 201.22C393.82 198.335 399.14 196.554 403.518 194.904C408.512 193.023 413.718 191.954 418.99 191.207C421.358 190.872 415.75 192.01 415.328 192.063C414.415 192.178 407.832 193.501 407.386 192.097C406.746 190.086 418.546 188.463 419.504 188.349C424.232 187.786 429.114 187.408 433.881 187.408C437.293 187.408 434.758 187.832 433.025 187.921C432.397 187.954 427.616 187.73 430.492 187.374C435.605 186.739 441.025 186.901 446.153 187.237C446.217 187.241 450.345 187.491 450.072 188.127C449.954 188.404 449.177 188.17 449.884 187.836C451.93 186.867 456.382 187.361 457.603 189.462C458.766 191.461 455.619 190.802 455.276 191.755C455.025 192.452 455.369 193.413 455.515 194.083C456.007 196.338 456.091 198.449 456.148 200.758C456.214 203.418 456.747 211.377 456.747 208.717C456.747 207.564 457.056 201.975 457.056 206.03M457.056 206.03C457.056 213.006 456.165 219.859 458.305 226.637C459.035 228.948 459.979 231.115 461.061 233.278C461.227 233.611 462.405 236.644 462.909 235.605C463.504 234.38 463.196 232.668 463.286 231.361C463.432 229.22 463.81 227.109 463.833 224.959C463.837 224.648 463.794 221.566 463.833 223.214C463.897 225.871 464.625 228.474 465.408 231.001C466.234 233.667 467.434 236.201 468.882 238.583C469.105 238.95 471.066 242.013 471.621 240.603C472.592 238.138 470.968 234.545 470.166 232.251C468.916 228.672 468.032 225.024 467.051 221.365C465.567 215.83 458.805 211.483 457.056 206.03ZM457.056 206.03C456.568 204.511 461.396 201.813 461.369 200.21C461.343 198.703 461.244 202.265 461.232 202.521C460.891 209.572 461.474 216.906 463.149 223.761C464.591 229.664 466.857 235.391 468.797 241.151C470.24 245.436 472.208 249.062 475.01 252.584C475.978 253.802 477.008 254.42 478.33 255.186C479.485 255.854 480.55 257.236 481.873 257.548C482.758 257.756 481.979 256.12 481.873 255.87C480.959 253.719 480.148 251.584 479.563 249.315C479.282 248.228 478.261 245.059 478.827 246.029C480.037 248.104 480.489 250.7 481.086 252.995C482.555 258.646 484.813 264.2 486.871 269.665C488.533 274.079 488.79 278.661 489.866 283.204C491.276 289.156 491.529 295.284 491.116 301.346C490.921 304.197 491.78 307.079 491.389 309.921C490.83 313.995 490.785 318.126 490.02 322.176C489.458 325.154 488.538 328.133 487.795 331.076C487.061 333.987 486.459 337.002 485.536 339.857C484.915 341.776 483.541 343.907 482.438 345.59C481.304 347.321 480.176 349.028 478.553 350.349C476.917 351.68 475.747 351.923 473.675 351.923C472.534 351.923 471.439 352.645 470.354 352.916C469.309 353.177 468.096 353.061 466.983 353.292C461.431 354.446 455.985 352.081 450.62 351.153C446.484 350.437 442.768 349.727 438.844 348.158C434.794 346.538 431.326 344.084 427.035 342.955C423.9 342.13 420.789 340.725 417.895 339.258C412.204 336.372 406.287 334.268 400.386 331.864C396.758 330.386 393.162 329.273 389.688 327.414C386.694 325.811 383.174 324.932 380.395 322.946C379.214 322.103 378.501 320.87 377.742 319.677C377.179 318.793 376.276 317.28 375.859 316.323C374.835 313.974 376.038 310.259 376.715 308.004C377.656 304.868 378.803 301.293 378.803 298.009C378.803 295.096 378.317 292.094 378.033 289.194C377.63 285.085 377.349 280.802 376.201 276.82C374.695 271.593 372.956 266.489 371.785 261.159C370.989 257.531 370.035 253.602 369.629 249.914C368.955 243.787 366.24 236.804 368.499 230.779C369.487 228.146 370.974 225.766 372.196 223.248C373.211 221.156 373.927 218.546 374.644 216.316C375.495 213.666 376.216 212.366 378.495 210.788C381.387 208.785 384.558 207.617 387.977 206.851C393.9 205.523 400.335 205.252 406.376 204.797C414.985 204.149 423.646 204.281 432.272 204.318C437.438 204.34 442.594 204.01 447.745 204.01C447.816 204.01 445.729 204.344 445.28 204.386C439.574 204.93 434.074 206.544 428.541 207.947C419.026 210.359 408.517 211.386 399.65 215.82C390.266 220.511 381.378 228.132 378.837 238.72C377.832 242.909 378.308 247.625 379.624 251.694C380.484 254.35 381.797 258.029 385.101 258.198C388.322 258.363 390.946 255.774 392.735 253.406C396.164 248.867 399.343 242.204 398.537 236.376C398 232.488 396.491 227.372 393.026 225.062C388.445 222.008 382.521 225.629 380.035 229.718C376.528 235.485 375.648 242.237 375.482 248.853C375.193 260.415 376.576 272.429 379.077 283.7C380.959 292.185 383.532 300.612 387.754 308.244C388.691 309.937 392.637 317.927 395.593 314.971C397.42 313.144 398.301 309.779 399.068 307.457C400.421 303.361 401.479 299.156 402.474 294.962C405.209 283.434 407.111 271.609 408.721 259.875C409.667 252.978 410.502 245.865 410.09 238.892C409.991 237.206 409.369 231.324 406.325 233.552C400.435 237.861 396.985 245.634 394.275 252.139C390.028 262.336 386.453 273.484 385.786 284.573C385.605 287.59 385.523 290.65 385.855 293.662C385.94 294.442 386.128 297.504 387.121 298.077C388.305 298.76 390.014 289.718 390.082 289.383C393.187 274.11 394.473 258.29 399.821 243.547C400.944 240.452 402.191 235.542 405.161 233.552C408.959 231.006 409.219 247.195 409.234 247.672C409.577 258.442 408.262 269.037 407.352 279.747C407.037 283.448 406.805 287.156 406.462 290.855C406.325 292.327 405.49 295.054 405.914 296.537C406.342 298.034 406.372 293.456 406.599 291.916C407.292 287.212 407.893 282.5 408.447 277.778C409.658 267.454 410.419 257.11 411.391 246.765C411.987 240.418 412.548 233.157 415.362 227.321C415.701 226.617 416.577 224.731 417.484 224.446C419.381 223.85 420.316 229.108 420.428 229.752C422.49 241.624 420.481 254.434 419.333 266.277C418.224 277.713 417.034 289.155 416.132 300.611C415.688 306.246 415.626 311.906 415.156 317.538C414.937 320.173 412.98 314.992 412.829 314.474C411.114 308.6 411.004 302.049 410.98 295.989C410.946 287.425 411.456 278.843 412.829 270.384C413.997 263.184 415.721 256.024 419.162 249.537C419.654 248.609 424.429 240.367 424.621 245.087C424.951 253.152 421.892 261.744 420.052 269.46C416.57 284.053 412.942 298.617 409.748 313.276C408.945 316.96 406.512 328 407.523 324.367C409.938 315.689 411.484 306.665 413.325 297.855C417.763 276.627 423.289 255.814 429.499 235.041C429.664 234.49 432.167 225.969 431.279 231.087C429.43 241.749 427.237 252.362 425.597 263.059C424.37 271.058 423.528 279.204 423.235 287.295C423.198 288.327 423.117 291.402 423.338 290.393C424.252 286.213 424.083 281.458 424.45 277.231C425.413 266.163 426.374 255.007 428.079 244.026C429.108 237.399 430.366 230.801 431.759 224.241C432.564 220.449 433.219 216.198 434.874 212.636C437.057 207.937 438.015 215.885 438.16 216.915C439.759 228.258 440.505 239.709 440.967 251.146C441.328 260.097 441.625 269.031 442.507 277.949C442.602 278.908 442.826 281.731 443.038 280.791C443.748 277.635 443.437 273.999 443.5 270.795C443.874 251.909 444.304 233.036 444.116 214.142C444.11 213.539 443.97 211.837 443.705 212.379C442.446 214.955 442.027 218.587 441.515 221.297C438.714 236.099 437.621 250.918 436.859 265.934C436.204 278.849 435.545 291.763 435.028 304.684C434.793 310.548 434.936 317.114 433.162 322.809C433.045 323.185 432.467 324.386 431.861 323.545C430.559 321.739 430.415 318.08 430.15 316.1C428.881 306.647 429.565 297.202 431.245 287.842C431.808 284.707 432.419 281.568 433.128 278.463C433.349 277.495 433.884 274.692 434.121 275.656C434.582 277.533 433.781 280.688 433.539 282.417C432.835 287.429 431.99 292.418 431.519 297.461C430.514 308.224 431.335 319.033 431.656 329.81C431.722 332.011 431.899 334.365 431.776 336.588C431.715 337.688 430.939 335.977 430.817 335.783C427.778 330.921 425.608 325.451 422.208 320.824C421.858 320.348 419.168 318.423 419.367 320.345C419.477 321.406 420.457 322.39 421.078 323.135C422.9 325.318 424.803 327.471 426.846 329.45C428.114 330.677 429.504 331.753 430.903 332.822C431.725 333.451 434.056 334.715 434.292 335.869C434.656 337.655 430.279 339.114 429.551 339.412C428.533 339.828 424.33 341.93 423.372 339.805C422.511 337.896 423.399 334.337 423.783 332.497C424.98 326.754 427.23 321.204 429.26 315.724C433.708 303.714 438.336 291.779 442.678 279.729C446.247 269.83 449.759 259.626 454.146 250.051C456.442 245.039 458.228 254.223 458.391 255.46C459.825 266.379 459.147 277.612 459.281 288.595C459.381 296.834 459.499 305.075 459.76 313.31C459.774 313.744 459.794 314.177 459.794 314.611C459.794 315.319 459.719 314.893 459.674 314.508C459.245 310.817 459.436 306.965 459.349 303.263C459.106 292.936 458.596 282.629 457.98 272.318C457.701 267.658 457.406 262.999 457.192 258.335C457.082 255.916 457.279 253.148 456.662 250.77C456.156 248.82 455.329 250.573 455.036 251.489C454.269 253.882 454.125 256.471 453.906 258.951C452.59 273.887 450.17 289.081 450.483 304.102C450.564 308.007 450.888 311.989 452.041 315.741C452.545 317.384 453.439 319.816 455.104 320.739C459.646 323.254 464.143 312.549 465.305 310.058C469.928 300.154 473.393 289.382 475.814 278.737C477.527 271.21 478.044 263.597 478.758 255.939C478.986 253.492 479.099 251.16 478.946 248.716C478.923 248.349 479.258 246.452 479.854 247.586C480.323 248.481 483.479 256.731 483.893 256.11C485.041 254.387 484.791 252.057 484.577 250.119C484.271 247.333 483.871 244.037 482.472 241.544C481.533 239.87 480.894 241.064 480.658 242.4C480.036 245.924 481.135 249.95 481.394 253.474C482.16 263.888 484.742 274.475 483.859 284.933C483.543 288.674 482.66 292.692 481.12 296.126C479.804 299.061 478.213 300.462 475.421 301.826C468.876 305.022 469.752 315.83 469.054 321.868C468.457 327.031 467.668 332.174 467.256 337.358C467.159 338.583 466.727 340.855 467.359 342.065C468.008 343.305 469.221 339.92 469.79 338.641C472.382 332.815 474.661 326.902 476.43 320.773C476.988 318.843 477.565 316.876 477.765 314.868C477.795 314.568 477.757 313.714 477.611 313.978C477.305 314.533 476.842 316.358 476.756 316.699C475.374 322.135 475.123 327.696 474.77 333.267C474.721 334.047 473.786 343.834 476.636 340.216C479.27 336.872 480.47 330.658 480.127 326.524C479.702 321.378 477.166 316.903 472.357 314.714C459.378 308.806 441.362 321.17 443.123 335.646C443.922 342.207 448.883 346.417 455.361 345.368C461.409 344.388 467.517 339.867 468.797 333.575C469.733 328.972 468.844 323.955 464.723 321.184C459.417 317.615 452.295 319.291 448.703 324.264C446.482 327.34 444.425 332.91 447.762 336.108C450.831 339.05 456.28 337.598 459.349 335.561C461.173 334.35 466.119 330.483 464.775 327.653C463.579 325.135 458.059 327.228 456.371 327.996C455.955 328.184 451.342 330.404 452.537 331.247C454.488 332.624 458.126 331.536 460.205 331.093C461.831 330.747 463.159 329.942 461.437 331.932C460.002 333.59 458.394 335.044 456.747 336.485" stroke="#FF7777" stroke-width="20" stroke-linecap="round"/>
<path d="M376.551 315.582C377.046 317.944 377.798 319.203 379.6 320.875C381.303 322.454 383.143 324.171 385.175 325.308C386.519 326.06 390.617 328.427 386.653 327.86C382.263 327.233 379.003 324.092 376.846 320.418C375.695 318.458 375.025 315.831 373.515 314.131C372.951 313.497 373.676 314.518 373.837 314.856C374.037 315.279 373.818 315.857 373.918 316.307C374.099 317.121 374.643 318.187 374.965 318.967C375.552 320.385 376.621 321.595 377.37 322.93C378.005 324.062 378.504 325.288 379.56 326.114C380.32 326.709 381.294 327.3 382.193 327.659C382.632 327.834 383 328.282 382.22 328.022C380.245 327.363 378.502 325.778 377.558 323.938C376.947 322.745 375.16 319.147 375.825 320.311C376.66 321.771 377.364 323.227 378.122 324.744C378.819 326.137 380.889 328.749 380.406 330.44C380.298 330.819 378.029 326.754 377.907 326.531C377.473 325.728 376.807 325.512 375.96 325.738C375.524 325.854 373.519 326.021 374.724 325.16C374.933 325.011 376.125 325.738 376.551 325.738" stroke="#FF7777" stroke-width="20" stroke-linecap="round"/>
<path d="M139 263.262C146.731 246.427 157.947 230.72 170.262 216.916C177.996 208.247 202.362 183.388 195.053 192.418C192.419 195.671 188.342 198.661 185.095 201.273C179.235 205.987 173.88 209.933 168.389 215.092C164.58 218.67 160.685 222.108 156.711 225.504C153.443 228.297 155.899 222.931 156.565 221.368C159.257 215.059 163.656 209.215 165.542 202.611C165.823 201.63 166.332 198.992 164.399 200.349C160.115 203.357 156.706 208.745 153.597 212.853C150.718 216.658 148.08 220.653 145.52 224.677C144.162 226.813 139.795 232.628 142.017 231.416C143.505 230.604 144.676 227.147 145.326 225.772C147.325 221.541 148.988 217.134 150.629 212.756C151.57 210.247 152.81 207.664 153.5 205.068C153.694 204.338 152.128 205.796 151.651 206.382C145.582 213.842 142.198 223.557 138.927 232.486C138.542 233.539 138.285 234.646 137.784 235.649C137.659 235.899 137.536 235.126 137.541 234.846C137.635 229.738 139.469 224.461 141.19 219.714C144.442 210.741 148.808 202.114 152.916 193.512C153.096 193.136 154.764 189.976 154.011 189.474C153.596 189.197 151.504 191.641 151.359 191.785C149.574 193.571 147.736 195.331 146.129 197.283C145.337 198.245 145.191 198.518 144.499 199.497C144.05 200.131 143.338 201.968 142.99 201.273C142.644 200.581 145.674 197.529 146.007 197.137C148.754 193.907 151.668 190.823 154.424 187.601C156.272 185.44 157.86 183.129 159.533 180.837C160.347 179.724 163.428 176.992 162.258 177.723C160.096 179.075 158.335 181.967 156.711 183.903C153.599 187.614 159.234 181.896 159.923 181.056C163.924 176.182 168.575 171.54 173.546 167.652C175.949 165.773 173.027 169.508 172.525 170.547C171.157 173.372 173.729 171.473 175.42 170.595C181.367 167.507 187.288 164.378 193.204 161.229C194.639 160.465 196.344 159.219 197.972 158.893C199.648 158.558 195.779 161.548 194.444 162.616C185.11 170.083 175.6 176.895 167.124 185.411C165.391 187.152 163.126 189.191 162.064 191.493C161.615 192.464 164.15 190.881 165.032 190.277C173.845 184.237 182.329 177.751 191.403 172.079C192.198 171.583 203.566 165.366 199.578 169.403C193.471 175.585 186.235 180.751 179.41 186.092C177.753 187.388 170.899 193.426 174.276 187.43C178.431 180.056 183.791 173.41 188.338 166.289C189.123 165.06 188.276 165.356 187.414 165.705C184.317 166.961 181.59 169.183 179.093 171.349C176.9 173.252 174.436 175.344 172.963 177.894C171.67 180.131 173.952 178.655 174.714 178.064C179.631 174.247 184.098 168.723 187.754 163.71C188.643 162.491 188.132 161.944 186.732 162.494C184.589 163.336 182.658 165.134 180.821 166.484C179.943 167.129 175.164 171.623 176.758 168.235C176.889 167.956 178.286 164.644 176.514 165.657C176.02 165.939 177.038 166.377 177.22 166.362C179.062 166.209 181.241 164.749 182.888 164.051C195.254 158.809 209.035 156.608 222.203 154.32C224.36 153.945 246.542 149.858 246.774 152.763C247.037 156.051 229.175 158.385 227.555 158.699C219.669 160.228 210.803 161.17 203.373 164.392C199.5 166.071 194.776 169.624 195.369 174.488C195.975 179.454 204.083 173.361 205.708 172.274C208.2 170.608 210.703 168.877 213.055 167.019C213.433 166.721 216.707 164.043 214.102 165.097C209.944 166.78 206.068 169.815 202.4 172.298C197.242 175.789 192.165 179.39 187.389 183.392C184.323 185.961 181.209 188.604 178.534 191.591C177.081 193.212 177.63 193.069 179.045 191.882C186.385 185.722 193.796 179.97 201.67 174.488C204.397 172.589 207.096 170.568 209.941 168.844C211.866 167.677 208.487 170.033 208.482 170.036C201.171 174.809 193.89 179.656 186.684 184.584C185.358 185.491 183.477 186.413 182.402 187.649C180.733 189.568 186.98 185.414 189.141 184.073C198.387 178.337 208.127 171.933 218.505 168.43C218.916 168.291 222.945 166.807 221.424 168.819C218.775 172.325 214.821 175.065 211.498 177.869C207.661 181.108 195.682 190.199 199.918 187.503C205.744 183.796 211.242 179.868 217.532 176.896C218.668 176.359 222.059 174.928 221.132 175.777C218.73 177.98 216.04 179.866 213.153 181.373C211.324 182.327 208.731 183.88 206.56 183.587C204.634 183.326 210.236 179.293 210.623 179.037C213.548 177.1 216.869 175.656 220.159 174.463C220.435 174.363 221.286 174.214 221.035 174.366C219.249 175.452 217.365 176.37 215.537 177.383C209.412 180.777 203.362 184.327 197.145 187.552C196.829 187.716 195.883 188.198 196.172 187.99C197.491 187.04 198.992 186.214 200.38 185.387C211.835 178.56 224.299 172.574 237.092 168.771C242.604 167.132 248.477 165.522 254.268 165.365C256.338 165.309 260.81 165.017 262.661 166.289C263.553 166.903 260.739 167.391 259.668 167.554C255.482 168.194 251.29 168.622 247.115 169.379C236.471 171.309 225.196 173.197 215.148 177.334C199.555 183.755 248.118 169.13 264.972 168.576C272.635 168.324 282.371 167.958 289.154 172.347C291.455 173.836 289.013 173.78 287.743 173.612C282.599 172.931 277.578 171.39 272.416 170.668C260.619 169.019 248.08 168.087 236.605 172.225C231.582 174.037 234.708 180.051 234.708 184C234.708 191.954 233.478 200.455 231.837 208.231C231.381 210.388 230.868 213.604 229.209 215.238C227.128 217.288 226.624 209.951 226.558 209.496C226.021 205.843 225.384 202.284 224.149 198.792C223.274 196.316 222.002 193.969 221.424 191.396C220.226 186.057 221.82 202.485 223.565 207.672C223.978 208.899 229.606 221.017 230.718 220.128C231.882 219.197 231.74 215.964 231.74 214.775C231.74 211.047 230.984 207.285 230.426 203.609C230.211 202.197 226.662 186.388 225.974 186.847C225.259 187.323 225.716 190.958 225.73 191.542C225.824 195.38 226.185 199.198 226.874 202.976C227.546 206.666 229.015 217.771 229.015 214.021C229.015 208.615 226.853 202.406 225.293 197.308C224.599 195.043 223.897 192.753 223.103 190.52C222.143 187.819 222.236 191.156 222.3 192.077C222.916 200.972 224.254 209.64 227.239 218.06C228.927 222.821 231.178 227.315 232.664 232.146C233.805 235.853 229.943 224.847 228.042 221.466C226.822 219.296 225.424 217.197 223.955 215.189C223.707 214.851 221.711 211.869 222.033 213.924C222.997 220.097 225.678 225.568 228.139 231.246C229.411 234.181 226.268 240.676 227.555 243.604C228.161 244.983 233.579 243.109 233.832 244.626C234.288 247.363 231.753 239.444 231.229 236.719C230.972 235.383 231.84 237.452 231.861 237.498C232.823 239.541 230.191 246.992 231.229 249C233.484 253.362 238.841 252.816 241.617 256.888C242.348 257.959 241.931 252.307 241.982 251.779C242.08 250.744 245.925 256.951 246.288 257.569C247.606 259.81 250.146 264.23 253.489 262.702C255.044 261.991 256.016 260.095 256.846 258.712C259.08 254.989 260.61 250.896 262.734 247.108C263.782 245.237 267.18 239.341 265.167 245.064C263.301 250.367 260.695 255.56 259.255 260.999C258.322 264.525 263.321 258.176 263.804 257.277C267.12 251.109 258.218 259.173 257.114 260.147C255.036 261.983 253 263.898 251.226 266.035C251.175 266.097 248.634 269.153 250.594 268.322C252.59 267.475 254.087 265.408 255.533 263.894C257.807 261.513 260.424 259.414 262.539 256.888C266.434 252.235 258.934 258.371 257.771 259.272C255.812 260.788 253.992 262.468 252.078 264.04C251.556 264.469 248.301 267.249 250.91 265.305C264.026 255.535 276.197 242.033 283.169 227.158C283.945 225.503 282.286 231.844 283.023 231.781C284.562 231.649 285.674 228.805 286.137 227.742C288 223.474 289.512 218.843 290.663 214.337C292.405 207.518 292.15 200.899 290.054 194.194C289.583 192.685 288.864 190.58 287.427 189.693C285.472 188.486 283.715 191.626 282.975 192.904C278.92 199.904 276.696 206.809 274.387 214.459C272.756 219.863 274.912 203.166 274.655 197.527C274.492 193.97 274.362 189.157 271.638 186.433C268.997 183.792 265.405 185.245 263.269 187.698C258.349 193.347 256.081 201.96 254.705 209.107C253.549 215.113 252.417 224.925 256.919 230.102C259.195 232.719 262.004 230.416 263.245 228.107C266.189 222.631 266.71 215.506 266.383 209.447C266.16 205.308 263.93 180.556 253.684 187.795C249.104 191.031 247.426 197.19 246.507 202.392C245.167 209.975 245.44 217.774 246.604 225.358C246.868 227.079 247.505 235.755 251.178 235.162C256.205 234.352 257.613 223.091 258.257 219.519C259.541 212.405 260.109 204.943 259.571 197.721C259.49 196.639 257.694 183.084 254.146 185.679C252.537 186.855 250.329 191.202 249.718 192.345C247.666 196.183 246.205 199.129 244.901 203.292C242.009 212.532 240.803 225.011 244.779 234.116C247.232 239.732 252.345 244.214 258.598 241.415C263.807 239.083 268.32 233.845 272.076 229.737C274.853 226.699 278.182 223.222 279.861 219.373C280.965 216.841 276.812 221.701 276.747 221.806C275.619 223.647 273.857 226.417 274.071 228.715C274.385 232.098 279.857 227.293 280.542 226.721C282.828 224.809 285.01 222.737 286.916 220.444C289.122 217.789 285.221 222.331 284.994 222.56C281.411 226.192 277.92 229.901 274.387 233.581C271.653 236.429 268.796 239.774 265.313 241.755C261.953 243.667 262.287 238.738 259.814 240.101C256.343 242.014 251.689 248.001 251.689 252.095C251.689 254.572 257.891 247.718 258.549 247.059" stroke="#FF7777" stroke-width="20" stroke-linecap="round"/>
<path d="M245.412 266.327C245.036 266.071 240.105 263.391 240.692 262.142C241.213 261.037 242.99 263.467 243.222 263.699C246.019 266.496 245.617 263.012 246.726 261.072" stroke="#FF7777" stroke-width="20" stroke-linecap="round"/>
<path d="M269.497 189.693C261.06 182.09 247.732 167.391 255.873 155.293C259.265 150.252 265.716 149.614 271.249 150.281C272.034 150.376 278.558 151.528 277.963 153.444C277.22 155.84 272.629 154.896 271.151 154.271C266.769 152.418 262.648 149.987 258.403 147.848C257.919 147.605 250.862 145.043 250.862 147.119C250.862 147.333 261.39 147.214 261.615 147.216C270.255 147.283 278.777 148.801 287.208 150.622C292.893 151.85 297.295 154.314 302.535 156.509C304.712 157.421 306.271 158.553 308.714 158.601C310.482 158.637 305.356 158.241 304.919 158.261C297.639 158.594 289.816 159.155 282.829 161.326C278.685 162.614 289.139 165.52 289.738 165.705C296.108 167.67 302.439 169.879 308.276 173.15C310.424 174.353 312.325 176.083 314.601 176.994" stroke="#FF7777" stroke-width="20" stroke-linecap="round"/>
<path d="M324.911 168.911C323.67 168.136 321.686 167.301 321.019 165.856C320.606 164.96 319.815 160.505 321.992 161.172C324.426 161.918 326.799 164.818 328.668 166.377C333.289 170.23 338.161 173.75 342.925 177.42C346.089 179.857 349.18 182.364 352.158 185.024C353.209 185.963 355.997 187.853 356.549 189.369C356.932 190.424 354.61 188.234 353.697 187.581C351.498 186.011 349.157 184.673 346.931 183.146C345.181 181.946 341.714 178.318 339.35 178.461C338.517 178.512 340.123 180.27 340.21 180.362C342.169 182.452 344.134 184.562 346.139 186.608C351.127 191.7 356.81 196.129 361.98 201.046C362.917 201.938 369.986 206.874 369.606 208.582C369.366 209.665 363.65 205.454 363.292 205.165C361.725 203.903 358.838 200.978 358.653 198.761C358.613 198.276 363.698 202.758 364.017 203.128C365.544 204.903 366.969 206.736 368.316 208.65C369.086 209.744 370.164 211.703 371.53 212.181C371.76 212.261 368.901 206.168 368.452 205.527C366.414 202.615 364.409 199.687 362.478 196.701C361.71 195.515 360.348 193.424 359.581 192.017C359.453 191.782 359.957 192.403 360.102 192.628C362.842 196.9 365.57 201.84 369.629 205.029C373.961 208.434 370.697 201.214 369.855 199.779C368.264 197.066 365.797 194.628 364.718 191.632C364.117 189.963 366.644 193.863 366.778 194.076C368.287 196.481 369.557 198.99 371.326 201.228C371.671 201.664 374.85 204.436 373.476 202.88C371.842 201.028 369.538 199.211 367.502 197.833C367.234 197.652 362.533 194.488 362.885 196.294C363.342 198.634 366.963 201.498 368.43 203.219C370.186 205.28 372.94 207.221 373.951 209.804C374.652 211.595 372.149 210.562 371.394 210.189C367.935 208.479 364.482 206.255 361.595 203.694C361.04 203.202 356.002 197.466 357.047 200.82C359.02 207.16 362.158 213.1 364.424 219.332C365.761 223.009 367.736 227.013 368.407 230.873C368.636 232.189 363.794 228.815 363.428 228.565C361.179 227.026 358.971 225.32 356.865 223.586C354.909 221.975 358.548 224.726 358.902 225.08C361.076 227.254 362.731 229.798 364.605 232.208C366.261 234.338 364.181 232.876 363.247 232.005C359.251 228.275 356.237 223.424 352.928 219.105C348.334 213.111 343.733 207.133 338.829 201.386C337.506 199.836 336.182 198.274 334.688 196.883C334.105 196.34 332.267 195.056 332.561 195.796M332.561 195.796C332.833 196.485 348.574 202.918 348.186 203.694C354.975 213.674 332.874 196.019 332.561 195.796ZM332.561 195.796C327.213 191.991 323.411 187.933 318.946 183.146C318.67 182.85 308.607 176.334 309.093 176.334C309.603 176.334 310.182 176.957 310.519 177.239C312.616 179.002 314.642 180.847 316.765 182.58C318.767 184.214 324.313 189.407 323.011 187.174C321.717 184.956 319.131 183.441 317.262 181.765C315.738 180.398 314.346 178.887 312.827 177.511C312.36 177.088 310.796 176.184 311.424 176.244C314.775 176.563 318.54 180.256 321.155 182.014C327.582 186.337 334.401 190.371 340.119 195.638C340.267 195.775 344.436 200.452 342.744 199.372C339.72 197.442 337.929 194.332 335.91 191.497C335.637 191.114 333.54 187.461 335.254 189.052C339.025 192.554 342.063 196.867 345.505 200.684C349.661 205.294 353.67 209.977 357.454 214.896C358.227 215.901 362.684 220.619 361.505 222.387C360.353 224.115 354.26 214.596 357.68 219.694C359.586 222.535 361.406 225.413 363.179 228.339C363.325 228.579 366.511 232.838 364.809 232.412C364.252 232.273 361.652 230.025 361.301 230.375C361.054 230.622 366.895 237.95 367.592 238.884C369.719 241.737 372.368 244.237 374.2 247.303C376.059 250.412 376.207 253.908 376.961 257.396C378.52 264.604 380.055 271.978 381.306 279.257C382.256 284.784 382.755 290.401 382.755 296.003" stroke="#FF7777" stroke-width="20" stroke-linecap="round"/>
<path d="M147.471 186.514C147.369 186.644 145.661 189.271 145.203 188.457C144.637 187.45 145.389 185.767 145.722 184.829C145.895 184.339 146.768 182.54 145.462 183.566C143.741 184.918 142.437 186.715 141.041 188.376C139.752 189.909 141.506 187.958 141.607 187.858C143.032 186.461 144.385 185.001 145.77 183.566C146.339 182.976 147.186 182.349 147.649 181.655C148.35 180.603 145.81 183.39 144.944 184.311C144.371 184.92 141.019 188.692 142.579 185.639C143.296 184.237 144.27 182.983 145.106 181.655C145.949 180.316 145.746 180.07 144.636 181.233C143.389 182.542 142.365 184.043 141.413 185.574C140.799 186.562 140.797 186.607 140.279 187.502C139.886 188.181 139.961 187.954 140.215 187.453C141.501 184.911 146.179 177.746 144.782 180.229C143.657 182.23 142.63 184.283 141.543 186.303C140.409 188.409 144.285 182.376 145.462 180.294C147.171 177.273 144.111 181.557 143.713 182.173C141.595 185.449 134.884 195.016 137.364 192.004C138.432 190.708 139.16 189.023 140.101 187.631C141.472 185.604 142.914 183.624 144.345 181.638C145.044 180.668 145.617 179.67 146.24 178.658C146.845 177.674 145.184 180.718 144.555 181.687C143.509 183.298 142.578 184.983 141.51 186.578C140.747 187.72 139.622 189.024 140.943 186.902C141.364 186.227 142.663 182.856 142.223 185.056" stroke="#FF7777" stroke-width="10" stroke-linecap="round"/>
<path d="M146.305 323.539C154.259 334.248 142.791 317.532 151.714 331.152C152.227 331.935 151.807 331.518 151.52 331.038C150.641 329.573 149.542 328.494 148.41 327.232C147.605 326.334 147.294 326.287 147.973 327.556C148.828 329.155 149.904 330.574 150.905 332.075C151.878 333.535 149.057 329.574 148.248 329.629C147.957 329.649 147.655 331.617 147.438 331.929C146.92 332.679 145.874 333.072 145.155 333.598C143.252 334.988 144.93 333.082 145.981 333.128C146.912 333.168 144.686 334.474 144.102 335.201C143.926 335.42 142.556 336.652 143.292 336.173C144.256 335.545 145.139 334.803 145.932 333.97C146.726 333.137 144.509 335.265 144.361 335.379C144.156 335.538 141.743 337.684 141.834 337.695C142.873 337.831 144.403 336.721 145.43 336.497C145.853 336.404 147.339 335.956 147.73 336.319C148.632 337.157 147.421 338.471 146.693 338.845C145.895 339.257 143.301 339.866 144.199 339.866C145.213 339.866 146.029 339.38 146.936 338.991C147.545 338.73 152.438 337.291 150.386 339.283C149.739 339.911 147.915 339.655 147.649 340.028C147.324 340.483 150.105 339.181 147.341 340.222C145.738 340.826 143.925 342.781 142.223 342.781" stroke="#FF7777" stroke-width="10" stroke-linecap="round"/>
<path d="M362.083 328.984C363.195 327.538 365.45 325.157 363.007 328.06C362.662 328.47 358.972 332.857 360.038 330.798C360.681 329.557 363.17 325.257 364.854 325.257C365.503 325.257 364.057 326.283 363.633 326.774C363.058 327.441 361.055 329.187 361.225 330.155C361.296 330.554 366.452 327.06 366.998 326.873C368.046 326.512 365.469 329.328 365.282 329.809C365.02 330.483 368.677 328.993 369.109 328.753C369.344 328.622 368.742 329.166 368.498 329.281C367.121 329.933 365.563 330.194 364.128 330.699C362.436 331.295 365.353 330.254 365.777 330.171C366.969 329.938 369.498 329.913 366.833 329.874C365.882 329.861 363.045 329.578 363.996 329.578C365.012 329.578 366.051 330.428 367.064 330.138C367.741 329.945 362.453 326.299 367.295 327.665C368.117 327.897 371.026 329.518 368.531 328.769C367.778 328.544 364.536 327.46 366.239 326.609" stroke="#FF7777" stroke-width="10" stroke-linecap="round"/>
<path d="M376.629 198.365C376.359 195.593 376.11 194.58 374.139 192.609C373.567 192.037 371.675 189.693 372.49 191.867C372.592 192.14 373.364 194.285 373.364 193.796C373.364 191.781 372.415 190.431 371.78 188.618C371.391 187.503 372.96 189.909 373.067 190.052C373.965 191.256 377.591 193.715 376.134 193.351C375.136 193.101 374.03 190.399 373.496 189.591C372.62 188.264 372.77 189.254 372.77 190.349" stroke="#FF7777" stroke-width="10" stroke-linecap="round"/>
<path d="M146.272 175.953C152.114 165.957 159.279 159.189 169.928 154.252C193.678 143.24 221.738 137.914 247.684 136.355C273.317 134.815 299.983 138.1 323.178 149.829C340.023 158.347 353.479 171.083 367.508 183.359" stroke="#061C00" stroke-width="12" stroke-linecap="round"/>
<path d="M32.0022 239.105C31.0728 240.226 29.8042 241.312 28.3835 242.187C29.1875 241.272 30.0194 240.382 30.8709 239.516C31.513 238.863 33.881 236.839 32.0022 239.105Z" fill="#FF7777"/>
<path d="M50.3854 175.196C37.7756 179.249 27.2756 190.024 22.6426 201.152C17.7395 212.93 11.9211 227.087 16.6772 239.928C19.4416 247.392 28.3462 243.514 32.0022 239.105C33.881 236.839 31.513 238.863 30.8709 239.516C27.9613 242.475 25.2806 245.711 23.1569 249.287C8.06856 274.699 -2.31726 317.798 19.4542 342.472C34.0314 358.993 60.5829 364.594 81.4744 360.78C108.009 355.936 119.204 354.895 142.707 342.472" stroke="#061C00" stroke-width="12" stroke-linecap="round"/>
<path d="M52.1868 174.746C80.6536 167.968 111.254 179.422 136.089 192.616" stroke="#061C00" stroke-width="12" stroke-linecap="round"/>
<path d="M156.667 335.52C166.125 347.229 181.815 356.9 196.67 363.248C219.098 372.833 243.189 377.444 267.453 375.601C283.608 374.374 301.468 370.195 316.544 364.225C330.401 358.739 343.402 346.62 354.37 336.871" stroke="#061C00" stroke-width="12" stroke-linecap="round"/>
<path d="M142.518 274C138.915 294.601 142.068 312.28 148.373 319.035" stroke="#061C00" stroke-width="12" stroke-linecap="round"/>
<path d="M356.332 241.473C367.247 257.331 371.249 279.006 369.801 298.028C368.835 310.732 368.078 312.073 361.576 322.91" stroke="#061C00" stroke-width="12" stroke-linecap="round"/>
<path d="M438.74 173.845C447.529 173.942 453.672 174.167 460.837 179.782C469.431 186.519 473.059 194.166 468.488 204.45C464.735 212.893 467.88 215.613 474.119 221.956C485.012 233.03 492.186 246.875 497.379 261.437C503.011 277.229 505.178 293.609 504.357 310.343C503.456 328.71 500.371 351.414 482.077 360.903C463.678 370.445 438.431 362.49 420.622 355.761C404.084 349.512 388.776 341.633 373.735 332.501" stroke="#061C00" stroke-width="12" stroke-linecap="round"/>
<path d="M441.224 173.914C416.905 173.914 396.814 182.494 376.374 195.824" stroke="#061C00" stroke-width="12" stroke-linecap="round"/>
<path d="M308.698 295.116C302.752 297.806 298.452 304.272 299.683 310.994C302.187 324.669 319.769 329.745 331.678 327.41C336.45 326.474 341.793 323.576 343.574 318.744C345.172 314.409 344.973 308.749 341.599 305.329C333.905 297.53 323.3 297.703 313.129 298.449" stroke="#FFC077" stroke-width="6" stroke-linecap="round"/>
<path d="M306.577 303.244C308.016 302.381 309.583 301.338 310.64 300.008C311.375 299.083 308.673 301.328 307.775 302.097C306.883 302.861 307.553 302.169 307.782 301.831C308.218 301.187 308.645 300.518 309.016 299.835C309.72 298.544 306.97 300.777 306.659 300.992C305.722 301.643 306.402 300.736 306.763 300.406C307.294 299.919 309.4 298.395 308.061 300.036C307.882 300.256 306.208 301.996 307.044 301.914C307.569 301.862 311.2 300.443 311.284 300.766C311.382 301.138 310.41 302.108 310.274 302.273C309.369 303.363 308.441 304.428 307.584 305.558C306.841 306.539 305.807 307.666 305.392 308.845C305.154 309.52 306.742 308.298 307.284 307.831C308.489 306.794 309.565 305.625 310.645 304.461C311.118 303.952 312.574 302.622 311.901 302.795C310.636 303.12 309.345 304.388 308.339 305.143C306.569 306.473 304.804 307.811 302.979 309.067C302.612 309.32 301.51 310.003 301.772 309.642C302.606 308.488 303.818 307.495 304.884 306.571C306.335 305.314 310.961 301.944 309.249 302.813C307.568 303.666 305.779 304.851 304.473 306.217C304.039 306.671 304.619 306.141 304.668 306.096C305.336 305.482 306.076 304.961 306.886 304.548C307.385 304.294 309.065 303.308 309.495 304.198C309.838 304.908 308.663 305.346 308.635 306.06C308.588 307.289 310.662 306.536 311.241 306.429C312.602 306.176 314.413 306.309 315.622 305.552C315.741 305.478 316.238 305.114 316.087 304.875C315.877 304.544 314.577 305.044 314.377 305.113C312.909 305.612 311.659 306.486 310.524 307.531C309.068 308.872 307.037 310.758 306.56 312.784C306.106 314.709 308.77 314.741 309.95 314.665C312.382 314.507 314.704 313.504 316.885 312.495C319.138 311.453 321.371 310.311 323.519 309.067C324.93 308.25 326.746 307.338 327.875 306.124C327.978 306.014 328.166 305.817 328.059 305.712C327.893 305.549 327.597 305.597 327.366 305.623C326.778 305.691 326.203 305.842 325.63 305.991C323.078 306.654 320.644 307.65 318.274 308.792C316.73 309.536 315.214 310.335 313.697 311.133C313.112 311.441 311.352 312.246 312.009 312.175C312.393 312.134 312.702 311.832 313.028 311.626C314.17 310.903 315.295 310.122 316.389 309.332C318.634 307.709 321.2 306.011 322.936 303.806C323.722 302.808 323.216 302.324 322.035 302.487C319.171 302.881 316.445 304.586 314.049 306.084C313.378 306.503 310.8 307.849 310.371 308.846C310.265 309.092 310.919 308.858 311.169 308.764C311.797 308.528 312.718 308.065 313.283 307.751C314.74 306.941 316.126 305.98 317.491 305.025C318.216 304.517 319.33 303.913 319.83 303.138C320.119 302.691 318.734 303.125 318.245 303.334C315.839 304.361 313.557 305.765 311.36 307.173C309.611 308.293 307.697 309.499 306.268 311.037C306.069 311.251 305.669 311.715 305.736 312.091C305.819 312.559 306.217 312.492 306.448 312.843" stroke="#FFC077" stroke-width="6" stroke-linecap="round"/>
<path d="M323.97 305.924C321.448 304.131 318.738 303.837 315.677 303.979C315.042 304.009 313.205 304.455 312.613 304.022C312.232 303.743 314.947 302.461 315.079 302.405C315.921 302.044 316.796 301.726 317.663 301.428C318.265 301.221 317.137 301.525 317.099 301.535C316.276 301.744 315.449 301.988 314.651 302.279C314.382 302.377 313.259 302.902 314.236 302.704C314.796 302.59 317.594 301.697 315.517 301.813C313.965 301.899 312.439 302.334 310.916 302.614C309.423 302.889 307.895 303.022 306.413 303.355C306.127 303.419 305.427 303.524 305.249 303.832C305.158 303.989 305.582 304.029 305.631 304.129C305.853 304.589 304.877 304.76 304.656 304.788C303.854 304.891 303.751 304.365 304.161 305.306C304.489 306.056 304.581 306.893 304.698 307.695C304.923 309.244 305.167 310.791 305.39 312.34C305.64 314.086 305.242 316.95 306.84 318.144C308.278 319.218 307.276 317.26 306.892 316.704C305.941 315.328 304.617 314.345 303.507 313.125C303.318 312.917 303.308 312.844 303.604 313.013C304.432 313.485 305.131 314.149 305.803 314.817C307.38 316.384 308.818 318.195 310.683 319.434C312.3 320.507 314.096 321.759 315.921 322.438C317.62 323.071 319.306 323.052 321.085 323.088C322.76 323.121 324.43 323.201 326.103 323.287C328.452 323.407 330.598 323.302 332.917 323.06C334.947 322.847 336.948 321.697 338.605 320.569C340.437 319.322 340.634 316.824 340.74 314.81C340.845 312.795 339.676 310.634 338.579 308.989C337.947 308.042 337.222 307.128 336.41 306.329C335.481 305.414 334.401 304.256 333.233 303.662C330.883 302.465 327.999 302.548 325.444 302.255C322.555 301.923 320.282 303.407 319.596 306.267C319.108 308.303 318.916 310.439 319.963 312.343C321.106 314.422 323.193 315.433 325.533 315.52C328.402 315.627 332.093 314.976 334.459 313.226C335.097 312.755 335.686 311.993 335.49 311.143C335.219 309.967 333.53 309.635 332.575 309.425C329.122 308.667 325.081 309.515 322.509 312.073C321.683 312.895 320.726 314.189 321.032 315.445C321.364 316.81 323.029 317.157 324.209 316.932C327.29 316.343 330.486 313.654 331.765 310.819C332.158 309.948 332.386 308.648 331.56 307.912C330.141 306.645 326.976 307.707 325.455 308.163C323.89 308.632 322.126 309.228 320.818 310.243C319.098 311.579 316.903 313.907 316.513 316.139C315.765 320.413 322.193 318.652 324.248 317.88C326.055 317.201 327.745 316.276 329.304 315.138C330.598 314.193 332.484 312.744 332.391 310.906C332.335 309.774 331.168 309.373 330.241 309.183C328.184 308.762 326.009 308.881 323.999 309.46C322.027 310.028 320.224 310.98 318.574 312.195C317.259 313.163 315.298 314.643 315.392 316.518C315.594 320.587 322.715 318.515 324.757 317.906C326.757 317.309 328.667 316.65 330.322 315.339C330.917 314.868 333.116 313.263 332.098 312.275C330.968 311.18 329.22 311.119 327.761 311.228C325.129 311.426 322.624 312.016 320.277 313.233C318.551 314.129 316.867 315.156 316.065 317.012C315.473 318.384 315.666 319.719 317.354 319.921C319.587 320.189 322.036 319.403 324.175 318.894C326.642 318.306 329.045 317.622 331.388 316.644C332.202 316.304 333.685 315.869 334.106 314.966C334.647 313.806 332.367 314.311 331.99 314.442C331.007 314.783 326.954 317.843 329.418 318.864C330.729 319.408 332.523 318.941 333.814 318.569C335.195 318.17 336.624 317.566 337.802 316.732C338.02 316.578 339.432 315.659 338.684 315.296C337.542 314.742 335.963 315.297 334.978 315.903C333.649 316.72 332.47 317.865 331.576 319.141C331.293 319.544 329.981 321.663 331.371 321.688C332.6 321.709 333.98 320.638 334.931 319.985C336.043 319.222 337.318 318.28 337.978 317.068C338.18 316.697 338.365 316.028 337.766 315.918C336.812 315.744 335.684 316.722 334.974 317.216C334.504 317.543 333.977 317.877 333.565 318.282C333.448 318.396 334.587 317.475 334.676 317.389C335.72 316.377 337.557 313.805 334.842 313.457C331.964 313.089 328.767 313.948 325.991 314.574C322.41 315.383 318.858 316.486 315.419 317.768C314.958 317.94 312.487 318.669 312.363 319.363C312.313 319.637 316.177 318.652 316.381 318.584C317.787 318.117 319.232 317.606 320.558 316.937C320.802 316.814 322.328 316.066 321.303 315.898C318.016 315.358 314.877 317.063 311.695 317.489C311.641 317.496 311.488 317.459 311.539 317.438C312.593 317 313.711 316.664 314.781 316.27C316.27 315.72 317.743 315.182 319.272 314.756" stroke="#FFC077" stroke-width="6" stroke-linecap="round"/>
<path d="M310.774 299.953C310.702 298.709 310.578 297.373 311.934 296.938C312.45 296.772 312.997 296.657 313.522 296.831C313.845 296.939 313.824 296.994 314.147 296.814" stroke="#FFC077" stroke-width="6" stroke-linecap="round"/>
<path d="M183.264 304.288C178.749 304.221 175.562 305.355 172.571 308.899C170.474 311.384 169.415 315.107 169.56 318.325C170.163 331.663 189.915 329.104 198.114 326.493C202.338 325.147 208.075 323.1 210.339 318.922C211.912 316.02 212.622 312.608 210.696 309.74C206.121 302.925 195.462 300.14 187.838 301.705" stroke="#FFC077" stroke-width="6" stroke-linecap="round"/>
<path d="M184.313 311.377C182.261 311.706 180.499 311.913 178.819 313.185C176.754 314.748 176.473 314.686 177.991 312.312C178.271 311.873 180.595 309.054 180.327 308.493C180.293 308.421 176.252 313.236 175.884 313.683C174.849 314.943 174.354 315.396 175.594 313.726C176.973 311.868 178.264 309.864 179.858 308.181C181.847 306.079 172.862 317.406 174.588 315.082C175.88 313.34 177.413 311.635 178.479 309.741C178.959 308.887 175.819 311.632 175.579 311.906C175.25 312.284 172.781 316.818 173.51 316.534C176.317 315.438 178.825 311.555 180.8 309.397C182.15 307.922 182.662 307.525 181.593 309.746C180.021 313.013 177.493 316.5 176.969 320.153C176.529 323.212 180.515 317.382 180.888 316.861C182.318 314.865 184.819 312.125 185.398 309.691C185.818 307.924 182.927 312.368 181.883 313.855C181.612 314.241 177.305 320.674 177.994 320.785C179.936 321.096 183.552 315.294 184.43 314.029C186.011 311.747 190.653 304.872 188.804 306.942C187.501 308.401 186.599 310.767 185.883 312.543C185.454 313.606 182.46 321.696 186.138 318.563C189.041 316.091 190.925 312.603 193.878 310.173C195.632 308.732 197.644 308.282 197.149 311.088C196.763 313.27 195.728 315.271 195.248 317.427C194.589 320.391 197.262 317.649 198.007 316.892C199.162 315.72 200.335 314.564 201.469 313.372C201.737 313.09 202.371 312.217 202.351 312.606C202.285 313.917 200.774 315.7 200.2 316.821C200.152 316.915 198.574 319.666 199.071 319.785C200.443 320.111 202.936 317.15 203.777 316.377C204.554 315.664 206.257 314.706 204.565 316.26C202.183 318.449 199.348 319.228 196.238 319.822C193.136 320.416 190.048 320.624 186.895 320.527C185.439 320.482 181.403 319.243 182.54 320.154C185.791 322.759 190.604 322.353 194.306 321.083C195.786 320.575 198.194 319.752 199.138 318.377C200.38 316.567 195.466 320.785 193.581 321.91C189.723 324.213 181.22 327.968 177.494 323.845C174.834 320.902 182.076 322.727 182.901 323.024C185.188 323.846 187.372 324.935 189.828 325.177C190.479 325.241 192.776 324.352 192.669 324.333C190.885 324.017 188.665 324.505 186.853 324.536C183.887 324.587 181.032 324.463 178.189 323.531C177.513 323.309 174.1 322.235 174.232 321.129C174.331 320.309 176.576 321.612 176.775 321.706C178.27 322.412 179.714 323.221 181.146 324.046C182.404 324.771 182.73 324.689 181.281 323.815C178.962 322.414 176.233 321.608 173.79 320.432C173.189 320.143 171.145 319.261 172.771 320.413C177.093 323.478 181.967 323.683 187.033 323.175C191.809 322.697 197.201 322.834 201.802 321.35C202.555 321.107 203.762 320.737 204.282 320.073C204.671 319.576 204.698 318.825 203.903 318.943C199.952 319.527 196.454 321.825 192.643 322.727C191.764 322.935 193.606 322.923 193.687 322.911C195.578 322.631 197.551 321.499 199.187 320.572C200.116 320.046 205.993 315.529 201.774 315.148C200.205 315.007 198.493 316.069 197.243 316.878C196.381 317.435 194.311 319.845 193.173 319.725C190.281 319.421 193.351 313.529 194.505 312.834C198.023 310.717 201.638 313.601 204.466 315.301C206.288 316.396 209.029 316.159 206.976 313.658C204.538 310.688 199.709 307.217 195.913 306.314C195.419 306.196 198.748 306.999 199.182 307.08C200.254 307.279 203.967 307.187 204.72 308.146C204.957 308.447 202.489 308.234 202.445 308.228C199.788 307.862 197.3 306.796 194.636 306.418C194 306.328 187.047 305.771 187.822 306.748C188.818 308.006 188.51 309.399 187.195 307.519C186.474 306.489 184.899 304.592 183.387 305.117C182.432 305.448 179.669 307.304 182.307 306.696C183.721 306.37 184.824 305.412 186.147 304.878C186.648 304.676 188.255 304.623 187.544 305.582C187.207 306.036 182.909 308.894 182.807 307.787C182.682 306.421 187.88 304.839 188.762 305.084C190.045 305.441 183.646 306.519 184.963 306.324C185.659 306.221 187.553 304.839 186.275 305.028C185.881 305.087 187.099 305 187.451 304.812C188.184 304.421 188.665 304.118 187.491 304.51C186.997 304.674 183.164 306.222 184.262 305.453C184.646 305.185 189.078 303.443 189.08 303.512C189.113 304.406 184.23 304.563 183.556 304.541C181.495 304.473 185.202 303.892 185.62 303.749C186.398 303.482 188.743 302.522 186.473 303.072C185.762 303.244 184.008 304.304 184.357 303.66C184.675 303.074 186.322 302.494 186.923 302.391C188.939 302.044 184.532 303.293 183.995 303.502C183.496 303.695 180.99 305.626 182.646 304.549C183.942 303.705 188.539 302.745 187.009 302.971C184.839 303.292 182.982 303.601 181.013 304.536C180.622 304.722 179.391 305.31 179.479 305.907C179.506 306.091 181.042 304.828 181.133 304.773C182.51 303.935 185.195 302.137 186.839 302.255C188.533 302.377 183.484 303.128 182.092 304.101C181.665 304.4 178.388 306.529 180.334 305.102C181.879 303.97 183.533 302.613 184.812 304.44" stroke="#FFC077" stroke-width="6" stroke-linecap="round"/>
<path d="M191.402 310.328C192.219 310.444 194.925 311.305 195.718 310.579C196.011 310.31 196.512 308.835 195.66 309.042C194.999 309.201 191.216 312.304 192.177 312.416C193.924 312.62 195.483 308.426 195.059 308.559C194.389 308.768 190.877 311.755 191.11 312.362C191.376 313.058 195.456 309.259 195.885 308.987C196.068 308.871 195.758 309.914 195.753 309.96C195.606 311.337 195.939 313.124 196.809 314.231C198.59 316.498 202.591 314.304 203.88 312.485C204.895 311.052 204.964 308.879 205.731 311.258C205.97 311.998 206.954 314.685 208.209 314.26C208.822 314.052 209.816 311.643 209.696 312.282C209.397 313.866 208.923 315.389 208.806 317.01C208.733 318.034 209.618 314.748 210.619 314.517C211.899 314.222 205.411 324.187 209.156 318.081C211.193 314.759 209.644 318.562 210.111 318.236" stroke="#FFC077" stroke-width="6" stroke-linecap="round"/>
<path d="M187.291 266.166C181.944 277.276 173.444 290.355 180.124 303.073C184.37 311.157 193.209 309.339 197.858 302.917C201.671 297.65 202.603 293.638 199.901 283.28C196.472 275.982 194.497 270.67 190.443 266.166" stroke="#061C00" stroke-width="12" stroke-linecap="round"/>
<path d="M196.09 288.933C192.973 290.319 188.693 291.584 187.952 295.698C187.854 296.24 188.472 294.731 188.577 294.19C188.899 292.524 191.669 277.786 190.785 284.916C190.253 289.203 187.619 301.67 189.395 297.81C191.584 293.051 190.796 276.575 189.756 281.782C188.585 287.639 188.27 294.714 189.344 300.649C190.756 308.456 189.801 284.592 187.857 276.906C185.824 268.872 185.158 286.92 185.134 288.431C184.969 298.653 188.127 294.809 189.086 287.442C189.613 283.39 190.054 279.054 189.406 274.958C188.979 272.262 187.484 272.283 186.736 274.746C185.846 277.681 183.965 294.804 188.003 296.045C193.226 297.65 193.034 280.72 192.774 278.302C191.626 267.635 188.442 279.645 188.083 283.849C187.982 285.026 188.552 299.292 191.58 292.836C192.742 290.359 193.553 287.313 194.033 284.587C194.131 284.032 193.538 279.436 192.857 281.727C190.999 287.974 191.453 297.075 192.408 303.532C192.531 304.364 195.755 294.058 196.485 291.605" stroke="#061C00" stroke-width="12" stroke-linecap="round"/>
<path d="M328.125 263.621C323.84 270.4 310.817 286.105 313.454 295.706C315.188 302.017 322.012 308.778 328.391 306.335C336.139 303.366 338.281 296.651 337.03 288.686C335.93 281.685 332.342 270.04 329.601 264.365" stroke="#061C00" stroke-width="12" stroke-linecap="round"/>
<path d="M325.178 285.361C324.609 286.781 319.167 297.528 324.652 295.221C328.08 293.779 329.272 289.248 328.892 285.556C328.131 278.168 317.956 295.028 324.516 297.552C330.786 299.965 333.895 286.977 329.619 283.681C324.608 279.818 322.185 301.029 325.105 296.672C327.267 293.448 328.007 288.836 327.757 284.971C327.708 284.215 327.587 277.217 325.696 278.598C323.128 280.472 321.793 286.474 321.74 289.584C321.697 292.178 323.459 297.879 326.324 293.958C328.607 290.831 329.154 273.694 326.819 276.564C325.142 278.626 322.051 291.389 325.611 288.305" stroke="#061C00" stroke-width="12" stroke-linecap="round"/>
<path d="M255 327C256.33 326.836 260.018 326.335 258.732 326.088C257.591 325.869 256.558 326.113 255.473 326.231" stroke="#061C00" stroke-width="6" stroke-linecap="round"/>
<path d="M246 344L260.679 343L267 344" stroke="#061C00" stroke-width="6" stroke-linecap="round"/>
<path d="M209.5 198.5C206.832 228.515 215.949 264.392 246.06 279.447" stroke="#061C00" stroke-width="12" stroke-linecap="round"/>
<path d="M298.5 184.5C318.719 225.431 280.277 259.34 249.5 281.5" stroke="#061C00" stroke-width="12" stroke-linecap="round"/>
</svg>
