<svg width="512" height="512" viewBox="0 0 512 512" fill="none" xmlns="http://www.w3.org/2000/svg">
<path d="M160.754 223.077C180.858 223.077 200.958 218.658 221.001 217.188C252.654 214.865 284.516 217.218 316.069 219.946C324.664 220.689 333.395 221.201 341.926 222.56C345.791 223.176 346.074 223.909 341.983 223.451C326.426 221.706 311.138 219.149 295.44 218.538C274.743 217.732 253.034 219.93 232.665 223.652C226.796 224.724 220.946 226.153 215.312 228.134C212.627 229.078 211.376 229.784 215.197 230.03C223.623 230.571 232.081 230.025 240.509 229.858C255.243 229.565 269.97 230.086 284.695 230.576C298.158 231.023 311.59 231.634 325.004 232.903C331.948 233.56 339.145 234.083 345.948 235.747C351.069 237 347.067 237.267 344.425 237.212C332.455 236.963 320.479 236.377 308.513 235.977C272.805 234.784 237.299 235.19 201.608 236.58C192.042 236.953 182.493 237.707 173.108 239.683C169.553 240.432 160.14 242.573 163.282 244.395C164.929 245.35 169.788 245.436 170.809 245.487C176.155 245.752 184.378 245.789 189.369 245.86C208.62 246.134 227.873 246.535 247.116 247.153C285.351 248.381 323.96 251.623 361.836 256.979C371.709 258.375 381.61 260.113 391.313 262.437C391.727 262.537 392.828 263.053 392.405 263.098C390.878 263.261 386.217 263.159 385.567 263.156C351.163 262.987 316.744 262.809 282.34 262.753C246.791 262.696 211.524 265.391 176.498 271.516C174.696 271.831 169.284 272.741 171.097 272.493C177.806 271.576 184.496 270.518 191.208 269.62C224.576 265.154 258.238 263.487 291.878 264.563C319.023 265.432 346.643 266.897 373.299 272.378C379.022 273.555 384.792 274.851 390.365 276.63C391.873 277.112 394.677 278.131 391.169 278.182C385.794 278.259 380.394 277.535 375.08 276.86C361.848 275.178 348.638 273.194 335.318 272.321C302.261 270.154 269.135 270.995 236.084 272.493C226.034 272.949 215.979 273.267 205.917 273.24C200.855 273.226 195.024 273.677 190.116 272.091C186.913 271.056 189.611 269.783 191.323 269.16C199.635 266.137 208.446 264.109 217.065 262.208C242.693 256.555 269.019 253.822 295.096 251.118C295.258 251.101 311.636 249.969 301.474 249.969C289.323 249.969 277.176 250.33 265.044 251.003C244.765 252.128 224.494 253.481 204.309 255.772C188.3 257.589 171.589 260.148 156.617 266.402C156.32 266.526 154.291 267.419 153.858 267.839C153.643 268.048 154.365 268.277 154.663 268.241C158.84 267.738 163.197 265.931 167.189 264.736C172.306 263.204 177.376 261.496 182.589 260.311C184.314 259.919 187.378 258.668 189.197 259.22C193.546 260.54 181.18 267.516 180.52 267.896C177.796 269.462 175.19 271.13 172.591 272.895C171.678 273.515 168.756 274.8 168.224 275.941C167.367 277.776 179.705 277.94 180.692 278.009C183.879 278.231 207.48 279.5 205.86 285.709C205.103 288.609 200.656 289.778 198.275 290.564C193.214 292.236 187.916 293.576 182.589 293.983C180.911 294.111 166.308 294.575 169.43 288.898C171.343 285.421 178.899 293.826 179.629 295.362C182.017 300.381 185.211 308.703 182.387 314.209C180.038 318.79 174.778 311.182 173.654 309.239C170.523 303.831 168.778 298.005 167.821 291.857C167.129 287.405 170.74 290.966 171.958 292.547C176.13 297.959 179.362 303.831 182.761 309.727C184.025 311.92 193.82 331.722 184.255 326.161C179.929 323.646 175.266 320.029 171.901 316.335C170.561 314.864 168.748 312.773 168.252 310.79C167.808 309.012 170.88 313.397 171.844 314.956C175.265 320.492 178.451 325.498 183.738 329.551C185.265 330.722 181.574 324.144 181.152 323.546C178.869 320.312 176.454 317.184 174.056 314.037C173.704 313.575 173.163 312.559 174.286 313.232C176.87 314.783 179.039 318.746 180.922 321.076C183.119 323.792 185.585 325.997 188.047 328.459C188.654 329.066 190.556 330.734 188.335 330.557C185.287 330.313 181.642 328.248 178.882 326.994C177.752 326.48 173.847 323.142 176.728 325.586C181.216 329.395 186.81 331.775 191.409 335.498C196.6 339.7 203.999 342.155 210.572 343.227C218.506 344.52 226.783 344.088 234.791 344.088C240.22 344.088 245.569 345.065 250.966 345.065C254.388 345.065 257.823 345.065 261.223 345.065C263.135 345.065 258.34 345.367 257.976 345.41C243.34 347.147 227.742 346.864 213.416 343.341C211.044 342.758 205.996 341.151 210.888 344.175C217.927 348.526 225.843 350.349 233.786 352.363C243.47 354.818 253.276 356.124 263.148 357.534C269.577 358.453 276.36 360.517 282.857 360.637C292.165 360.809 264.67 356.11 256.253 352.133C250.137 349.243 243.744 346.661 237.291 344.606C233.566 343.419 230.854 343.91 227.178 344.491C223.417 345.085 218.671 345.004 214.939 344.376C214.475 344.298 208.29 342.319 210.974 342.135C214.759 341.876 218.903 343.21 222.581 343.859C227.591 344.743 232.548 345.57 237.463 346.904C248.59 349.923 259.74 353.302 271.192 354.834C283.495 356.479 296.356 356.441 308.541 353.914C316.015 352.364 323.418 350.264 330.606 347.708C337.766 345.163 345.839 342.517 352.154 338.113C353.443 337.213 356.414 333.424 353.073 332.941C350.073 332.507 346.96 334.472 344.339 335.584C339.878 337.477 335.314 338.825 330.549 339.721C319.351 341.828 307.885 343.944 296.59 345.41C296.126 345.47 288.041 346.854 292.912 344.663C296.843 342.896 300.867 341.33 304.864 339.721C316.302 335.118 327.778 330.606 338.708 324.868C347.195 320.413 356.643 315.45 362.726 307.774C365.172 304.688 362.044 305.759 360.026 306.624C356.113 308.301 352.112 310.445 348.936 313.318C348.152 314.028 341.965 322.471 343.477 322.196C345.692 321.793 348.24 319.337 349.913 318.059C354.029 314.914 357.632 311.42 360.801 307.314C362.596 304.989 374.335 291.328 369.65 288.036C367.283 286.372 361.332 288.027 359.049 288.553C350.975 290.413 343.216 293.535 335.519 296.54C327.073 299.838 318.605 303.12 310.265 306.682C306.523 308.28 302.035 309.881 298.716 312.37C297.961 312.937 305.948 310.591 305.956 310.589C313.89 308.032 321.808 305.433 329.629 302.545C339.631 298.852 349.54 294.895 359.451 290.966C364.568 288.938 370.257 287.164 375.023 284.33C377.24 283.012 369.933 285.239 367.467 285.996C355.706 289.605 344.158 293.889 332.675 298.293C314.225 305.369 295.342 312.629 278.001 322.196C277.57 322.434 276.341 323.183 276.823 323.087C277.803 322.891 281.309 321.554 281.593 321.449C286.778 319.536 291.907 317.46 297.107 315.588C311.846 310.282 327.008 306.124 341.811 300.965C344.477 300.035 351.253 298.876 353.389 296.598C355.467 294.381 347.285 296.482 344.282 296.942C321.491 300.439 298.931 305.756 276.622 311.508C266.573 314.1 236.465 321.912 246.657 319.955C264.834 316.464 282.651 311.643 300.957 308.693C309.787 307.27 318.639 306.08 327.503 304.901C333.436 304.111 324.549 304.783 324.515 304.786C301.216 306.401 278.179 310.202 254.988 312.83C251.095 313.271 208.452 320.221 209.135 309.727C209.484 304.362 220.491 300.878 224.075 299.327C236.193 294.083 248.624 289.456 261.137 285.249C270.399 282.135 279.774 279.415 289.12 276.573C293.834 275.139 289.147 276.209 287.568 276.573C264 282.004 240.467 288.329 217.812 296.856C217.401 297.011 199.697 303.603 201.091 305.36C203.147 307.953 214.681 304.463 216.548 304.096C242.297 299.034 267.988 292.904 294.176 290.536C297.517 290.233 305.432 288.575 304.174 291.685C303.614 293.07 299.317 295.592 298.946 295.822C295.967 297.663 289.247 301.38 286.362 303.062C278.666 307.547 271.182 312.364 264.642 318.461C264.059 319.004 256.501 325.469 260.907 326.563C266.645 327.988 274.452 324.92 279.869 323.518C291.388 320.536 302.831 317.247 314.287 314.037C318.354 312.897 325.112 310.991 329.457 309.842C331.168 309.39 332.859 308.594 334.628 308.635C335.512 308.656 333.122 309.565 332.33 309.957C328.622 311.794 325.968 313.024 322.16 315.014C312.112 320.261 302.183 325.967 293.257 332.999C292.098 333.911 288.267 337.086 287.281 338.86C286.54 340.193 287.539 340.837 288.775 340.756C291.122 340.601 296.127 338.671 297.854 337.998C301.219 336.687 311.021 332.481 313.943 331.217C325.614 326.171 337.201 320.952 348.649 315.416C355.433 312.135 363.957 309.112 369.622 303.924C370.033 303.547 370.352 302.275 369.794 302.257C368.324 302.21 364.973 303.715 364.105 304.096C355.15 308.029 346.133 312.134 337.386 316.508C331.904 319.249 324.812 322.465 320.723 327.31C318.038 330.492 324.361 328.994 325.205 328.747C330.442 327.211 335.386 324.361 340.03 321.564C345.272 318.407 350.36 314.805 354.912 310.704C357.702 308.191 361.786 304.564 362.152 300.476C362.816 293.056 351.912 296.499 348.764 297.89C345.093 299.513 330.331 308.288 335.146 314.496C337.326 317.309 344.02 314.822 346.58 314.209C352.386 312.819 357.963 310.894 363.416 308.463C368.505 306.194 373.793 303.779 378.356 300.534C378.415 300.491 382.852 297.246 381.516 296.741C379.283 295.898 375.136 298.475 373.414 299.442C370.067 301.32 366.877 303.673 364.22 306.452C361.373 309.43 359.044 313.217 365.312 310.934C372.397 308.354 379.792 303.683 384.964 298.178C385.521 297.585 387.58 295.653 387.032 294.558C386.572 293.638 385.366 294.5 384.964 294.902C380.637 299.229 377.522 304.367 372.61 308.176C370.67 309.68 369.858 307.247 368.76 305.82C366.137 302.411 363.386 303.732 359.796 304.958C356.595 306.051 353.275 306.961 350.028 307.889" stroke="#FFF5E0" stroke-width="30" stroke-linecap="round"/>
<path d="M383.943 235.304C383.582 233.497 383.334 231.723 383.019 229.904C382.498 226.889 381.696 222.897 382.664 228.436C383.81 234.995 384.672 241.599 385.767 248.165C386.581 253.049 385.731 245.772 385.648 245.157C384.965 240.089 384.465 234.775 385.033 229.667C385.069 229.341 385.258 228.491 385.435 228.767C386.145 229.871 386.329 232.849 386.549 233.883C387.193 236.915 387.894 239.994 388.728 242.978C389.086 244.26 389.465 245.538 389.912 246.792C390.205 247.615 390.996 249.678 390.717 247.384C389.978 241.311 388.068 235.651 387.828 229.454C387.745 227.34 387.755 223.591 387.78 228.246C387.798 231.572 388.159 234.902 388.159 238.218C388.159 242.648 385.17 221.078 384.464 225.452C384.215 226.998 384.522 227.779 382.948 226.73C382.474 226.414 379.147 224.942 379.159 224.93C384.008 220.081 392.315 217.551 398.604 215.693C414.038 211.135 429.857 207.563 445.429 203.472C448.482 202.67 457.778 200.859 454.666 201.388C448.634 202.412 442.524 202.723 436.429 203.14C428.109 203.71 419.779 204.25 411.465 204.893C402.268 205.605 412.249 204.892 403.744 205.604C402.728 205.689 399.9 205.818 400.712 205.201C403.301 203.233 408.135 203.447 411.181 202.904C412.442 202.678 421.223 201.129 421.223 199.303C421.223 198.74 408.908 202.817 408.339 203.046C403.294 205.075 388.601 211.974 393.843 210.53C409.483 206.221 424.405 199.351 440.408 196.177C441.038 196.052 447.95 194.336 446.827 196.793C445.686 199.287 441.924 200.172 439.461 200.274C438.743 200.304 435.585 200.338 437.85 199.446C441.338 198.07 444.142 197.869 447.869 198.214C450.668 198.473 454.018 198.445 456.182 200.582C459.14 203.504 458.329 208.651 461.393 211.714C462.678 213 466.066 216.07 467.717 213.917C468.609 212.753 469.628 211.077 469.777 209.583C469.943 207.921 467.865 208.662 467.267 209.369C465.225 211.783 464.045 215.707 463.335 218.725C462.958 220.325 461.59 225.394 463.264 226.754C464.278 227.578 465.532 222.319 465.609 221.946C466.274 218.725 465.611 215.296 463.832 212.52C461.581 209.006 458.573 210.666 456.206 213.159C452.594 216.964 450.847 222.192 450.687 227.394C450.604 230.11 451.321 234.638 454.974 232.533C458.397 230.561 459.989 226.755 460.682 223.036C461.283 219.808 462.268 208.008 456.182 208.635C451.735 209.093 448.048 214.152 446.069 217.636C443.324 222.465 441.451 229.283 445.05 234.262C447.786 238.047 452.05 237.046 454.666 233.86C459.801 227.606 459.384 219.196 453.15 213.893C447.514 209.099 440.937 208.814 434.771 212.756C427.555 217.371 419.99 224.923 416.747 232.983C414.334 238.981 414.163 247.112 416.202 253.258C418.412 259.917 420.936 253.764 421.507 250.226C422.206 245.901 421.803 221.133 411.844 230.046C406.726 234.627 404.827 243.477 404.028 249.942C403.593 253.456 403.658 257.085 404.075 260.6C404.147 261.206 404.242 261.812 404.407 262.4C404.748 263.617 404.913 262.633 404.999 262.021C405.875 255.793 405.233 248.924 404.738 242.694C404.297 237.14 403.14 231.585 401.281 226.328C399.369 220.922 398.293 230.108 398.107 231.325C396.398 242.49 396.505 253.998 397.254 265.242C397.393 267.331 397.584 269.081 397.823 271.116C397.866 271.487 397.917 271.858 397.965 272.229C398.003 272.527 398.073 273.067 397.965 272.04C397.523 267.843 397.223 263.683 397.065 259.463C396.99 257.485 396.93 255.919 396.828 253.968C396.8 253.447 396.778 252.925 396.733 252.405C396.653 251.487 396.605 251.637 396.496 252.571C395.44 261.627 396.058 271.029 396.33 280.116C396.485 285.272 397.205 290.45 397.159 295.606C397.134 298.485 395.034 289.336 395.028 289.306C393.771 283.492 392.848 277.632 391.807 271.779C391.538 270.269 390.821 266.825 389.935 270.311C387.98 278.009 392.154 301.797 390.054 294.138C388.061 286.871 387.193 264.133 387.875 271.637C388.142 274.57 390.155 297.552 391.759 297.406C392.467 297.342 391.732 295.985 391.712 295.274C391.63 292.369 391.622 289.453 391.925 286.558C392.034 285.519 394.231 276.547 394.601 277.156C396.216 279.809 395.443 284.793 395.454 287.695C395.477 293.719 395.454 299.743 395.454 305.767C395.454 309.426 395.56 313.037 395.786 316.686C395.938 319.149 395.663 318.737 394.128 317.396C393.51 316.856 387.97 311.754 387.97 313.417C387.97 315.437 389.047 317.779 389.699 319.623C389.854 320.061 391.37 324.668 391.996 321.849C392.246 320.724 391.482 316.408 389.983 316.283C389.282 316.225 391.479 324.098 389.485 322.275C389.177 321.993 386.866 319.48 386.596 319.48C386.461 319.48 386.005 320.222 385.862 320.333C385.7 320.459 384.468 320.766 384.654 320.333C385.147 319.182 386.46 319.967 387.141 320.333C387.776 320.675 388.554 320.57 389.249 320.57C391.905 320.57 393.972 321.249 396.496 322.133C404.183 324.827 412.137 326.974 419.328 330.897C423.52 333.183 427.772 334.643 432.213 336.344C434.596 337.257 433.348 336.745 434.25 339.044C434.905 340.715 436.104 342.46 437.187 343.876C437.556 344.359 439.898 346.457 437.874 345.605C430.891 342.665 423.829 339.584 416.984 336.344C413.811 334.843 410.659 333.638 407.391 332.412C404.613 331.37 407.679 332.684 408.67 333.36C414.998 337.677 420.333 343.422 426.244 348.281C427.891 349.635 429.733 351.482 431.668 352.45C432.984 353.108 432.559 351.413 432.616 350.792C432.996 346.612 443.718 349.736 446.045 349.963C455.412 350.877 464.757 349.897 473.898 352.639C475.386 353.085 476.178 353.639 474.206 352.473C472.032 351.189 469.792 350.05 467.361 349.323C465.6 348.797 462.911 348.236 461.227 349.3C459.049 350.675 459.088 355.167 459.924 357.258C461.239 360.546 469.114 357.259 471.056 356.145C472.311 355.425 475.98 353.87 474.561 353.587C473.14 353.302 471.261 353.625 469.73 353.397C464.802 352.665 459.645 353.823 454.666 353.823C452.462 353.823 455.312 353.815 455.803 353.8C459.747 353.677 463.62 353.266 467.456 352.331C467.919 352.219 471.989 351.231 471.388 351.266C468.307 351.443 465.384 353.072 462.766 354.558C458.861 356.773 455.189 359.363 451.208 361.45C450.231 361.962 448.134 362.917 450.782 362.871C459.504 362.721 468.761 356.08 475.769 351.408C476.315 351.044 478.727 349.786 477.877 348.708C476.496 346.955 472.739 349.513 471.293 349.939C464.555 351.927 455.358 348.615 448.887 347.002C437.067 344.057 426.589 337.6 414.52 335.491C412.366 335.115 409.591 334.859 407.77 333.454C406.558 332.519 409.88 332.812 409.902 332.815C417.746 334.054 425.881 337.326 433.966 336.486C443.103 335.537 438.419 320.886 437.755 315.738C436.836 308.607 435.942 301.52 434.629 294.446C433.527 288.51 432.696 280.227 427.855 275.9C423.082 271.634 418.425 278.327 416.391 281.987C412.115 289.685 409.816 298.574 409.523 307.354C409.49 308.348 408.799 310.905 409.618 310.338C409.917 310.131 409.788 309.63 409.854 309.272C413.918 287.327 404.61 336.854 411.157 301.883C413.338 290.233 415.808 278.622 418.831 267.161C419.497 264.636 420.066 262.623 420.655 260.126C420.81 259.466 420.971 258.806 421.081 258.137C421.14 257.781 420.673 258.742 420.56 259.084C418.164 266.355 416.714 273.895 415.515 281.443C414.175 289.881 412.933 298.499 413.265 307.07C413.285 307.572 413.36 309.538 413.597 307.472C413.981 304.125 414.057 300.723 414.118 297.359C414.284 288.195 414.117 279.02 413.36 269.884C413.232 268.344 412.875 264.37 412.697 262.755C412.543 261.363 412.544 257.539 411.228 256.384C410.803 256.011 410.319 257.199 410.233 257.758C409.51 262.502 409.93 267.805 410.044 272.537C410.389 286.808 411.254 301.199 412.933 315.383C413.014 316.06 413.283 319.154 413.881 320.144C414.595 321.325 415.98 318.124 416.297 316.78C418.289 308.33 418.982 299.429 420.678 290.893C422.702 280.711 424.772 270.509 427.571 260.505C428.376 257.626 429.306 253.51 429.608 259.202C430.239 271.12 431.105 283.017 432.26 294.896C432.289 295.19 432.995 306.454 434.345 306.454C435.295 306.454 434.221 304.555 434.108 303.612C433.313 296.988 432.6 290.358 431.976 283.716C430.787 271.05 429.781 258.313 429.75 245.584C429.749 245.107 429.775 240.56 429.987 239.426C430.476 236.808 430.695 244.706 430.91 247.36C431.845 258.852 433.787 269.962 436.95 281.064C439.788 291.026 443.005 301.576 448.058 310.693C449.76 313.763 448.848 309.953 448.65 309.154C447.414 304.173 445.667 299.326 444.245 294.398C440.559 281.624 438.022 268.522 437.708 255.2C437.563 249.042 438.623 230.591 438.703 236.749C438.808 244.837 439.408 252.777 440.597 260.789C441.627 267.727 442.91 274.62 444.316 281.49C444.758 283.648 446.368 290.034 445.571 287.98C442.927 281.161 441.67 273.46 439.792 266.403C437.093 256.262 434.561 246.098 432.639 235.778C432.312 234.019 431.471 229.237 431.218 227.252C431.039 225.847 430.301 222.227 431.479 223.012C432.541 223.72 432.112 229.317 432.118 229.762C432.236 237.838 432.425 245.898 432.805 253.968C433.181 261.938 433.026 270.624 434.676 278.506C435.258 281.288 435.219 272.843 435.316 270.003C435.53 263.703 436.108 257.331 436.003 251.031C435.951 247.947 435.264 248.602 434.581 251.221C433.007 257.254 432.252 263.602 431.645 269.79C430.254 283.94 430.3 298.099 431.502 312.257C431.783 315.565 432.245 320.184 432.687 323.649C432.796 324.504 432.917 325.358 433.066 326.207C433.158 326.735 433.924 327.53 433.445 327.77C433.369 327.808 431.64 319 431.55 318.249C431.426 317.214 430.508 310.854 430.508 315.62C430.508 320.678 431.202 326.333 432.639 331.181C434.523 337.536 434.262 324.902 434.25 324.525C434.023 317.348 433.596 309.516 435.624 302.522C437.079 297.5 442.672 295.12 446.234 299.822C447.469 301.451 448.853 304.789 449.55 306.548C451.742 312.079 453.639 317.755 455.543 323.388C456.284 325.583 456.873 327.831 457.698 329.997C458.898 333.146 456.034 323.465 455.235 320.191C452.558 309.232 450.952 298.255 449.384 287.08C448.9 283.629 447.45 273.241 446.85 269.008C446.663 267.689 446.473 266.371 446.282 265.053C446.14 264.074 445.365 262.975 445.855 262.116C446.029 261.811 446.042 262.792 446.116 263.134C446.452 264.687 446.769 266.244 447.087 267.8C448.987 277.089 450.767 286.406 452.866 295.653C453.894 300.182 454.6 302.979 455.85 307.283C456.194 308.465 456.538 309.648 456.94 310.812C457.534 312.532 457.496 311.776 457.319 310.622C455.274 297.333 453.201 284.24 452.369 270.784C452.208 268.181 452.077 265.576 452.013 262.968C451.966 261.04 451.88 258.633 452.535 261.405C453.721 266.428 454.748 271.459 456.111 276.445C456.704 278.617 457.198 280.295 456.514 277.558C455.346 272.887 454.208 268.248 453.435 263.489C453.078 261.296 452.416 256.391 452.203 254.015C452.135 253.252 452.071 252.484 452.108 251.718C452.166 250.552 452.604 251.372 452.866 251.813C455.364 256.009 456.661 261.268 458.361 265.811C459.299 268.316 460.081 271.344 461.606 273.603C462.258 274.569 462.057 271.277 461.914 270.121C461.039 263.034 459.859 255.981 458.385 248.994C458.103 247.657 457.022 243.793 456.94 245.157C456.586 251.041 458.167 257.646 459.403 263.347C459.939 265.818 460.551 268.485 461.961 270.642C462.316 271.185 463.308 272.324 463.572 271.732C464.233 270.243 463.214 268.214 463.43 266.663C463.473 266.353 463.907 267.092 464.045 267.374C465.18 269.687 466.033 272.157 466.84 274.598C467.023 275.15 469.557 284.479 470.251 284.19C472.86 283.103 470.719 273.022 470.488 271.211C470.442 270.849 469.424 262.987 470.132 263.253C472.259 264.05 474.548 269.624 475.509 271.305C477.588 274.943 479.266 279.05 482.093 282.2C484.502 284.884 480.936 280.094 480.648 279.737C478.666 277.277 477.05 273.903 474.609 271.874C472.037 269.736 474.195 277.047 474.277 277.274C476.174 282.526 478.68 287.58 480.862 292.717C481.092 293.26 483.782 300.469 482.425 296.317C481.758 294.276 480.659 291.585 481.051 289.401C481.47 287.069 483.298 289.43 483.704 290.348C486.186 295.965 487.138 302.623 488.251 308.609C488.709 311.07 489.112 313.523 489.246 316.022C489.266 316.392 489.342 317.463 489.459 317.112C490.355 314.425 490.17 311.35 491.046 308.585C491.618 306.781 492.986 303.035 493.936 306.833C495.258 312.121 495.114 317.794 494.599 323.175C494.321 326.08 494.318 330.655 492.657 333.265C490.985 335.892 491.003 326.829 491.188 325.875C491.505 324.244 491.79 325.368 491.615 326.349C490.98 329.898 489.755 333.17 488.157 336.391C488.125 336.456 486.138 340.501 485.693 339.802C484.984 338.687 486.746 336.034 487.351 335.207C488.862 333.141 488.001 336.557 487.872 337.102C487.261 339.683 486.857 345.706 484.604 347.476C481.147 350.192 488.746 339.367 488.796 334.97C488.938 322.446 470.504 313.598 461.677 323.27C458.271 327.001 454.96 333.294 457.437 338.31C460.188 343.879 464.381 333.538 465.088 331.749C468.102 324.119 469.843 315.068 468.996 306.856C468.769 304.661 467.874 300.704 465.372 304.464C462.238 309.174 460.645 315.447 460.114 320.996C459.785 324.424 459.464 334.779 464.898 335.349C472.345 336.131 474.231 327.064 475.533 321.754C476.54 317.645 477.315 313.779 477.948 309.604C478.295 307.319 479.526 302.15 478.209 299.727C477.558 298.53 475.779 301.291 475.248 302.546C473.563 306.529 473.364 311.05 473.425 315.312C473.484 319.49 473.884 325.515 475.035 329.618C475.103 329.861 478.001 337.463 479.559 333.099C480.118 331.534 480.026 327.462 480.033 326.231C480.054 322.202 480.169 317.973 479.441 313.986C478.506 308.874 476.13 316.642 475.912 317.704C474.892 322.652 473.208 331.887 476.551 336.344C479.172 339.839 481.044 332.19 481.288 330.802C481.612 328.953 481.677 326.932 481.43 325.07C481.32 324.242 481.132 323.421 480.862 322.631C480.565 321.762 480.073 320.448 479.512 322.109C477.488 328.096 478.347 336.116 479.014 342.265C479.216 344.121 479.028 347.855 481.572 347.855" stroke="#FF7777" stroke-width="20" stroke-linecap="round"/>
<path d="M381.811 238.715C382.042 249.181 383.187 259.726 382.664 270.192C382.578 271.922 381.599 276.354 380.58 274.953C379.443 273.389 379.882 270.217 379.893 268.534C379.945 260.687 379.624 252.755 380.769 244.968C381.106 242.678 380.959 240.75 380.959 238.478C380.959 237.754 381.319 239.546 381.101 239.141C380.053 237.195 379.373 234.932 378.875 232.794C378.354 230.564 377.921 228.162 377.548 225.925" stroke="#FF7777" stroke-width="20" stroke-linecap="round"/>
<path d="M146.905 214.414C150.239 208.291 155.255 203.819 160.808 199.682C168.406 194.022 176.5 188.438 184.99 184.192C190.194 181.591 195.826 179.169 201.404 177.49C202.583 177.135 205.506 176.037 206.828 176.566C207.73 176.927 205.281 177.765 204.412 178.2C203.157 178.828 200.271 181.299 200.575 179.929C200.976 178.123 206.429 176.51 207.68 175.998C214.046 173.389 220.654 171.579 227.244 169.65C232.478 168.118 248.38 164.423 243.255 166.287C240.312 167.357 237.035 167.859 233.971 168.371C229.998 169.035 226 169.517 222.01 170.053C220.489 170.257 217.015 171.308 215.354 170.882C214.811 170.742 216.26 170.203 216.775 169.982C219.347 168.874 222.057 168.071 224.757 167.353C228.856 166.261 233.049 165.391 237.239 164.724C239.058 164.434 238.939 164.522 237.215 164.818C230.263 166.013 223.196 166.449 216.302 167.992C212.576 168.826 209.009 170.082 205.359 171.166C204.346 171.467 207.411 170.656 208.438 170.408C214.666 168.902 220.818 167.045 227.149 166.003C238.853 164.075 250.671 164.187 262.487 164.534C267.226 164.673 271.874 164.708 276.603 164.558C278.121 164.51 278.573 164.492 279.682 163.871C280.782 163.255 284.08 164.557 285.154 164.818C289.594 165.9 293.145 168.307 297.114 170.432C297.442 170.607 301.37 172.203 301.141 172.966C301.04 173.302 300.626 172.421 300.62 172.397C299.891 169.725 311.417 174.485 311.846 174.671C316.007 176.471 320.537 178.604 324.068 181.492C325.593 182.741 320.14 180.785 319.426 180.308C309.911 173.965 340.837 189.375 349.458 196.888C352.889 199.878 347.889 192.718 347.326 192.008C345.593 189.825 343.914 187.229 341.737 185.448C340.189 184.182 344.269 188.549 345.384 190.208C348.885 195.418 351.836 201.146 355.924 205.935C356.441 206.541 357.674 208.202 358.6 208.256C359.96 208.336 357.128 205.963 356.421 204.798C356.262 204.537 354.773 202.44 354.858 202.098C355.042 201.361 357.019 203.558 357.085 203.661C358.191 205.397 367.949 218.09 366.132 219.767C364.766 221.028 360.061 212.753 359.927 211.051C359.785 209.253 360.253 208.187 358.932 206.598C356.591 203.784 352.692 202.158 349.6 200.346C342.756 196.336 336.608 192.245 329.042 189.545C314.03 184.189 298.823 182.401 283.069 180.734C267.272 179.064 252.47 177.977 236.836 181.635C232.078 182.748 227.26 184.214 223.123 186.893C222.38 187.374 217.565 190.266 217.628 191.393C217.647 191.736 236.672 185.585 238.281 184.998C239.031 184.724 242.866 183.211 239.679 183.577C231.329 184.535 223.083 186.368 215.023 188.716C194.239 194.771 174.793 203.192 157.303 216.072C155.982 217.045 154.609 217.956 153.371 219.033C151.968 220.253 156.522 217.055 158.037 215.978C162.851 212.555 167.486 208.89 172.295 205.461C174.559 203.848 178.478 200.069 181.438 199.872C181.807 199.847 180.995 200.47 180.727 200.725C178.816 202.541 176.955 204.402 175.09 206.267C169.541 211.816 164.138 217.481 158.842 223.273C155.847 226.547 152.856 229.828 149.913 233.149C149.431 233.693 146.06 236.824 145.91 238.099C145.877 238.383 146.483 238.252 146.763 238.194C148.523 237.832 150.207 236.784 151.689 235.849C157.368 232.268 162.504 227.868 167.937 223.936C173.283 220.066 178.648 216.16 184.185 212.567C186.998 210.742 194.896 204.948 192.996 207.712C192.591 208.3 191.565 209.103 191.196 209.417C187.255 212.769 183.236 216.033 179.259 219.341C174.219 223.532 169.223 227.758 164.361 232.154C163.38 233.041 159.979 236.045 163.058 233.315C169.099 227.958 176.14 223.553 182.906 219.199C191.124 213.909 199.652 209.235 208.415 204.917C211.06 203.613 214.201 202.045 217.012 200.985C218.018 200.606 220.987 200.101 220.233 200.867C217.081 204.072 211.061 205.793 207.065 207.569C199.02 211.145 191.12 215.096 183.356 219.246C178.768 221.698 174.223 224.24 169.974 227.252C169.355 227.691 167.586 228.933 168.34 228.838C170.474 228.572 172.791 226.315 174.332 225.12C178.259 222.075 182.46 219.034 185.938 215.457C190.422 210.844 175.245 222.681 170.448 226.967C165.256 231.606 160.098 236.478 155.384 241.605C154.878 242.156 150.493 247.591 153.774 244.186C175.47 221.671 201.65 202.421 232.976 196.272C234.097 196.052 240.263 194.256 241.36 195.49C241.867 196.061 236.191 197.615 235.913 197.693C226.359 200.353 216.658 202.319 207.207 205.39C204.444 206.288 203.552 206.547 206.922 205.13C213.817 202.232 220.86 199.797 228.191 198.261C237.472 196.317 246.954 195.265 256.376 194.282C264.786 193.405 273.177 192.514 281.625 193.335C282.255 193.396 286.73 194.023 283.425 194.353C278.586 194.837 273.614 194.687 268.787 194.187C264.299 193.723 259.667 193.118 255.24 192.222C248.879 190.934 261.158 191.399 261.682 191.44C279.158 192.807 296.213 196.87 313.41 200.109C318.248 201.02 323.078 201.954 327.857 203.14C330.921 203.901 329.905 202.833 327.81 201.719C325.184 200.324 322.218 199.639 319.497 198.451C317.499 197.578 315.902 196.734 319.141 197.124C332.086 198.685 343.129 208.902 352.75 216.949C357.476 220.901 371.465 232.971 366.961 228.767C366.187 228.045 361.022 222.014 364.095 224.409C366.565 226.334 368.193 229.1 369.993 231.61C372.861 235.61 375.723 239.607 378.543 243.641C381.132 247.345 383.706 251.102 386.501 254.655C388.019 256.584 392.336 262.487 391.238 260.292C390.598 259.013 388.727 257.811 387.78 256.716C384.9 253.385 382.22 249.71 379.988 245.915C379.692 245.412 378.354 242.176 380.438 243.357C381.542 243.983 382.427 245.401 383.138 246.365C385.502 249.571 387.656 252.914 389.912 256.194" stroke="#FF7777" stroke-width="20" stroke-linecap="round"/>
<path d="M247.945 206.314C246.606 209.643 245.592 212.316 245.86 215.978C246.189 220.466 247.13 224.887 247.755 229.336C248.209 232.564 246.387 225.353 246.239 224.504C246.166 224.08 243.764 216.406 245.813 217.636C247.455 218.621 247.766 222.381 248.134 223.936C248.96 227.427 249.862 230.934 250.313 234.499C250.632 237.02 249.877 240.442 253.061 240.089C255.607 239.806 255.124 249.832 255.097 250.936C255.013 254.49 254.839 258.04 254.766 261.595C254.762 261.783 254.942 265.157 253.724 264.058C252.048 262.546 251.5 259.492 250.834 257.473C249.443 253.258 248.02 249.053 246.334 244.944C245.901 243.889 244.438 240.893 245.245 241.699C246.039 242.494 246.274 244.394 246.476 245.394C247.108 248.512 247.638 251.694 247.874 254.868C247.968 256.144 248.92 259.472 247.897 258.705C247.195 258.179 246.848 255.227 246.76 254.537C246.4 251.693 246.823 248.796 247.779 246.105C249.017 242.62 252.584 236.035 255.145 242.315C257.935 249.158 256.29 258.169 260.403 264.46C264.984 271.467 275.737 245.533 276.627 243.57C278.981 238.378 281.477 233.248 283.827 228.057C284.399 226.795 281.647 229.813 280.819 230.923C271.656 243.21 265.789 258.132 259.598 272.063C258.967 273.483 261.514 269.617 262.44 268.368C265.652 264.035 268.916 259.741 272.103 255.389C276.027 250.031 287.889 234.052 283.567 239.094C277.925 245.676 273.566 253.511 269.877 261.31C268.418 264.395 267.155 267.55 265.945 270.737C265.656 271.498 265.46 271.864 265.945 270.926C267.902 267.143 271.62 262.992 272.577 258.847C272.888 257.498 270.538 260.731 269.64 261.784C267.095 264.768 264.74 267.918 262.345 271.021C260.649 273.219 258.989 275.45 257.182 277.558C256.096 278.825 256.551 278.252 257.276 277.274C260.631 272.753 264.6 268.779 267.887 264.2C270.183 261.003 264.038 266.888 263.387 267.611C259.277 272.178 266.002 264.867 266.727 263.939C273.895 254.758 281.158 245.201 286.859 235.02C287.749 233.43 289.764 229.334 287.972 229.667C284.969 230.226 281.707 234.243 279.777 236.252C275.476 240.73 271.58 245.716 268.219 250.936C266.538 253.548 263.494 257.876 263.956 261.263C264.217 263.181 267.286 259.176 268.55 257.71C272.095 253.602 275.606 249.455 279.067 245.276C283.547 239.865 295.355 222.385 291.051 227.938C285.927 234.55 282.687 244.304 282.003 252.547C281.876 254.085 282.094 256.585 283.946 254.489C286.938 251.102 288.81 246.32 290.956 242.41C294.139 236.611 297.523 230.918 300.62 225.073C301.792 222.86 304.789 218.721 304.599 215.978C304.475 214.201 301.499 215.694 300.999 216.025C296.736 218.848 294.004 223.742 291.999 228.294C290.422 231.871 288.627 236.436 289.062 240.468C289.285 242.544 290.519 242.739 291.809 241.178C294.658 237.733 296.261 233.038 297.636 228.862C299.27 223.895 300.738 218.407 299.862 213.135C297.912 201.395 286.325 204.812 279.493 210.246C274.527 214.195 270.089 219.388 268.456 225.641C267.789 228.193 266.446 234.954 269.356 236.915C273.913 239.986 283.309 217.72 283.898 214.841C284.325 212.757 284.843 207.626 281.34 207.712C276.477 207.83 272.023 214.71 269.545 217.991C265.508 223.336 261.738 229.109 260.237 235.731C259.695 238.122 259.441 242.424 262.463 238.881C268.49 231.815 270.805 220.511 270.374 211.525C270.248 208.88 270.171 203.942 267.058 202.761C264.062 201.625 261.853 205.3 260.616 207.356C258.393 211.051 257.321 214.885 257.466 219.199C257.491 219.946 257.615 225.848 259.953 224.457C262.227 223.103 263.742 219.277 264.761 217.02C266.504 213.158 267.847 209.046 268.693 204.893C269.016 203.307 270.118 198.753 269.166 200.061C267.67 202.119 266.767 205.814 265.969 208.114C264.034 213.69 262.308 219.442 261.161 225.238C260.911 226.5 260.732 228.393 261.919 226.636C262.916 225.16 262.169 228.414 262.156 228.531C261.604 233.425 261.126 238.336 260.45 243.215C259.252 251.869 257.479 260.65 257.324 269.411C257.321 269.6 257.114 272.395 257.513 272.442C258.11 272.513 258.401 270.785 258.413 270.453C258.453 269.412 257.725 266.319 257.087 268.984C256.925 269.661 256.71 276.77 257.229 276.706C257.897 276.622 256.775 269.914 256.755 269.505C256.635 267.043 260.907 270.911 261.398 271.448C262.776 272.956 263.821 272.78 265.59 273.461C267.271 274.107 259.596 280.514 261.895 280.614C263.193 280.67 264.422 279.419 265.329 278.671C267.507 276.878 269.668 275.081 271.89 273.342C272.997 272.476 278.594 266.915 274.022 269.908C271.905 271.294 267.695 274.029 264.927 273.603C264.688 273.566 266.266 269.166 266.016 268.416C265.641 267.29 263.492 268.237 262.653 268.108C260.847 267.83 260.727 265.595 261.161 264.295" stroke="#FF7777" stroke-width="20" stroke-linecap="round"/>
<path d="M243.681 227.631C244.805 227.422 247.838 226.199 248.371 227.962C249.16 230.572 248.747 233.807 248.371 236.441C248.235 237.392 247.579 240.449 248.134 237.673C248.615 235.271 249.15 232.941 249.413 230.496C250.054 224.541 247.895 231.564 247.518 233.504C247.379 234.223 245.806 239.004 247.518 237.862" stroke="#FF7777" stroke-width="20" stroke-linecap="round"/>
<path d="M138.378 241.699C138.741 238.166 138.805 237.554 137.881 241.747C136.33 248.786 135.041 256.072 134.613 263.276C134.472 265.651 134.542 267.605 134.542 264.058C134.542 258.356 134.492 252.683 135.063 247.005C135.106 246.569 135.201 238.591 134.139 240.397C132.994 242.342 133.169 245.925 133.12 247.952C133.005 252.794 133.176 257.662 133.476 262.495C133.563 263.909 133.572 268.055 134.02 266.711C134.471 265.359 133.704 261.97 133.547 260.884C132.272 252.078 129.519 243.464 129.947 234.475C129.958 234.236 130.898 228.413 131.131 228.957C131.975 230.926 131.909 233.374 132.552 235.447C132.825 236.327 132.262 233.62 132.244 232.699C132.186 229.792 132.579 227.522 130.87 224.93C127.62 220.002 120.043 216.918 114.93 214.414C109.17 211.594 103.206 209.65 97.6879 206.314C90.2018 201.79 83.4696 196.595 75.3767 193.098C68.6862 190.207 59.2662 188.561 53.4919 193.974C49.5856 197.636 44.1601 199.107 44.1601 205.461C44.1601 206.839 43.0275 204.754 42.0521 204.633C38.6589 204.208 43.4981 196.848 44.3969 195.609C46.2754 193.018 47.976 190.325 50.9813 188.929C53.6535 187.689 58.4988 187.893 61.2842 188.432C75.0558 191.098 89.2347 194.099 101.477 201.151C105.665 203.563 109.502 206.352 113.794 208.635C117.002 210.342 120.44 211.611 123.623 213.325C124.721 213.916 121.519 211.663 120.994 211.43C117.549 209.899 114.08 209.151 110.383 208.446C105.488 207.512 100.72 206.058 95.8404 205.083C92.3892 204.392 88.9781 204.698 85.4901 204.798C81.3642 204.917 77.2421 204.446 73.1266 204.846C67.6334 205.38 61.3458 205.342 56.4762 208.162C55.7396 208.588 54.0867 209.128 53.6577 209.914C53.0536 211.022 56.5003 210.554 56.6183 210.53C64.2654 209.001 71.329 208.507 77.9584 213.064C87.4534 219.592 97.6419 223.96 108.157 228.625C111.571 230.14 114.968 231.696 118.388 233.196C119.384 233.633 121.686 234.968 122.936 234.452C125.172 233.529 117.465 228.769 116.967 228.483C111.045 225.077 100.769 221.942 94.0641 224.457C88.7547 226.448 84.1955 232.591 81.1084 237.081C79.3975 239.569 78.04 242.267 76.3715 244.778C75.6572 245.854 74.9943 246.521 75.4241 244.802C76.5189 240.423 78.1337 236.174 79.261 231.799C79.7591 229.866 81.7544 222.706 77.3189 224.551C72.2139 226.676 67.4172 230.462 63.1316 233.883C60.3984 236.065 57.7544 238.366 55.1972 240.752C54.3394 241.552 53.3666 244.045 52.6155 243.144C51.7734 242.134 56.5839 236.074 57.092 235.352C58.6288 233.167 63.5226 226.873 61.5921 228.72C58.1561 232.007 54.8345 235.647 51.8339 239.331C50.2945 241.221 48.8949 243.229 47.2865 245.063C46.7953 245.622 45.4381 246.99 45.3917 246.247C45.2351 243.741 47.3309 240.147 47.9259 237.744C47.9768 237.538 49.2239 233.638 48.5654 233.125C47.5505 232.336 46.6765 234.908 45.9838 235.991C42.4761 241.476 39.3275 247.286 36.2967 253.044C35.7535 254.076 33.7319 256.013 34.8756 256.242C35.885 256.444 35.6219 254.323 35.9651 253.352C37.5266 248.937 39.3447 244.617 40.9863 240.231C42.9439 235.001 40.2714 239.474 39.1389 241.51C37.4326 244.577 35.701 248.044 34.9703 251.505C34.3268 254.553 35.8612 252.139 36.4862 250.889C38.0395 247.782 39.7567 244.428 40.56 241.036C40.6437 240.683 41.2316 238.001 40.2284 237.768C39.1949 237.527 38.0098 241.294 37.9309 241.486C35.5327 247.335 33.2977 253.318 31.465 259.368C29.9994 264.206 31.3418 262.875 32.4124 259.605C34.0633 254.562 35.6815 249.569 37.7178 244.66C38.7109 242.266 42.0024 235.246 40.6547 237.46C38.2288 241.445 36.8669 246.302 35.2782 250.652C34.3538 253.183 33.3505 255.676 32.365 258.184C31.7006 259.875 30.3044 265.045 30.3044 263.229C30.3044 260.868 31.7921 258.061 32.4597 255.816C33.7644 251.427 31.3606 257.29 31.0386 258.326C29.1028 264.553 28.1959 271.127 27.628 277.606C27.2995 281.353 27.1069 292.642 27.1069 288.88C27.1069 285.226 27.13 281.587 27.3201 277.937C27.4411 275.615 28.3765 270.619 27.0833 268.463C26.5989 267.656 26.4108 270.235 26.2543 271.163C25.6568 274.709 25.753 278.291 25.899 281.869C26.1385 287.736 26.1238 294.206 27.9359 299.869C28.8291 302.661 28.7733 299.397 28.7175 298.448C28.5434 295.489 28.1337 292.55 27.9596 289.59C27.8354 287.478 27.8341 293.829 28.007 295.938C28.4892 301.821 29.3455 307.661 30.5413 313.441C31.2535 316.883 34.9091 326.806 33.8335 323.459C32.989 320.832 29.3318 313.388 30.6123 315.833C33.0306 320.45 35.0532 325.851 38.1678 330.044C38.8149 330.915 40.3981 332.005 39.9678 329.949C39.0552 325.589 37.1466 321.317 36.0598 316.97C34.1193 309.208 33.7181 301.541 34.4966 293.569C35.3736 284.589 36.9953 275.476 41.3179 267.468C41.708 266.746 49.4829 254.293 49.9392 254.726C50.1227 254.9 50.0046 255.231 49.9865 255.484C49.8999 256.697 49.3201 260.049 49.2049 260.789C48.4594 265.578 47.7965 270.375 47.2391 275.19C46.6588 280.201 46.1349 285.27 46.3154 290.324C46.3762 292.027 46.6601 290.925 46.9075 290.016C47.8427 286.58 48.7089 283.15 49.8207 279.761C53.0531 269.907 57.7654 260.544 62.5395 251.363C64.3732 247.836 66.2869 244.429 68.6028 241.202C69.4433 240.031 71.3503 236.421 71.3503 237.862C71.3503 239.103 70.4589 240.178 69.9766 241.32C68.0074 245.985 66.2156 250.691 64.5764 255.484C60.5634 267.218 57.108 279.3 55.813 291.674C55.7339 292.43 55.1244 305.807 58.3473 301.954C60.3249 299.589 61.5704 296.336 62.9185 293.617C65.8676 287.667 68.8201 281.728 71.9187 275.853C78.5526 263.275 86.0976 251.094 92.193 238.241C93.8848 234.674 98.6903 224.797 93.8983 221.283C92.3331 220.135 89.3795 221.257 87.9297 221.733C84.1416 222.977 80.7011 224.814 77.2241 226.73C72.9802 229.07 68.3866 231.622 63.3922 231.704C61.5714 231.734 59.4921 231.139 58.2999 229.691C57.3257 228.508 56.7886 226.193 55.434 225.38C54.0098 224.526 49.5289 231.491 49.2997 228.625C49.0617 225.651 52.9967 217.704 50.8866 219.815C49.9584 220.743 49.6434 222.309 49.5602 223.557C49.3666 226.46 50.9809 225.501 52.5208 224.125C54.2051 222.62 61.8045 212.566 61.9711 219.672C62.0531 223.174 61.0724 226.996 60.4789 230.378C59.4485 236.249 58.2587 242.104 57.3762 248C56.5955 253.216 55.9658 258.513 56.3104 263.797C56.4726 266.285 56.8335 270.047 58.7499 272.016C62.2205 275.582 69.4294 270.896 72.2029 268.747C81.4775 261.561 89.3896 251.974 97.5221 243.547C97.7134 243.348 104.577 235.41 105.267 235.778C105.441 235.871 105.192 236.171 105.101 236.347C104.406 237.683 102.418 240.627 101.856 241.486C98.5534 246.536 95.4037 251.616 92.5719 256.952C87.7645 266.012 82.3443 275.726 80.2084 285.872C79.8977 287.348 79.4617 290.884 80.8716 290.348C82.8317 289.602 84.6326 286.364 85.6796 284.829C91.9172 275.691 97.7891 266.385 105.03 257.971C107.729 254.835 110.624 251.663 114.078 249.326C114.337 249.151 117.802 246.712 117.465 248.971C117.224 250.585 115.405 254.441 115.001 255.342C112.427 261.091 109.615 266.724 106.878 272.395C102.581 281.294 97.0782 291.113 95.5562 301.006C94.5902 307.285 99.7996 297.902 100.08 297.406C105.679 287.504 111.143 277.466 115.451 266.924C116.856 263.487 117.651 261.358 118.767 257.9C119.262 256.366 120.842 252.731 120.236 250.889C119.864 249.758 117.829 251.669 117.109 252.618C114.486 256.078 112.276 260.127 110.383 264.01C107.142 270.66 104.626 277.61 102.993 284.829C102.572 286.69 100.394 294.507 102.235 296.838C103.743 298.746 114.203 281.434 114.93 280.164C116.761 276.969 118.507 273.757 120.473 270.642C121.243 269.421 123.463 265.157 125.423 264.745C127.411 264.326 127.07 283.137 127.104 284.379C127.244 289.401 127.287 294.488 127.815 299.49C127.938 300.652 127.937 303.386 128.952 302.806C129.668 302.397 129.494 299.432 129.52 299.017C129.8 294.668 130.23 290.341 130.752 286.014C131.57 279.232 132.772 272.538 133.926 265.811C134.079 264.917 134.609 262.304 134.707 263.205C135.028 266.16 134.682 269.301 134.636 272.253C134.542 278.398 134.487 296.772 135.299 290.68C135.691 287.742 135.238 284.416 135.252 281.49C135.275 276.726 135.528 272.003 136.152 267.279C137.472 257.284 140.957 247.582 142.879 237.72C143.121 236.476 142.692 235.783 142.476 234.618C142.22 233.235 142.895 232.005 143.044 230.662C143.224 229.044 143.104 227.642 144.347 226.399C144.395 226.35 143.944 232.266 143.921 233.552C143.901 234.657 143.291 248.331 144.442 248.331C144.86 248.331 144.774 246.641 144.797 246.413C144.978 244.602 146.153 242.529 147.071 241.012C148.823 238.117 147.796 243.781 147.639 244.423C146.027 251.033 142.86 257.196 140.771 263.655C140.282 265.165 140.932 264.699 141.079 265.953C141.537 269.879 140.053 274.432 139.847 278.364C139.424 286.443 140.51 294.281 140.51 302.285C140.51 303.339 140.787 306.205 139.231 306.501C136.448 307.031 134.286 310.689 131.841 312.185C125.919 315.812 119.038 318.942 112.562 321.423C103.017 325.078 93.922 329.224 83.7611 331.039C75.3926 332.533 62.6714 337.77 55.7183 330.044C49.8602 323.535 46.2694 315.744 45.9601 306.927C45.8354 303.372 46.057 299.68 46.6943 296.175C47.0607 294.16 47.1849 300.243 47.3338 302.285C47.9915 311.305 47.8541 321.579 52.2129 329.807C54.169 333.499 56.5866 335.325 60.55 336.344C62.5264 336.852 65.667 338.049 67.7502 337.528C70.4722 336.848 62.2169 336.476 59.4131 336.368C57.3268 336.287 55.0518 336.123 52.9708 336.368C51.62 336.527 54.9156 337.377 54.984 337.386C60.2289 338.092 66.0139 337.009 71.0187 335.397C73.275 334.67 74.2308 333.367 75.3293 331.323C77.0766 328.071 79.1325 324.911 80.1374 321.328C81.0582 318.045 81.6994 313.875 79.7347 310.812C77.5259 307.368 73.545 307.804 70.9713 310.528C68.1039 313.562 68.08 319.413 70.1187 322.891C73.0075 327.819 76.8165 322.292 77.982 319.244C79.693 314.769 80.2415 308.214 77.5557 303.967C74.6359 299.349 67.7908 307.692 66.2107 309.864C63.6943 313.324 62.6695 319.557 67.3949 321.991C73.0928 324.926 80.5404 319.143 84.3296 315.596C89.4574 310.797 93.0221 305.055 96.172 298.827C96.954 297.281 98.135 295.275 98.351 293.474C98.501 292.225 97.239 295.74 96.8352 296.932C94.6434 303.402 91.0928 313.096 94.7983 319.67C98.5537 326.333 107.539 318.467 110.857 315.501C115.339 311.494 119.966 307.239 123.599 302.427C124.438 301.317 126.74 298.54 125.352 298.638C123.811 298.746 121.536 301.147 120.567 302.001C116.441 305.639 112.558 309.618 108.772 313.607C106.579 315.917 105.052 318.184 107.02 313.701C108.81 309.624 111.019 305.811 113.959 302.451C114.563 301.761 115.678 300.258 116.588 299.822C117.631 299.323 115.507 301.866 114.907 302.854C107.894 314.384 101.28 327.788 90.2508 336.06C88.3723 337.469 86.572 338.194 84.3296 338.807C84.078 338.876 80.6273 339.852 81.0137 339.234C82.1545 337.408 85.967 337.066 87.7402 336.344C90.6619 335.154 93.3335 333.472 96.2668 332.27C98.4986 331.356 95.3892 332.407 94.9641 332.531C90.9504 333.698 86.8346 334.607 82.648 333.881C73.6269 332.316 66.7161 323.639 61.0237 317.112C58.3689 314.068 56.1109 310.768 53.9656 307.354C52.2352 304.6 50.7438 301.148 48.4233 298.827C47.6198 298.024 46.9288 298.469 46.7654 299.49C46.4981 301.161 47.343 302.921 48.2338 304.275C49.7152 306.526 50.8246 304.222 51.0287 302.475C51.4113 299.198 50.1597 294.824 47.9496 292.338C44.1107 288.019 42.1836 293.515 41.981 297.075C41.5785 304.149 44.4556 310.979 50.3655 314.98C63.5363 323.897 80.6209 326.126 96.1246 324.786C102.012 324.277 107.504 322.395 113.178 320.878C115.734 320.195 118.483 319.836 120.662 318.225C121.219 317.813 124 314.32 122.51 316.638C121.709 317.883 120.128 318.231 118.957 319.007C117.58 319.919 116.344 321.001 114.93 321.849" stroke="#FF7777" stroke-width="20" stroke-linecap="round"/>
<path d="M337.352 214.77C337.285 214.506 336.078 211.655 337.594 212.509C341.446 214.68 344.942 218.319 348.151 221.29C349.668 222.695 352.19 225.123 353.742 226.659C354.242 227.153 355.733 228.539 355.074 228.294C351.843 227.094 348.632 224.073 346.274 221.673C344.145 219.506 342.355 217.017 340.46 214.649C339.237 213.12 341.338 214.818 341.51 214.951C343.331 216.368 345.15 218.042 346.375 220.018C347.69 222.139 344.991 220.119 344.659 219.857C341.414 217.29 337.314 214.233 334.93 210.814C333.722 209.081 338.625 212.111 338.24 212.832C338.157 212.987 333.101 209.692 332.669 209.199C331.863 208.278 334.817 210.372 335.858 211.015C338.507 212.652 341.137 214.384 343.529 216.385C348.557 220.592 352.303 226.316 356.77 231.1C358.802 233.276 360.909 235.418 362.826 237.7C363.623 238.649 362.496 237.359 362.422 237.236C360.307 233.711 365.385 239.174 365.975 239.8C367.801 241.738 369.587 243.741 371.283 245.795C371.644 246.231 372.325 247.353 371.263 246.461C370.17 245.542 368.124 243.535 369.769 246.259C370.73 247.849 371.603 249.482 372.434 251.144C372.733 251.741 373.731 253.189 373.08 253.041C372.574 252.926 371.667 251.789 372.393 253.283C372.863 254.249 373.553 255.617 374.412 256.19" stroke="#FF7777" stroke-width="10" stroke-linecap="round"/>
<path d="M416.559 250.377C419.953 256.953 424.114 262.729 428.71 268.523C434.046 275.25 439.483 281.541 446.271 286.831C451.05 290.555 456.12 294.12 461.229 297.368C463.15 298.589 469.242 300.809 469.242 303.423" stroke="#FF7777" stroke-width="10" stroke-linecap="round"/>
<path d="M145.352 207.879C146.367 205.358 147.233 203.367 149.102 201.358C149.611 200.811 155.616 195.279 152.56 197.838C150.484 199.576 148.628 201.398 147.019 203.587C144.501 207.013 146.641 204.364 147.852 202.671C149.955 199.73 152.113 196.738 153.789 193.525C154.997 191.21 150.121 195.348 149.852 195.608C147.889 197.514 145.81 199.832 144.561 202.296C143.808 203.779 147.639 199.328 147.811 199.087C149.481 196.746 150.914 194.252 152.56 191.9C153.756 190.193 149.587 194.846 148.352 196.525C146.6 198.907 145.03 201.416 143.936 204.17C143.154 206.138 144.487 203.51 144.769 203.087C145.761 201.599 146.9 200.178 147.956 198.733C148.353 198.192 150.283 195.888 148.79 197.879C146.778 200.562 142.002 205 142.728 208.629" stroke="#FF7777" stroke-width="10" stroke-linecap="round"/>
<path d="M150.602 313.997C151.331 315.83 153.102 318.64 153.102 320.663C153.102 322.118 151.748 318.088 151.019 316.83C150.846 316.532 148.291 312.798 148.498 314.143C148.923 316.906 150.263 319.824 151.685 322.205C151.966 322.674 154.373 326.382 153.852 325.601C152.566 323.672 151.424 321.651 150.102 319.747C148.592 317.571 150.553 320.835 150.769 321.184C152.563 324.08 154.383 326.946 156.06 329.913C157.584 332.61 152.017 325.213 149.852 322.997C147.19 320.271 151.526 325.055 152.144 325.746C154.921 328.857 147.657 318.71 145.602 315.08C145.378 314.684 143.167 310.904 144.852 313.33C146.119 315.154 147.357 316.995 148.477 318.913C149.147 320.061 149.593 320.986 148.269 319.497C146.685 317.715 145.476 315.684 144.102 313.747C143.439 312.811 142.752 312.357 143.894 313.685C146.255 316.428 148.473 319.236 150.602 322.163C151.892 323.937 153.238 325.632 154.789 327.184C155.165 327.559 154.085 326.476 153.977 326.371C152.868 325.297 154.201 326.934 154.435 327.184C155.994 328.84 157.406 330.464 158.602 332.413C160.442 335.41 159.598 334.143 157.893 332.246C157.643 331.967 156.427 330.665 155.935 330.788C155.704 330.846 157.238 333.547 157.352 333.704C158.939 335.895 158.81 335.163 157.643 333.329C156.38 331.343 155.894 331.219 157.727 332.746" stroke="#FF7777" stroke-width="10" stroke-linecap="round"/>
<path d="M155.852 320.372C156.376 322.258 157.029 324.049 157.643 325.892C157.667 325.965 155.37 322.849 154.893 321.997C153.358 319.252 152.654 316.132 151.352 313.455C149.446 309.538 147.304 304.871 147.977 300.498" stroke="#FF7777" stroke-width="10" stroke-linecap="round"/>
<path d="M297.593 159.132C304.323 161.101 311.541 162.407 317.758 165.798C319.023 166.488 314.538 164.876 314.259 164.756C312.49 163.995 310.741 163.217 308.926 162.569C308.374 162.372 307.815 162.192 307.259 162.006C306.755 161.838 305.543 161.95 305.759 161.465C306.489 159.823 324.938 166.096 327.425 167.339C334.669 170.962 312 162.339 304.509 159.257C300.98 157.804 303.461 158.807 305.093 159.59C309.731 161.816 314.491 163.83 319.071 166.173C319.155 166.216 323.284 168.834 321.758 168.173C316.242 165.78 310.883 163.035 305.343 160.673C302.343 159.394 299.514 157.992 296.656 156.444C294.84 155.461 300.333 158.335 302.239 159.132C306.429 160.884 310.888 161.837 315.092 163.548C317.273 164.436 322.682 168.775 321.342 166.839C320.47 165.58 316.629 164.809 315.363 164.298C310.593 162.373 305.592 161.345 300.801 159.548C300.779 159.54 297.615 158.355 299.468 158.632C304.201 159.339 308.729 161.427 313.175 163.09C314.589 163.618 315.897 164.092 317.342 164.506C318.084 164.719 320.048 165.491 319.633 164.84C319.155 164.088 316.868 163.224 316.259 162.923C313.496 161.561 310.674 160.323 307.801 159.215C303.719 157.64 299.783 156.729 295.426 156.423C293.253 156.271 292.618 156.408 295.093 156.965C302.928 158.728 310.752 160.56 317.8 164.548C319.917 165.746 322.074 166.837 323.675 168.714C324.186 169.314 324.801 170.214 325.716 170.214C327.301 170.214 328.597 169.8 330.174 170.589C331.637 171.32 331.9 172.814 332.841 173.756" stroke="#FF7777" stroke-width="10" stroke-linecap="round"/>
<path d="M359.839 190.63C363.573 193.152 367.226 196.709 369.089 200.921C370.611 204.363 363.917 195.201 362.61 191.671C361.814 189.523 363.121 191.793 363.339 192.15C364.881 194.677 366.432 197.198 368.026 199.692C368.093 199.796 371.037 203.785 370.547 204.129C369.797 204.654 367.153 201.174 366.839 200.754C366.3 200.033 363.042 195.573 363.381 194.671C363.703 193.811 367.461 199.113 365.631 196.025C364.454 194.039 362.925 192.288 361.422 190.546C360.849 189.881 359.904 188.372 359.048 188.005C357.914 187.519 360.164 190.204 360.735 191.296C363.075 195.773 365.563 200.132 368.089 204.504" stroke="#FF7777" stroke-width="10" stroke-linecap="round"/>
<path d="M370.714 327.871C368.114 330.195 366.216 332.529 364.589 335.621C363.29 338.089 367.403 330.644 369.589 328.913C369.615 328.892 372.073 327.033 372.13 327.205C372.393 327.993 369.728 330.81 369.339 331.329C368.938 331.864 367.646 333.375 367.964 332.788C369.065 330.749 370.953 329.131 372.568 327.517C373.713 326.371 374.859 325.226 376.005 324.08C376.024 324.06 374.91 325.543 374.755 325.767C373.48 327.609 372.274 329.499 371.109 331.413C370.39 332.594 368.712 336.25 368.818 334.871C369.069 331.604 372.677 327.782 374.859 325.601C377.311 323.149 370.431 330.94 368.089 333.496" stroke="#FF7777" stroke-width="10" stroke-linecap="round"/>
<path d="M329.466 210.503C332.677 211.733 335.445 213.069 338.049 215.336C340.773 217.709 342.849 220.665 345.507 223.086C347.555 224.952 349.919 226.26 351.84 228.294C354.327 230.928 356.732 233.626 359.089 236.377C364.05 242.164 367.795 248.872 371.297 255.626C373.863 260.574 374.15 266.657 375.588 272" stroke="#FF7777" stroke-width="10" stroke-linecap="round"/>
<path d="M154 188C173.083 170.005 192.65 162.282 217.795 155.658C233.279 151.579 245.849 151 262.494 151C270.387 151.722 281.378 152.767 289 154.691" stroke="#061C00" stroke-width="12" stroke-linecap="round"/>
<path d="M331 166C340.008 171.753 348.834 177.098 357 184" stroke="#061C00" stroke-width="12" stroke-linecap="round"/>
<path d="M161 337C170.256 347.7 190.834 361.629 204.234 365.153C226.572 371.028 249.383 375.068 272.475 375.943C291.74 376.673 315.681 370.26 333.205 361.626C344.626 356 352.998 348.3 363 340.591" stroke="#061C00" stroke-width="12" stroke-linecap="round"/>
<path d="M155.914 252C150.057 260.078 149.114 271.549 149.005 281.348C148.876 292.864 151.269 308.076 157 318" stroke="#061C00" stroke-width="12" stroke-linecap="round"/>
<path d="M376.866 282C379.885 292.73 380.334 307.806 374 318" stroke="#061C00" stroke-width="12" stroke-linecap="round"/>
<path d="M314 211C312.608 225.618 307.859 239.205 299.561 251.376C291.664 262.959 280.894 272.483 270.296 281.452C265.719 285.326 260.969 288.691 256 292" stroke="#061C00" stroke-width="12" stroke-linecap="round"/>
<path d="M233.685 213C229.384 244.783 232.237 268.046 255 292" stroke="#061C00" stroke-width="12" stroke-linecap="round"/>
<path d="M316.593 307.115C313.343 308.479 306.602 313.134 309.873 317.453C314.276 323.264 319.743 326.427 327.189 326.498C332.513 326.549 337.94 325.659 342.179 322.191C344.551 320.251 344 316.211 341.404 314.481" stroke="#FFC077" stroke-width="6" stroke-linecap="round"/>
<path d="M318.531 310.604C317.634 311.319 316.016 312.247 315.667 313.468C315.283 314.813 317.001 315.267 317.95 315.105C318.824 314.956 322.13 312.772 319.996 311.939C316.476 310.566 317.579 320.206 321.159 315.859C322.519 314.208 320.995 312.182 318.984 312.478C317.342 312.719 316.141 316.616 316.765 317.97C317.253 319.027 319.514 317.962 318.596 316.936C318.373 316.687 314.725 313.6 314.396 314.588C314.181 315.233 315.952 316.419 315.258 316.419C313.72 316.419 312.954 316.407 315.171 317.388C318.566 318.89 322.092 318.745 325.725 318.745C325.947 318.745 330.118 318.972 330.118 318.551C330.118 317.698 322.371 319.66 324.174 320.08C326.879 320.711 330.171 320.389 332.832 319.693C334.386 319.286 334.419 319.071 332.66 319.219C329.81 319.459 326.531 319.044 323.765 319.736C322.14 320.142 327.999 320.62 328.438 320.597C331.274 320.447 333.875 319.6 336.623 318.982C337.114 318.871 339.031 318.079 337.527 318.443C336.377 318.722 335.404 319.447 334.189 319.714C331.574 320.288 329.076 320.142 326.5 319.434C323.738 318.675 323.285 319.15 326.306 319.499C328.965 319.806 331.507 320.351 334.124 320.813C336.362 321.207 329.712 319.632 327.448 319.434C325.247 319.242 322.75 318.953 320.922 317.582C320.068 316.941 319.059 315.371 320.34 314.567C322.023 313.511 325.031 314.303 326.78 314.696C327.515 314.861 333.215 317.02 331.152 315.557C328.765 313.866 326.071 313.335 323.463 312.176C322.688 311.831 321.649 311.541 323.054 312.327C325.231 313.545 327.644 313.953 329.946 314.868C330.584 315.122 333.347 316.291 333.198 316.204C331.633 315.291 329.734 314.749 328.051 314.093C325.551 313.119 323.077 311.993 320.577 311.056C320.327 310.962 322.905 312.033 323.485 312.241C325.608 313.001 327.734 314.107 329.558 315.428C330.454 316.077 332.519 316.276 330.764 316.505C329.955 316.611 321.298 317.575 321.87 319.176C322.536 321.042 327.331 320.051 323.873 320.317C323.527 320.344 320.157 320.94 320.427 321.243C321.087 321.986 322.432 322.523 323.399 322.6C325.587 322.775 325.694 321.624 323.937 320.856C322.015 320.015 324.247 319.918 325.208 319.908C328.412 319.875 332.096 320.446 335.201 319.52C338.447 318.552 333.632 317.444 332.617 317.28C331.389 317.082 330.311 317.046 329.214 316.419C328.431 315.972 331.518 315.716 331.669 315.73C333.702 315.917 335.784 316.69 337.829 316.225C338.953 315.969 338.188 315.863 337.441 315.73C334.047 315.126 330.942 315.782 327.685 314.093C326.349 313.4 323.056 311.437 325.919 313.727C327.361 314.881 327 314.544 325.552 314.007C323.985 313.425 322.127 313.214 320.685 312.348C318.993 311.333 321.347 310.657 319.328 309.269C317.579 308.066 320.241 310.657 321.245 310.992" stroke="#FFC077" stroke-width="6" stroke-linecap="round"/>
<path d="M182.896 315.542C180.497 319.883 177.944 325.451 182.594 329.326C185.552 331.791 190.217 331.94 193.88 332.126C197.747 332.323 201.943 332.168 205.768 331.566C210.997 330.743 218.457 326.624 217.915 320.367C217.565 316.326 211.214 313.567 207.707 313.216" stroke="#FFC077" stroke-width="6" stroke-linecap="round"/>
<path d="M184.446 321.745C185.603 321.485 187.063 321.329 188.086 320.647C188.446 320.406 187.691 321.255 187.505 321.659C187.31 322.08 185.05 326.841 186.859 326.225C188.567 325.642 190.631 323.575 190.929 321.788C191.444 318.699 188.875 321.045 188.366 322.499C187.878 323.894 188.115 325.747 190.089 324.76C192.272 323.669 191.622 320.7 190.412 319.161C186.629 314.345 185.853 326.722 190.563 323.21C192.683 321.628 190.955 319.187 188.625 319.893C187.67 320.182 186.521 321.656 187.72 322.434C189.433 323.546 192.182 321.055 192.437 319.441C192.688 317.847 189.944 315.033 188.948 317.179C186.685 322.051 192.576 320.38 191.855 318.321C191.579 317.532 189.382 317.342 189.744 318.428C190.763 321.484 196.816 321.38 199.178 321.271C199.811 321.242 205.682 320.978 205.682 319.634C205.682 318.9 200.254 321.514 199.953 321.659C197.869 322.667 195.848 323.018 193.686 323.683C191.974 324.21 197.15 324.803 198.941 324.803C201.318 324.803 203.643 324.071 206.027 324.071C208.421 324.071 201.294 324.813 198.941 325.256C198.476 325.343 190.606 326.81 190.606 326.311C190.606 325.788 196.832 326.006 197.196 326.009C199.394 326.029 201.257 326.163 203.421 325.622C204.493 325.354 205.515 324.846 206.63 324.846C208.511 324.846 205.8 324.846 205.359 324.846C202.309 324.846 199.497 325.529 196.529 326.182C194.86 326.549 193.164 326.548 191.511 326.871C189.872 327.19 192.983 327.476 193.363 327.56C195.716 328.083 197.804 327.752 200.147 327.388C201.554 327.169 204.892 326.67 201.375 327.022C199.879 327.171 195.768 326.88 194.569 327.862C193.379 328.835 197.662 328.006 199.178 327.754C201.464 327.373 203.932 327.432 206.156 326.785C207.738 326.324 207.791 326.548 206.199 327.086C203.54 327.985 199.929 327.923 197.175 327.711C195.5 327.582 190.744 326.35 192.157 327.259C194.086 328.499 197.638 327.921 199.716 327.732C202.871 327.446 205.491 326.534 208.46 325.643C210.587 325.005 207.208 326.287 206.802 326.397C203.086 327.402 199.196 327.172 195.387 327.172C193.197 327.172 191.06 327.517 188.883 327.56C187.103 327.595 192.131 327.652 192.76 327.56C198.355 326.739 204.18 326.131 209.473 323.985C209.998 323.772 212.463 321.201 212.552 321.271C212.66 321.355 213.898 323.91 214.254 322.843C215.751 318.352 209.598 319.709 207.814 321.314C206.756 322.267 208.176 322.418 208.87 321.745C209.571 321.064 210.029 319.849 209.257 319.031C208.546 318.278 207.846 319.192 207.771 319.979C207.608 321.687 209.936 320.257 210.248 319.419C211.794 315.27 201.433 318.464 199.996 318.601C199.032 318.692 196.157 318.429 197.11 318.256C198.825 317.944 200.554 317.571 202.279 317.308C205.493 316.819 203.488 317.152 201.461 317.007C199.563 316.871 197.392 317.033 195.603 316.318C193.691 315.553 196.776 316.4 197.239 316.49C198.54 316.743 200.547 317.045 201.827 316.511C204.7 315.314 195.687 317.586 192.587 317.868" stroke="#FFC077" stroke-width="6" stroke-linecap="round"/>
<path d="M190.579 279C188.291 286.61 183.69 294.327 184.047 302.453C184.253 307.128 186.463 312.02 190.438 314.685C194.33 317.294 200.58 318.146 204.339 314.861C206.516 312.959 207.755 309.878 208.006 307.04C208.199 304.868 207.051 302.643 205.955 300.853C203.973 297.616 201.363 294.751 198.81 291.961C197.31 290.323 195.737 287.376 194.528 285.5C193.552 283.987 192.697 281.633 192.028 280" stroke="#061C00" stroke-width="12" stroke-linecap="round"/>
<path d="M192.785 296.066C192.785 299.038 192.147 307.924 192.074 304.953C192.019 302.691 192.084 300.423 192.074 298.16C192.07 297.001 192.041 294.488 191.482 297.247C191.069 299.29 190.876 301.455 191.167 303.53C191.516 306.024 192.023 302.496 192.061 302.214C192.274 300.637 192.256 295.898 192.548 297.462C193.26 301.276 192.902 305.186 194.021 308.98C194.473 310.511 195.597 312.989 197.546 311.584C198.817 310.669 199.45 308.673 199.44 307.154C199.434 306.121 198.85 304.638 197.678 304.469C196.209 304.258 196.209 307.117 196.441 307.946C196.764 309.097 197.867 309.752 198.98 309.195C200.234 308.566 200.158 307.022 199.796 305.866C199.534 305.033 198.56 303.054 197.375 303.906C196.068 304.845 196.827 306.918 197.046 308.148" stroke="#061C00" stroke-width="12" stroke-linecap="round"/>
<path d="M333.502 278C330.689 286.446 321.914 291.393 320.436 300.453C319.195 308.063 325.672 317.5 333.77 312.692C339.504 309.287 341.235 303.547 339.809 297.288C339.019 293.82 338.009 290.377 337.383 286.874C336.749 283.324 334.783 281.732 334.783 279.211" stroke="#061C00" stroke-width="12" stroke-linecap="round"/>
<path d="M334.012 290C332.803 291.651 331.998 292.986 331.489 295.01C331.324 295.669 330.632 298.783 330.505 299.454C330.415 299.928 330.32 300.405 330.29 300.887C330.246 301.581 330.42 301.524 330.782 301.061C332.178 299.273 332.912 296.686 333.335 294.475C333.62 292.989 332.68 297.762 332.659 297.941C332.51 299.159 332.103 302.48 332.951 301.612C334.483 300.042 334.369 296.214 334.166 294.223C333.835 290.978 332.187 295.451 332.028 296.239C331.594 298.386 331.372 304.827 331.489 307" stroke="#061C00" stroke-width="12" stroke-linecap="round"/>
<path d="M259.588 327.212C259.553 327.292 258.76 328.746 259.073 328.964C259.359 329.165 259.959 328.464 260.103 328.27C260.845 327.264 259.656 327.161 259.231 327.847C258.811 328.527 260.471 329.008 260.855 328.388C261.271 327.715 260.698 327.236 260.301 327" stroke="#061C00" stroke-width="6" stroke-linecap="round"/>
<path d="M254 345C256.09 345 258.092 344.802 260.177 344.597C265.471 344.076 270.694 344 276 344" stroke="#061C00" stroke-width="6" stroke-linecap="round"/>
<path d="M470.842 235C466.569 240.6 462.154 244.218 455.89 243.99C451.466 243.828 448.496 239.886 445.579 236.161" stroke="#061C00" stroke-width="12" stroke-linecap="round"/>
<path d="M374 213.584C381.05 206.225 388.515 200.853 397.216 196.402C415.435 187.082 437.405 180.267 457.16 186.256C469.887 190.114 482.645 204.479 478.828 221.362C477.5 227.238 474.467 232.297 470.792 236.423C469.073 238.353 464.835 240.632 466.119 244.166C467.188 247.104 469.952 249.052 471.953 250.953C478.239 256.927 484.09 263.443 488.918 271.141C501.274 290.838 505.883 316.544 498.354 339.798C495.532 348.511 490.641 356.762 484.126 362.142C474.994 369.684 462.34 370.191 451.803 367.551C426.199 361.136 403.991 344.177 383.643 325.586" stroke="#061C00" stroke-width="12" stroke-linecap="round"/>
<path d="M42.24 178.979C46.5054 176.337 49.8738 175.813 54.7778 176.052C67.3263 176.663 79.8253 179.898 91.7357 184.443C101.915 188.327 111.506 194.013 120.814 200.12C127.312 204.383 133.514 208.159 138 215.106" stroke="#061C00" stroke-width="12" stroke-linecap="round"/>
<path d="M40.3403 180.888C32.4782 187.277 23.7688 208.166 35.9999 216.445C36.5742 216.834 40.7023 217.983 40.3403 218.611C39.5479 219.986 37.8557 221.101 36.8026 222.118C32.5276 226.243 28.8583 230.792 25.8029 236.212C7.70996 268.311 4.19162 317.027 34.9891 340.821C49.7926 352.258 66.2902 352.855 83.2392 348.487C102.755 343.458 120.787 333.93 138 322.429" stroke="#061C00" stroke-width="12" stroke-linecap="round"/>
<path d="M39.72 218.039C47.448 220.163 51.8495 221.088 59.04 218.039" stroke="#061C00" stroke-width="12" stroke-linecap="round"/>
</svg>
