<svg width="512" height="512" viewBox="0 0 512 512" fill="none" xmlns="http://www.w3.org/2000/svg">
<g clip-path="url(#clip0_2_13)">
<rect width="512" height="512" fill="#FF7777"/>
<path d="M326.801 175.12C314.301 175.198 302.148 176.418 289.701 177.896C273.813 179.782 250.442 182.789 234.796 185.004C222.859 186.695 207.382 187.745 195.53 191.808C188.936 194.069 209.409 190.429 216.314 189.473C235.776 186.776 255.304 185.234 274.943 184.666C293.43 184.131 312.003 184.065 330.457 185.478C330.509 185.482 349.334 187.894 340.205 187.475C324.605 186.76 309.139 185.386 293.492 185.275C265.616 185.078 237.755 186.314 209.917 187.611C77.0769 193.798 313.423 182.817 186.594 188.762C180.58 189.044 171.545 190.593 165.404 188.999C164.153 188.674 167.668 187.678 168.924 187.374C177.032 185.411 185.347 184.112 193.601 182.973C245.933 175.755 298.446 174.299 351.207 174.782C357.285 174.837 361.616 174.902 367.455 174.782C368.868 174.753 372.909 174.546 371.618 173.969C362.224 169.769 350.178 168.959 340.138 168.35C294.038 165.552 248.097 172.618 202.876 180.672C199.908 181.2 196.919 181.622 193.973 182.262C193.453 182.376 195.032 182.412 195.564 182.398C212.723 181.952 229.883 180.954 247.05 180.875C276.05 180.74 305.002 186.098 333.537 190.725C352.324 193.772 370.599 197.82 388.611 204.028C390.947 204.833 396.752 206.902 399.375 208.361C401.376 209.473 402.064 210.825 399.341 211.204C387.163 212.9 373.748 209.883 361.599 209.038C298.431 204.645 235.264 209.814 172.986 220.276C165.956 221.457 153.269 223.703 145.771 225.151C140.874 226.096 133.785 226.69 129.252 229.28C126.996 230.57 129.796 230.878 130.809 231.04C137.492 232.115 144.585 231.785 151.322 231.785C204.04 231.785 256.753 228.879 309.47 228.265C333.821 227.981 358.209 228.433 382.552 229.043C390.643 229.246 399.334 230.691 407.432 230.296C414.589 229.947 393.245 228.211 386.106 227.588C365.996 225.831 345.688 225.241 325.514 225.015C276.625 224.467 227.31 229.314 178.876 235.644C163.281 237.682 147.341 240.893 131.554 241.128C130.18 241.148 126.477 240.958 127.559 240.112C131.721 236.859 140.587 235.927 145.364 234.832C189.947 224.611 236.276 221.555 281.916 222.443C297.176 222.739 313.388 222.974 328.155 227.317C331.04 228.166 342.699 232.385 334.654 235.509C320.241 241.106 302.986 241.903 287.806 243.565C266.69 245.877 245.491 247.667 224.337 249.59C194.3 252.321 164.199 254.443 134.194 257.511C128.83 258.06 120.607 258.993 115.17 259.813C113.063 260.131 110.961 260.495 108.874 260.93C107.565 261.203 103.987 261.762 105.151 262.419C106.833 263.37 109.008 262.78 110.939 262.724C118.978 262.493 127.023 261.509 135.006 260.625C164.547 257.356 193.946 252.844 223.524 249.929C291.083 243.27 358.361 245.792 426.049 247.864C430.191 247.991 435.907 248.169 440.266 248.169C441.395 248.169 442.526 248.192 443.651 248.101C445.722 247.934 443.34 247.427 442.974 247.356C429.293 244.728 414.794 244.566 400.932 244.411C336.268 243.691 271.683 248.315 207.716 257.714C190.344 260.267 171.355 261.62 154.572 267.26C146.932 269.828 148.049 272.83 154.741 276.569C168.083 284.022 184.546 283.972 199.389 284.253C227.6 284.786 255.761 282.52 283.879 280.597C308.384 278.921 332.851 278.38 357.401 277.957C365.701 277.814 390.568 277.381 382.281 276.907C366.885 276.028 351.142 276.831 335.737 277.009C308.325 277.326 280.931 278.393 253.549 279.683C214.97 281.501 176.425 286.081 137.816 286.081C135.422 286.081 129.204 285.864 128.169 289.059C127.357 291.564 133.087 295.3 134.363 296.98C135.11 297.963 140.354 309.383 138.865 309.979C136.064 311.099 127.369 297.709 125.731 295.762C119.034 287.797 119.215 299.337 119.638 304.224C120.473 313.872 123.022 323.622 127.559 332.252C127.639 332.403 129.807 335.648 129.15 334.757C127.329 332.285 125.586 329.952 124.377 327.107C122.412 322.479 125.21 324.597 126.95 327.445C131.777 335.344 135.979 343.318 143.13 349.448C149.767 355.136 158.004 358.296 165.201 363.123C169.001 365.673 168.545 367.86 163.643 366.305C156.666 364.093 152.086 360.147 146.786 355.338C143.76 352.592 140.266 350.375 137.376 347.485C135.081 345.189 133.155 342.561 130.877 340.241C126.222 335.5 130.343 342.788 131.351 345.115C133.54 350.174 135.853 355.12 138.256 360.077C139.823 363.309 134.663 353.856 132.772 350.802C131.833 349.284 127.828 341.382 132.095 341.459C139.833 341.6 148.185 348.801 154.369 352.698C166.668 360.449 180.857 366.398 194.447 371.484C210.963 377.666 228.892 380.486 245.865 385.295C252.156 387.077 258.613 387.689 264.923 389.256C265.879 389.493 270.456 391.369 267.157 392.268C263.4 393.293 258.622 392.645 254.836 392.37C246.445 391.759 238.341 390.372 230.26 388.037C213.616 383.229 196.788 379.696 180.061 375.276C173.32 373.494 167 371.274 160.597 368.539C157.306 367.134 153.581 366.074 150.577 364.071C149.66 363.46 152.608 364.929 153.624 365.357C159.547 367.854 165.886 369.233 171.903 371.484C185.473 376.561 197.281 384.752 211.237 388.951C215.922 390.361 220.479 392.043 225.115 393.588C226.219 393.956 229.04 395.159 228.568 394.096C227.804 392.377 223.81 391.808 222.34 391.422C217.536 390.162 212.727 388.982 207.852 388.037C196.009 385.741 184.49 382.193 174.306 375.58C170.747 373.269 161.093 364.933 164.287 367.727C171.116 373.703 179.082 377.254 187.102 381.335C200.475 388.141 213.5 390.511 228.433 391.693C245.93 393.078 264.16 391.584 281.442 388.612C293.837 386.481 306.607 384.588 318.643 380.827C324.16 379.103 307.344 383.335 301.616 384.11C283.52 386.56 265.312 387.819 247.05 386.886C237.641 386.406 228.298 385.148 219.022 383.535C217.142 383.208 211.113 380.879 209.138 381.809C206.729 382.942 214.101 383.782 216.687 384.415C223.829 386.163 231.129 387.536 238.384 388.714C280.737 395.593 326.808 391.085 362.817 366.441C368.54 362.524 374.268 358.333 379.539 353.815C379.72 353.659 383.358 350.013 381.706 350.531C377.52 351.844 373.33 355.311 369.655 357.538C361.303 362.6 352.914 367.57 343.997 371.586C325.666 379.841 306.41 387.073 286.587 390.677C280.092 391.858 272.523 393.914 265.871 393.453C265.438 393.423 264.563 392.961 264.855 392.641C266.037 391.348 269.279 390.558 270.711 390.034C312.494 374.767 361.148 369.32 391.59 333.572C393.483 331.349 410.139 313.596 403.2 309.674C400.789 308.311 396.307 312.508 394.907 313.77C389.935 318.251 385.754 323.898 382.721 329.849C381.315 332.608 378.584 337.443 378.862 340.782C379.115 343.82 381.859 335.437 382.857 332.557C389.362 313.764 391.552 291.843 391.014 272.067C390.684 259.896 389 247.199 390.304 235.035C391.371 225.072 391.399 255.102 390.642 265.094C389.4 281.484 388.984 298.588 385.294 314.65C385.219 314.974 383.886 321.52 384.143 319.084C384.678 313.996 386.129 309.093 387.122 304.089C388.62 296.536 390.375 287.276 385.565 280.495C379.026 271.279 364.723 268.394 354.49 266.515C322.893 260.714 291.657 263.198 259.845 263.198C230.689 263.198 318.21 260.907 347.314 262.656C365.312 263.738 383.268 265.502 400.797 269.866C401.029 269.924 421.513 274.096 415.014 278.769C413.064 280.171 408.607 280.861 406.687 281.139C395.363 282.776 383.792 283.339 372.397 284.185C342.226 286.425 312.078 288.613 281.983 291.767C252.058 294.904 222.273 298.805 192.518 303.243C183.868 304.533 177.769 305.483 169.296 306.425C165.534 306.843 154.399 308.362 157.957 307.068C160.056 306.304 162.368 306.339 164.591 306.12C173.639 305.229 182.721 305.05 191.807 305.003C217.273 304.87 242.788 305.426 268.24 306.255C301.084 307.325 333.977 309.386 366.642 313.025C374.576 313.909 377.01 314.292 384.346 315.496C387.526 316.019 393.144 316.245 396.261 317.832C396.711 318.061 395.411 318.493 394.907 318.509C387.467 318.746 379.667 317.592 372.295 317.053C340.63 314.741 308.856 313.648 277.109 313.364C248.674 313.109 220.556 315.151 192.314 318.272C183.952 319.196 177.858 319.939 169.601 320.946C164.705 321.543 158.045 321.619 153.15 323.18C147.173 325.086 165.711 323.765 171.971 323.35C197.636 321.645 223.215 320.743 248.946 320.743C273.553 320.743 298.049 321.954 322.603 323.451C338.307 324.409 354.167 324.863 369.79 326.836C372.566 327.187 380.336 328.642 377.711 329.612C376.287 330.138 372.587 330.298 371.415 330.357C363.582 330.747 355.754 330.995 347.923 331.474C301.854 334.288 255.848 338.362 209.815 341.73C200.782 342.391 190.917 342.001 181.99 343.761C180.806 343.995 182.522 344.545 182.6 344.574C187.64 346.414 193.107 347.472 198.374 348.331C215.975 351.2 234.149 351.421 251.924 352.291C276.74 353.507 301.567 353.565 326.395 354.356C342.347 354.865 358.756 355.097 374.462 358.384C383.048 360.181 369.852 361.132 368.403 361.228C330.483 363.725 292.376 362.194 254.429 364.071C240.857 364.743 227.203 366.228 213.606 366.17C203.133 366.125 223.998 362.403 224.134 362.379C258.675 356.241 293.795 353.68 328.798 351.885C337.96 351.415 347.142 351.05 356.318 351.208C364.402 351.348 340.424 354.183 332.454 355.541C315.611 358.41 298.683 360.991 282.051 364.951C277.985 365.919 273.685 367.079 269.662 368.269C269.646 368.273 260.061 371.497 260.184 371.62C260.663 372.099 261.539 371.769 262.215 371.721C264.129 371.588 266.034 371.333 267.936 371.078C275.842 370.019 283.623 368.426 291.394 366.644C306.688 363.136 321.953 359.443 337.125 355.439C353.094 351.225 368.887 346.898 383.737 339.496C389.873 336.438 398.393 331.637 404.25 327.784C406.517 326.292 412.362 322.849 409.835 321.86C407.184 320.823 401.065 325.253 399.105 326.295C388.026 332.177 377.087 338.397 365.424 343.084C333.947 355.732 298.488 361.1 264.754 360.754C248.074 360.583 232.766 359.026 217.127 353.104C203.178 347.822 189.515 341.109 177.353 332.421C168.355 325.995 158.09 317.923 152.811 307.948C152.521 307.399 148.099 296.085 149.528 296.371C153.084 297.082 157.047 301.699 159.412 304.021C166.498 310.978 172.657 318.767 178.944 326.43C184.888 333.675 190.928 340.884 197.629 347.451C201.353 351.1 207.692 354.993 209.95 359.874C210.492 361.044 200.923 356.667 200.168 356.286C192.156 352.24 184.222 348.135 176.574 343.423C170.216 339.505 164.495 334.923 158.397 330.661C156.371 329.245 152.669 326.353 150.036 326.024C149.296 325.931 151.236 326.908 151.864 327.31C155.687 329.761 159.535 331.989 163.847 333.505C178.474 338.648 194.583 340.275 209.95 341.459C254.204 344.87 298.947 343.631 342.643 335.366C359.643 332.151 376.564 327.262 392.808 321.319C404.287 317.119 415.738 311.917 425.711 304.766C427.424 303.538 432.821 299.505 429.502 296.913C426.009 294.183 416.269 298.241 412.915 299.214C402.955 302.106 392.465 305.817 383.838 311.705C379.451 314.699 372.982 320.018 371.821 325.618C369.677 335.965 393.59 326.51 396.532 325.211C404.361 321.755 411.745 317.07 417.214 310.385C419.1 308.081 424.244 301.543 421.31 298.199C415.124 291.146 406.482 313.113 405.333 315.936C404.509 317.961 397.854 336.706 404.588 336.923C406.776 336.994 409.074 335.142 409.497 333.031C410.004 330.491 406.075 331.086 404.656 331.237C397.96 331.949 391.481 335.054 385.361 337.668C381.506 339.315 377.242 340.877 374.326 344.032C373.177 345.276 370.693 350.576 373.717 347.552" stroke="#FFF5E0" stroke-width="30" stroke-linecap="round"/>
<path d="M27.3085 201.981C25.7291 199.169 24.2448 196.34 22.2397 193.806C21.5033 192.875 19.2148 188.12 19.2148 190.862C19.2148 195.916 19.1526 200.975 19.2557 206.028C19.323 209.326 20.2017 216.184 20.5229 208.521C20.8179 201.484 19.9801 194.442 19.5418 187.429C19.5189 187.061 19.7671 173.368 18.3973 179.826C17.3489 184.768 16.651 189.767 16.7213 194.828C16.8234 202.176 16.9217 192.995 16.8439 191.353C16.5627 185.418 16.2907 179.312 14.8001 173.531C13.8973 170.029 13.5175 170.203 12.5927 173.163C11.6176 176.283 12.1274 172.932 12.2248 171.977C12.5761 168.535 12.4735 165.263 12.0204 161.84C11.8207 160.33 11.6316 159.432 11.1211 161.594C10.6445 163.613 9.33 169.668 10.0583 167.726C10.7376 165.915 11.0991 161.082 9.48606 159.469C9.32329 159.306 10.3036 159.672 10.3036 158.324C10.3036 153.196 9.05899 168.6 9.64957 173.694C10.3342 179.599 10.2151 184.393 9.64957 190.331C8.33912 204.091 9.96637 217.366 11.5299 231.004C12.736 241.524 11.8569 251.321 11.8569 261.743C11.8569 272.651 11.8569 283.46 11.8569 294.322C11.8569 303.583 10.3854 312.631 10.3854 321.874C10.3854 330.867 8.91378 339.515 8.91378 348.485C8.91378 358.767 6.70642 369.199 6.70642 379.306C6.70642 384.762 8.07632 380.659 10.4262 382.617C11.4435 383.465 15.5039 383.418 16.5987 383.394C24.6729 383.21 34.0013 379.707 41.2884 376.649C49.681 373.127 57.2573 369.618 64.5066 364.181C66.4607 362.716 69.8623 361.577 71.0878 359.399C72.5047 356.88 74.1569 350.363 76.6063 349.139" stroke="#FF7777" stroke-width="20" stroke-linecap="round"/>
<path d="M37.6095 171.078C34.3748 166.853 32.5223 165.056 27.5537 163.475C26.6734 163.195 31.9739 167.143 34.5028 167.276C37.7268 167.446 35.4228 166.397 34.0123 165.764C30.3407 164.115 27.1641 161.795 23.6704 159.837C22.4 159.125 14.0551 154.902 12.5927 156.73C11.8163 157.701 5.37341 154.395 7.03338 154.727C15.4951 156.419 24.2422 157.573 32.786 159.142C42.1475 160.861 51.253 162.016 59.6831 166.745C63.3623 168.809 66.9932 171.045 70.4338 173.49C70.8658 173.797 72.0152 174.864 71.5374 174.634C62.7857 170.433 53.6012 166.905 44.2724 164.251C42.0056 163.607 36.5736 163.093 34.7072 161.227C33.0851 159.604 39.3251 161.226 41.5745 161.676C46.4577 162.653 51.2282 164.158 55.9224 165.805C56.7163 166.083 60.3631 167.922 56.9034 166.336C51.8218 164.007 46.9245 161.53 41.411 160.327C36.7271 159.305 31.9606 159.653 27.2675 158.856C21.1696 157.82 18.1266 153.419 11.5707 153.419C9.1908 153.419 7.49589 157.507 5.80707 157.507C4.76762 157.507 8.91372 151.993 9.48601 153.583C13.6758 165.221 22.8821 169.14 33.5626 174.103C45.8279 179.802 48.0523 188.12 45.9075 201.082C43.5842 215.122 39.6879 228.892 36.9554 242.858C36.5529 244.915 37.0586 249.948 35.2386 248.908C33.1153 247.695 32.7706 239.049 32.4589 237.135C31.0061 228.217 31.0132 218.489 28.3712 209.829C27.6943 207.61 27.0568 209.181 26.7361 210.81C25.1257 218.991 25.4391 227.884 25.5916 236.154C25.6828 241.101 25.9959 247.414 26.4091 252.423C26.5834 254.536 25.8096 257.22 27.3084 258.718C28.2813 259.691 27.8166 256.005 27.8807 254.631C28.0346 251.33 28.0109 247.351 28.0442 244.084C28.2101 227.824 28.2053 209.304 34.3393 193.969C35.5959 190.828 35.2928 194.69 35.2386 195.604C34.7622 203.643 34.3054 211.687 33.767 219.722C33.2834 226.939 32.7844 234.204 31.8867 241.387C31.8698 241.521 31.9858 231.806 32.0502 230.758C32.7658 219.104 34.2223 207.488 36.3831 196.013C36.8039 193.779 36.743 191.273 38.0182 189.391C38.4505 188.753 38.059 190.964 38.3452 191.68" stroke="#FF7777" stroke-width="20" stroke-linecap="round"/>
<path d="M68.5125 191.68C55.6993 201.121 55.1287 219.511 53.061 234.233C51.0083 248.848 53.5192 233.254 53.7967 230.309C54.8363 219.278 55.6033 208.224 56.699 197.198C56.9998 194.172 57.4534 191.159 57.6392 188.124C57.7765 185.88 56.947 189.137 56.9443 189.146C54.4667 197.361 53.9438 205.965 53.5515 214.489C53.2707 220.59 53.1173 227.321 53.1836 233.456C53.2157 236.422 52.3841 239.765 53.8785 242.327C54.6716 243.686 55.0042 239.353 55.1866 237.789C55.703 233.363 55.8147 228.955 56.0041 224.504C56.4955 212.957 58.1967 178.328 57.8845 189.881C57.692 197.002 56.7043 204.105 56.3311 211.219C56.1411 214.842 55.8163 223.822 57.9662 213.999C59.8054 205.596 60.9732 197.062 62.7897 188.655C62.8727 188.271 65.197 179.806 63.035 185.63C61.1053 190.828 59.6179 196.173 57.8027 201.409C56.4986 205.171 56.1415 205.037 56.0041 201.327C55.9059 198.676 52.8185 175.428 48.8915 178.436C43.2569 182.752 42.3352 196.559 41.6971 202.799C41.2668 207.006 40.3906 217.778 43.8227 215.307C46.6056 213.303 46.9462 205.58 47.5426 202.676C48.2856 199.057 50.7739 188.308 49.4638 191.762C46.2455 200.246 44.7766 210.055 43.2096 218.904C40.1654 236.095 38.7798 253.389 38.0999 270.818C37.8277 277.798 37.7411 284.766 37.6094 291.747C37.5244 296.253 36.9761 282.756 36.7101 278.258C36.0874 267.725 36.177 257.229 35.8108 246.701C35.4803 237.198 31.4412 250.016 30.9873 251.524C27.5298 263.014 25.9491 274.963 25.428 286.924C25.0128 296.454 24.2484 307.019 25.6733 316.519C26.5728 322.515 26.2914 304.402 26.8996 298.369C27.8637 288.807 29.6871 279.4 31.6414 270.001C32.4409 266.155 32.4094 266.732 31.9275 270.328C30.4326 281.482 28.5232 292.576 26.9814 303.724C24.5438 321.35 18.3368 374.368 20.7681 356.742C21.6652 350.237 22.5612 343.753 23.7112 337.284C24.8143 331.079 25.3019 321.758 28.9844 316.314C30.953 313.404 30.0182 323.311 29.8428 326.82C29.4006 335.664 28.892 344.505 28.453 353.349C28.3671 355.079 28.2921 356.81 28.2077 358.54C28.1371 359.987 29.2369 363.382 27.8807 362.873C26.4547 362.339 28.2377 351.026 28.3712 350.12C29.1403 344.894 30.7611 340.017 31.9684 334.913C32.0597 334.527 31.8923 333.461 31.6414 333.769C30.8835 334.697 29.4618 337.674 29.107 338.511C26.4044 344.884 25.4063 351.806 24.5287 358.622C23.7698 364.517 24.2178 371.334 22.7302 377.098C21.6901 381.129 23.1673 368.759 23.9565 364.672C25.6971 355.658 29.0056 347.852 33.3582 339.819C38.7382 329.889 47.5251 316.632 47.2973 304.787C47.1985 299.648 45.0198 307.625 45.0082 307.689C43.8565 314.024 43.4325 320.698 44.1498 327.106C44.6089 331.208 45.6968 340.891 50.2813 343.007C53.5893 344.534 54.2021 325.223 54.2055 325.185C55.5112 310.697 56.512 296.177 58.2524 281.732C59.0564 275.058 59.553 271.704 60.6232 265.422C60.955 263.475 61.8493 261.537 61.6043 259.577C60.8337 253.412 58.1173 271.542 57.1895 277.685C55.1296 291.325 54.0693 305.178 53.9194 318.971C53.8425 326.047 53.8976 333.409 55.2274 340.391C55.5942 342.316 55.8406 342.604 55.8406 340.391C55.8406 337.732 55.3373 330.603 55.2274 328.782C54.3519 314.263 53.9029 299.743 53.4289 285.207C53.2414 279.458 53.0666 273.48 52.6931 267.711C52.5615 265.679 53.3738 262.996 51.8346 261.662C51.2715 261.173 47.6852 282.721 47.6652 282.918C46.1507 297.82 45.8356 312.833 46.1527 327.801C46.2983 334.672 46.4724 341.627 47.0112 348.485C47.5303 355.091 48.321 335.295 48.9733 328.7C50.5588 312.668 52.8086 296.749 56.0041 280.956C56.9389 276.335 58.8956 267.591 60.0918 262.806C60.8237 259.879 60.8514 256.519 62.708 254.14C64.0175 252.462 62.6845 258.41 62.3809 260.517C61.6559 265.549 59.7853 276.101 58.9473 280.71C55.9514 297.188 52.3899 313.55 49.3003 330.008C47.4078 340.089 45.3218 350.476 44.722 360.748C44.5022 364.512 48.316 354.709 48.401 354.534C50.5024 350.222 52.747 345.876 55.5136 341.944C56.7723 340.155 60.9624 336.413 61.1546 338.592C61.5277 342.82 57.8773 349.043 56.2903 352.736C54.0328 357.988 51.1676 362.471 47.9104 367.124C43.7019 373.137 61.6555 365.949 63.4029 365.367C65.0246 364.826 86.2356 359.417 86.2123 359.603C86.1218 360.327 82.9865 363.341 82.8195 363.527C79.0905 367.685 75.1279 371.459 70.7199 374.891C68.5503 376.58 61.6147 379.782 64.343 380.123C66.315 380.37 70.9195 377.009 72.5185 376.199C76.4525 374.207 80.2415 371.981 84.1276 369.904C85.5655 369.136 89.1101 368.238 90.0956 366.797C90.7058 365.906 82.3535 369.034 82.0019 369.168C75.2384 371.756 68.1089 373.132 61.3181 375.627C60.3667 375.976 53.8472 379.398 55.5953 378.57C61.5615 375.744 67.3719 373.276 73.0907 369.904C74.7179 368.945 86.5802 363.865 86.5802 361.647C86.5802 361.013 85.4342 362.189 84.8633 362.464C81.8726 363.908 78.71 364.965 75.6251 366.184C67.5231 369.387 59.5503 372.513 51.2624 375.177C40.5516 378.62 73.5921 370.878 83.7597 366.062C84.0652 365.917 88.2724 363.195 86.7437 364.181C78.7651 369.329 69.2122 373.593 60.0918 376.199C54.588 377.772 49.9122 377.479 44.395 377.098C41.8067 376.92 42.2577 371.15 42.0241 369.414C41.571 366.043 41.6468 356.232 40.3073 359.358C39.7108 360.75 42.4454 365.207 43.6592 365.98C49.5723 369.743 56.0654 361.435 58.0888 357.069C61.9935 348.643 61.8752 339.965 64.1387 331.194C65.2179 327.011 67.0435 328.933 69.0439 331.561C72.5503 336.168 75.0794 341.416 78.5683 346.032C79.1683 346.826 85.6897 355.419 87.5612 352.858C89.2425 350.558 86.5934 343.628 86.0079 341.331C82.6694 328.234 79.4809 315.543 77.4237 302.171C77.3914 301.961 75.6777 293.407 77.7099 298.778C80.7092 306.705 83.3927 314.746 86.4576 322.65C89.6251 330.819 99.1899 355.255 96.7177 346.849C92.2488 331.655 87.7055 316.798 85.7626 300.985C85.7275 300.699 85.1896 287.081 85.9261 287.659C89.4268 290.41 90.3071 301.881 91.2402 305.645C93.4447 314.539 95.9656 323.37 98.0258 332.297C98.1856 332.99 98.5592 335.03 98.1893 334.423C97.6546 333.546 96.2701 329.638 96.1454 329.272C89.6458 310.238 87.0564 291.25 87.4386 271.145C87.7641 254.026 90.6787 237.394 92.7526 220.457C93.1514 217.201 93.6816 214.659 91.976 219.681C89.2628 227.67 88.3152 236.494 87.4795 244.82C86.3037 256.534 85.6889 268.474 87.97 280.097C88.2566 281.557 89.5051 285.845 89.1963 284.389C87.8033 277.822 87.1979 271.244 87.0707 264.523C86.6837 244.07 90.3283 224.521 96.3907 205.088C98.0471 199.778 99.7827 194.478 101.623 189.227C102.048 188.014 103.174 185.392 101.132 187.919C89.2546 202.625 84.5904 225.301 81.9202 243.512C81.2252 248.252 80.9102 253.024 80.3669 257.778C79.7988 262.748 80.505 247.772 80.7756 242.776C81.4485 230.36 82.669 217.987 84.2911 205.66C84.5814 203.454 87.9709 191.527 86.294 189.105C85.7341 188.296 84.9224 190.571 84.5363 191.476C83.0328 194.999 82.2363 198.118 81.3479 201.94C78.1215 215.821 76.4172 230.053 74.9302 244.207C74.2094 251.068 73.8237 271.654 72.9681 264.809C72.1429 258.207 72.9032 250.863 72.9681 244.248C73.1741 223.239 76.5307 203.52 80.0398 182.932C82.6067 167.873 68.4805 211.756 67.4497 226.998C67.1098 232.023 67.5 246.549 69.5753 241.959C72.6474 235.165 72.9113 226.376 74.3171 219.149C75.866 211.187 77.8618 203.35 79.6311 195.441C80.6214 191.013 76.8313 204.087 75.8704 208.521C70.0079 235.573 69.6172 264.331 69.3709 291.911C69.3251 297.043 68.9271 312.223 70.3111 307.28C72.0381 301.113 71.2265 293.304 71.9462 286.964C72.6899 280.413 73.0286 272.455 75.4207 266.199C75.8345 265.117 76.1628 276.948 76.1565 277.154C75.77 289.832 73.7448 327.813 73.7448 315.129C73.7448 298.37 74.3247 279.717 79.0588 263.542C80.2223 259.567 77.4007 271.658 76.6062 275.723C74.1884 288.093 72.4069 300.578 70.3111 313.003C69.9402 315.202 68.5699 323.256 67.9402 326.002C67.6459 327.286 67.2607 330.506 66.3051 329.599C64.6267 328.007 64.9524 325.166 64.5065 322.895C64.0512 320.577 62.1933 310.046 61.8904 308.18C59.7245 294.834 58.4308 281.46 57.8027 267.957C57.3755 258.772 57.4902 249.508 56.0041 240.405C55.777 239.015 54.8446 232.069 54.2055 238.035C53.4229 245.339 53.0168 252.683 53.388 260.026C53.5922 264.068 54.8799 276.14 54.369 272.126C53.8223 267.83 53.3465 263.463 53.388 259.127C53.4288 254.864 53.4405 249.136 55.5136 245.229C55.5446 245.17 56.6812 253.894 56.7399 254.631C57.2265 260.74 57.2918 267.384 58.7838 273.352C58.8718 273.704 59.155 274.522 59.3969 274.252C59.9687 273.613 59.9844 272.636 60.1736 271.799C60.6036 269.897 62.1896 260.636 62.4627 259.209C65.5994 242.823 70.5944 225.754 79.3041 211.383C80.8997 208.75 83.2839 207.85 84.7816 205.496C88.3512 199.887 85.2163 192.516 84.0049 186.611C83.2628 182.993 82.5359 179.365 81.8384 175.738C81.5756 174.371 80.782 172.095 82.7377 173.449C85.6336 175.454 95.0894 179.253 91.5672 179.253C90.7898 179.253 88.8765 177.363 88.2153 176.964C88.126 176.91 85.4857 175.084 85.7626 175.084C86.8254 175.084 88.2876 176.759 89.0328 177.291C91.2933 178.906 93.6529 179.968 96.2272 180.97C96.4032 181.039 103.426 184.181 100.887 184.322C99.4509 184.402 98.3726 184.504 99.0886 186.243C101.243 191.476 97.496 198.37 96.4724 203.534C93.0797 220.652 93.0167 237.719 94.2651 255.039C94.3213 255.82 96.8184 270.952 93.611 267.057C92.7668 266.032 92.6255 265.4 92.4665 267.466C92.0494 272.888 93.6334 278.574 94.7147 283.817C96.0773 290.423 97.427 297.254 99.3584 303.724C99.8736 305.45 101.842 310.326 101.132 308.67C98.5872 302.731 97.5397 295.889 95.4914 289.744C94.31 286.2 94.6752 291.24 94.7147 291.706C95.0984 296.234 95.6573 300.755 96.1045 305.277C97.2284 316.641 99.0551 326.861 101.459 337.938C102.532 342.879 106.914 357.388 105.138 352.654C104.721 351.54 103.435 349.982 103.135 352.082C102.824 354.264 103.758 356.135 104.484 358.132C104.967 359.459 104.107 355.036 104.975 353.921C106.609 351.82 108.937 355.13 110.371 356.006C113.791 358.096 108.797 347.471 111.76 351.346C112.729 352.613 115.646 356.548 115.276 358.213C114.818 360.273 111.696 354.459 109.717 355.188C108.133 355.772 109.315 358.939 109.717 359.848C110.506 361.638 107.53 361.885 106.038 362.383C102.905 363.427 103.194 362.712 106.201 362.219C108.871 361.782 111.406 360.911 114.131 360.911" stroke="#FF7777" stroke-width="20" stroke-linecap="round"/>
<path d="M395.938 210.075C393.646 206.988 391.508 204.048 389.806 200.591C389.069 199.093 387.599 194.425 387.599 196.095C387.599 198.984 389.997 201.353 391.278 203.943C396.16 213.817 402.513 223.375 406.73 233.538C411.061 243.978 393.913 214.755 389.398 204.393C385.887 196.337 382.54 187.529 380.568 178.926C380.512 178.679 386.321 189.369 387.109 190.944C391.821 200.369 396.712 209.683 401.661 218.986C401.698 219.057 407.21 229.164 407.956 231.29C409.012 234.299 403.226 226.984 401.17 224.545C388.77 209.835 377.52 192.961 369.368 175.493C363.456 162.825 385.498 198.329 393.445 209.829C396.117 213.697 404.943 224.7 401.906 221.111C395.871 213.98 389.666 206.999 383.838 199.692C377.184 191.347 370.883 182.724 364.708 174.021C362.262 170.574 354.387 160.995 357.922 163.311C363.017 166.649 367.068 172.735 370.88 177.332C374.789 182.045 379.455 186.83 382.53 192.171C383.604 194.035 378.881 189.861 377.257 188.451C370.548 182.624 364.167 176.414 357.759 170.26C352.659 165.364 347.694 160.295 342.307 155.708C341.392 154.929 338.759 152.646 341.572 154.972C346.266 158.856 350.316 163.463 354.734 167.644C357.504 170.266 359.647 172.156 362.582 174.512C364.227 175.832 369.698 178.652 367.61 178.354C364.402 177.896 359.85 173.535 357.636 171.487C351.646 165.945 346.481 159.368 340.999 153.337C337.261 149.225 333.001 145.199 329.799 140.624C328.561 138.856 336.808 145.282 337.239 145.652C343.172 150.751 348.855 156.13 354.897 161.104C354.956 161.152 361.841 166.229 359.149 164.578C349.826 158.864 340.546 152.905 331.025 147.533C329.997 146.952 315.394 140.033 320.888 144.753C330.657 153.147 342.697 160.083 353.957 166.254C358.886 168.956 363.72 171.762 368.55 174.634C370.579 175.84 375.009 179.897 375.009 177.537C375.009 176.303 371.002 174.367 370.267 173.939C364.021 170.305 357.242 167.681 350.973 164.047C347.109 161.807 343.426 159.413 340.018 156.526C339.427 156.025 336.488 153.644 339.528 155.381C362.002 168.224 378.521 191.725 393.077 212.364C399.781 221.87 405.601 231.969 411.471 242C415.535 248.944 420.004 255.886 422.426 263.624C422.504 263.87 424.025 269.856 422.099 266.567C419.697 262.463 418.623 257.522 417.685 252.914C417.672 252.851 416.637 247.871 417.071 247.968C418.603 248.308 420.04 253.157 420.423 254.14C425.632 267.487 429.873 281.221 432.4 295.344C433.734 302.799 427.528 280.997 424.716 273.966C423.036 269.768 421.538 265.411 419.483 261.375C418.569 259.58 416.131 254.333 416.131 256.348C416.131 262.983 419.845 270.933 421.772 277.195C422.47 279.462 421.9 279.819 420.955 277.685C418.81 272.844 417.716 267.446 416.54 262.316C415.576 258.109 414.554 253.971 413.025 249.93C411.933 247.044 413.999 253.21 414.169 253.731C416.973 262.323 424.465 288.234 423.244 279.28C422.501 273.831 417.851 267.183 418.87 261.58C419.24 259.546 420.785 265.262 421.445 267.221C424.218 275.444 426.754 283.783 428.721 292.238C429.844 297.06 430.737 301.929 431.092 306.872C431.096 306.928 431.127 312.618 430.929 312.431C426.182 307.948 427.577 294.567 427.577 288.722C427.577 278.409 427.456 309.401 426.105 319.625C425.858 321.501 425.635 326.026 423.898 327.515C422.253 328.924 422.57 320.586 422.59 320.279C422.739 317.927 422.773 314.28 424.307 312.267C425.409 310.821 424.051 315.896 423.857 317.704C423.38 322.155 422.49 326.54 421.731 330.948C421.203 334.02 421.041 342.852 419.647 340.064C418.663 338.097 420.344 332.019 421.691 330.335C422.073 329.857 419.065 334.922 418.38 335.935C417.698 336.943 413.609 341.256 415.927 339.083C416.55 338.499 419.96 333.158 418.175 334.586C414.253 337.724 423.749 341.578 425.002 342.598C425.983 343.398 430.809 350.836 426.514 349.547C425.905 349.364 422.97 348.194 423.08 347.258C423.198 346.259 430.223 348.385 430.643 348.525C436.263 350.399 442.657 352.566 447.566 355.965C452.351 359.278 438.194 349.059 433.381 345.787C431.242 344.332 430.253 343.599 433.381 344.887C437.656 346.647 441.875 348.482 445.808 350.937C449.498 353.24 452.882 355.992 456.273 358.704C456.576 358.947 461.421 362.405 459.543 362.26C452.239 361.698 444.835 357.723 437.919 355.515C437.094 355.252 434.692 354.423 435.384 354.943C439.409 357.962 443.476 360.982 447.607 363.854C451.138 366.31 454.89 368.265 458.562 370.476C460.689 371.757 461.663 372.693 459.011 370.354C452.236 364.375 442.449 361.111 436.325 354.616C435.413 353.649 441.925 355.745 441.966 355.761C446.354 357.402 450.61 359.405 454.883 361.32C456.192 361.906 467.287 367.768 460.687 363.977C447.936 356.652 437.163 347.216 428.149 335.567C418.995 323.736 420.827 310.76 421.691 296.734C421.797 295.007 422.345 289.853 422.345 291.584C422.345 295.422 421.772 299.258 421.772 303.111C421.772 306.76 422.345 310.392 422.345 314.025C422.345 317.758 420.825 306.713 420.219 303.029C418.753 294.113 414.482 267.354 416.254 276.214C417.185 280.868 418.478 286.171 422.426 288.804" stroke="#FF7777" stroke-width="20" stroke-linecap="round"/>
<path d="M111.924 185.794C117.475 177.275 124.139 171.785 132.608 166.254C140.596 161.038 148.217 154.798 156.644 150.312C161.715 147.613 167.402 145.257 172.79 143.282C176.318 141.988 179.861 141.535 183.132 139.603C188.934 136.174 196.173 135.922 201.036 130.773C201.831 129.931 186.834 131.61 185.258 131.959C166.987 136.004 151.009 146.211 136.45 157.589C132.525 160.656 128.434 163.726 124.841 167.195C123.569 168.423 120.689 172.858 121.408 171.241C125.221 162.662 132.522 155.152 138.004 147.614C143.047 140.68 130.357 151.342 129.706 151.907C125.332 155.697 121.009 159.643 117.238 164.047C115.792 165.736 112.92 170.57 116.993 166.418C120.25 163.097 123.017 159.275 125.659 155.463C126.902 153.669 130.31 149.705 130.401 147.124C130.451 145.687 127.341 147.314 126.231 148.228C120.874 152.639 116.382 158.72 113.15 164.824C113.118 164.886 109.339 171.647 111.434 172.386C113.407 173.083 117.607 167.854 118.342 167.072C121.616 163.585 124.661 159.887 127.703 156.199C128.651 155.049 129.511 153.819 130.564 152.765C130.79 152.539 130.404 153.392 130.237 153.664C124.82 162.496 119.127 171.117 114.622 180.48C113.146 183.546 110.389 188.316 110.493 191.966C110.576 194.875 114.929 188.093 116.543 185.671C119.633 181.036 122.393 176.203 124.923 171.241C125.858 169.408 128.79 164.105 127.335 165.56C124.748 168.146 122.433 173.596 120.917 176.555C114.877 188.344 109.443 200.585 105.547 213.263C104.278 217.395 99.9036 229.678 104.893 233.538C109.196 236.867 116.686 216.959 117.688 214.694C118.261 213.397 124.642 198.112 121.612 206.191C115.795 221.702 109.257 236.586 106.12 252.996C104.92 259.272 103.124 278.266 104.893 272.126C106.224 267.508 105.95 262.098 108.204 257.778C109.202 255.865 108.007 265.065 107.877 266.076C107.656 267.798 94.071 286.181 96.4999 280.874C102.25 268.309 107.112 254.744 114.622 242.859C128.361 221.117 157.099 200.925 175.856 183.382C182.851 176.84 190.284 170.844 196.785 163.802C199.827 160.506 189.93 169.612 186.811 172.836C170.897 189.28 141.847 200.311 127.658 218.291C121.983 225.484 130.644 221.655 133.752 217.85C145.398 203.591 164.801 193.173 178.022 180.398C180.053 178.436 204.074 156.702 201.527 154.155C200.103 152.731 191.847 158.029 191.307 158.324C181.134 163.88 171.341 170.091 162.121 177.128C149.369 186.86 134.641 198.059 125.822 211.792C119.664 221.381 140.744 194.562 148.264 185.998C154.641 178.735 161.205 171.643 167.844 164.619C169.501 162.866 174.675 157.885 172.667 159.224C169.044 161.639 165.632 165.005 162.285 167.726C152.09 176.013 141.536 184.032 132.935 194.051C131.751 195.43 123.486 204.372 124.351 207.336C124.476 207.764 125.296 207.31 125.659 207.05C127.945 205.414 132.284 200.603 133.752 198.874C139.708 191.863 145.225 184.297 150.062 176.474C152.862 171.945 155.076 168.137 156.766 163.148C157.332 161.479 158.136 157.585 156.398 157.875C150.999 158.774 143.876 167.274 140.538 170.833C133.699 178.125 128.519 186.49 124.065 195.4C123.312 196.906 109.588 227.225 123.288 221.03C130.813 217.627 134.998 209.309 141.029 204.107C142.752 202.62 139.428 208.39 138.29 210.361C134.244 217.369 129.654 224.05 125.659 231.086C123.453 234.97 124.278 234.242 126.231 231.249C130.087 225.339 133.585 219.205 137.39 213.263C149.157 194.891 162.435 177.088 176.755 160.613C177.905 159.291 188.828 145.393 192.043 147.451C194.082 148.756 183.904 155.631 183.05 156.117C170.937 163.009 161.492 172.534 152.106 182.81C131.632 205.226 115.47 231.172 107.509 260.681C105.719 267.319 104.311 274.121 103.013 280.874C102.103 285.605 103.468 280.511 103.585 280.138C104.643 276.783 105.685 273.424 106.651 270.041C107.209 268.088 108.361 263.665 106.937 269.428C104.95 277.469 86.4613 294.261 85.5001 302.5C84.513 310.961 101.576 294.52 101.787 290.603C102.203 282.847 102.581 275.354 104.73 267.834C109.195 252.207 116.952 237.902 124.678 223.687C129.503 214.808 134.59 206.153 140.048 197.648C141.514 195.363 149.29 183.562 150.921 180.888C151.094 180.604 154.921 174.746 154.6 172.795C154.008 169.202 109.289 184.471 129.419 163.311C138.455 153.814 149.162 146.433 160.977 140.829C168.167 137.418 177.298 135.636 183.868 131.141C186.912 129.058 176.643 132.653 173.076 133.594C164.381 135.887 155.87 138.009 146.915 138.867C142.219 139.316 151.096 136.575 152.065 136.169C159.994 132.845 168.722 130.266 175.978 125.541C186.28 118.833 151.092 130.126 140.947 137.068C140.276 137.527 146.863 133.59 147.978 132.98C153.425 130.002 159.46 128.274 165.228 126.031C168.039 124.938 159.894 128.876 157.093 129.996C155.259 130.73 136.97 138.026 136.123 136.332C135.632 135.349 148.755 132.883 149.122 132.817C162 130.509 174.385 126.923 186.566 122.148C196.767 118.149 207.173 113.994 217.918 111.684C223.374 110.51 227.971 110.286 233.002 112.624C236.615 114.303 247.231 117.741 250.293 113.319C251.542 111.515 238.606 110.478 238.153 110.457C223.097 109.76 207.69 112.39 192.942 115.158C192.049 115.326 177.534 117.224 177.327 118.674C177.193 119.613 179.2 118.339 180.107 118.06C183.164 117.12 186.25 116.48 189.386 115.853C197.338 114.263 205.217 112.387 213.299 111.561C226.009 110.262 238.82 110.585 251.56 109.435C261.198 108.565 270.753 107.831 280.338 106.492C284.072 105.971 295.098 106.579 291.579 105.225C288.181 103.918 282.667 105.628 279.275 106.002C268.316 107.207 257.025 107.588 246.164 109.435C238.897 110.671 247.987 111.74 250.252 112.215C263.159 114.92 276.264 116.44 289.167 119.205C299.505 121.42 310.208 123.24 320.152 126.931C324.891 128.69 324.102 128.118 320.356 125.704C316.54 123.245 312.495 120.668 308.993 117.774C304.943 114.429 317.167 114.54 317.945 114.586C322.281 114.841 327.59 115.503 331.271 118.101C335.879 121.354 321.496 120.264 320.888 120.145C315.172 119.027 309.444 116.53 304.7 113.114C302.849 111.781 312.142 115.183 313.203 115.73C319.56 119.01 324.519 124.033 330.453 127.912C334.417 130.502 338.854 132.176 342.471 135.31C344.625 137.178 341.416 137.165 339.896 137.068C327.382 136.274 314.994 132.101 302.575 130.364C285.792 128.018 268.078 126.286 251.151 127.585C231.561 129.088 214.208 134.945 197.235 144.712C196.373 145.208 183.863 153.125 190.776 152.07C205.338 149.849 219.12 142.418 233.411 138.867C245.738 135.804 259.021 134.741 271.508 137.559C272.475 137.777 286.722 142.244 284.63 143.813C281.558 146.117 273.911 143.592 270.691 143.077C259.022 141.21 247.388 139.706 235.536 140.502C226.528 141.107 216.575 142.441 208.558 146.879C208.18 147.088 195.299 156.035 200.096 156.035C203.555 156.035 207.521 154.348 210.765 153.419C216.856 151.675 222.903 149.946 229.119 148.677C248.828 144.653 267.007 145.284 286.387 150.476C294.196 152.568 324.082 159.285 331.271 163.148C333.447 164.317 312.805 160.133 310.341 157.67C296.57 143.898 275.168 146.27 257.447 149.168C246.855 150.9 260.235 148.416 263.088 147.86C278.654 144.822 302.303 170.325 317.945 172.386C337.445 178.027 339.896 177.128 360 192.5C372.297 201.902 392.733 233.605 399.5 241.5" stroke="#FF7777" stroke-width="20" stroke-linecap="round"/>
<path d="M233.329 138.703C225.609 138.619 217.984 137.97 210.274 138.867C205.998 139.364 198.577 142.859 206.677 138.785C215.154 134.522 223.409 129.93 232.103 126.113C237.889 123.573 219.914 129.577 213.667 130.528C211.653 130.834 205.962 132.26 207.576 131.018C209.723 129.367 214.336 128.422 216.692 127.544C223.024 125.183 240.539 116.508 236.068 121.576C230.303 128.11 220.816 131.775 212.972 134.943C211.635 135.483 210.288 136.001 208.966 136.578C207.891 137.046 205.315 137.384 205.941 138.376C206.836 139.793 216.153 136.7 217.142 136.496" stroke="#FF7777" stroke-width="20" stroke-linecap="round"/>
<path d="M212.727 172.55C209.486 179.274 209.107 184.076 209.007 191.598C208.963 194.946 208.897 213.638 207.127 200.019C206.061 191.819 204.373 183.619 204.225 175.329C204.209 174.457 204.244 173.583 204.306 172.713C204.326 172.436 204.352 171.644 204.47 171.895C204.672 172.329 204.575 172.848 204.592 173.326C204.747 177.506 204.653 181.694 204.797 185.875C204.945 190.19 203.811 200.122 207.209 203.698C208.188 204.729 208.788 201.193 208.884 199.774C209.192 195.27 209.135 190.748 209.457 186.243C209.832 180.986 210.28 176.434 211.296 184.649C212.77 196.565 213.148 208.621 215.261 220.457C215.334 220.867 217.32 229.801 216.242 224.709C215.969 223.418 214.703 211.802 215.67 217.024C217.712 228.052 219.943 238.959 223.437 249.644C223.578 250.075 228.982 263.648 226.543 258.228C223.642 251.78 220.903 245.2 218.245 238.648C215.624 232.185 209.95 212.182 210.765 219.109C211.571 225.964 214.031 233.103 216.651 239.465C219.123 245.468 214.992 231.748 214.771 231.086C212.744 225.006 210.188 219.135 208.067 213.1C207.129 210.43 210.085 218.386 211.092 221.03C213.21 226.59 212.005 221.02 211.664 218.577C211.152 214.9 209.591 209.865 210.52 206.15C210.635 205.689 210.743 207.076 210.847 207.54C211.79 211.788 212.693 216.044 213.626 220.294C215.533 228.981 216.398 240.884 221.475 248.499C222.709 250.351 218.468 243.074 218.123 242.449C214.698 236.247 212.667 229.465 209.457 223.196C209.207 222.709 207.249 219.107 208.476 221.766C210.028 225.128 210.44 228.959 212.563 232.067C215.681 236.629 213.416 219.772 215.425 220.13C218.291 220.642 220.727 226.974 221.679 228.919C225.556 236.834 228.548 245.111 231.817 253.282C233.481 257.444 235.13 261.611 238.48 264.482C241.83 267.354 245.359 272.949 250.252 272.453C251.905 272.285 262.946 270.02 255.811 271.881C253.686 272.435 251.514 272.919 249.353 273.312C248.021 273.554 251.815 272.148 252.909 271.349C255.421 269.517 266.145 256.343 257.814 262.438C255 264.498 252.273 266.459 250.252 269.346C248.096 272.427 255.179 265.345 255.566 264.932C263.637 256.327 271.779 247.786 279.847 239.179C281.926 236.962 291.787 227.758 289.331 223.809C287.495 220.859 283.931 227.972 283.526 228.715C283.147 229.41 282.726 230.093 282.463 230.84C281.949 232.303 282.957 231.706 283.608 231.086C287.06 227.797 289.655 223.266 292.069 219.231C298.105 209.145 302.862 197.706 305.068 186.121C306.311 179.594 303.482 178.078 301.798 184.813C299.66 193.364 299.158 203.031 299.877 211.792C300.613 220.766 304.213 204.345 304.537 202.799C306.11 195.291 309.558 183.119 306.744 175.656C304.35 169.305 303.938 188.991 303.556 195.768C303.154 202.893 303.54 209.898 304.292 216.983C304.355 217.579 305.223 220.967 304.823 221.398C297.19 229.618 292.394 239.89 283.322 246.946C280.757 248.941 288.084 242.524 290.475 240.324C294.042 237.042 294.278 236.141 290.066 239.751C284.576 244.458 278.928 249.22 273.634 254.14C273.009 254.721 267.224 261.94 269.383 259.781C271.456 257.708 272.846 254.956 275.432 253.404C277.848 251.955 272.317 258.627 271.508 259.209C268.887 261.096 263.206 264.915 266.48 259.086C274.814 244.248 283.195 229.288 288.35 212.977C290.834 205.114 296.959 186.686 290.312 179.09C280.865 168.294 264.526 197.752 261.698 203.044C261.402 203.598 251.733 221.955 259.163 215.634C268.919 207.334 275.418 194.456 280.092 182.769C280.403 181.993 286.95 163.579 280.992 165.028C275.449 166.376 269.071 179.465 267.175 182.851C260.714 194.388 255.714 206.286 254.83 219.64C254.377 226.493 254.513 237.205 258.428 243.39C260.998 247.451 263.549 242.262 264.314 240.16C268.654 228.239 267.35 212.916 267.012 200.509C266.891 196.079 266.587 190.867 266.112 186.448C265.759 183.16 265.821 174.112 262.924 171.528C259.336 168.327 257.291 179.502 255.811 184.077C252.004 195.851 249.483 208.008 247.309 220.171C246.748 223.311 246.28 226.467 245.756 229.614C245.352 232.034 246.411 235.74 244.202 236.808C243.769 237.018 243.717 235.964 243.589 235.5C242.949 233.18 242.312 228.088 242.036 226.221C239.523 209.257 235.79 192.53 232.757 175.656C232.201 172.563 232.245 169.247 230.876 166.418C229.503 163.579 229.881 172.667 229.814 175.82C229.471 191.742 230.141 207.98 233.165 223.646C233.359 224.646 233.603 225.635 233.82 226.63C233.959 227.273 233.512 225.351 233.37 224.709C231.599 216.702 229.947 208.664 228.505 200.591C226.928 191.76 225.655 182.9 224.704 173.98C224.015 167.518 224.195 168.136 224.663 173.204C225.739 184.855 226.795 196.482 228.424 208.072C228.613 209.421 228.819 210.768 228.996 212.119C229.037 212.43 229.154 213.364 229.078 213.059C228.92 212.428 228.844 211.78 228.751 211.137C227.827 204.745 227.047 198.312 226.421 191.884C225.347 180.867 225.044 169.903 225.562 158.856C225.904 151.565 222.908 159.076 222.374 161.717C221.733 164.888 219.075 177.77 222.864 179.907C224.36 180.751 225.328 167.12 225.399 166.581C226.747 156.323 224.981 166.613 224.336 170.342C223.824 173.303 221.49 191.391 229.814 187.265C236.028 184.185 240.476 174.546 243.834 168.993C243.952 168.799 248.65 159.258 249.762 159.224C250.232 159.209 250.007 160.143 250.007 160.613C250.007 163.289 249.166 170.344 248.985 172.018C247.83 182.712 246.629 193.4 245.592 204.107C245.217 207.978 244.657 219.597 244.407 215.716C243.525 202.047 244.791 187.921 245.469 174.266C245.667 170.287 245.936 166.31 246.124 162.33C246.179 161.159 246.279 159.987 246.246 158.815C246.185 156.629 245.454 159.176 245.347 159.551C241.142 174.218 240.399 190.389 238.97 205.496C238.392 211.611 238.008 217.715 237.785 223.85C237.696 226.288 237.853 218.972 237.907 216.533C238.348 196.677 238.136 176.749 239.624 156.934C239.696 155.977 239.951 153.113 239.951 154.073C239.951 157.938 239.457 161.854 239.052 165.682C237.317 182.063 234.434 199.046 236.027 215.552C236.122 216.541 236.313 223.417 238.807 223.564C241.177 223.704 242.94 217.929 243.385 216.779C247.173 206.985 250.585 196.972 253.808 186.979C254.05 186.23 254.777 184.026 254.749 184.813C254.573 189.738 252.754 195.202 251.724 199.937C248.461 214.937 245.368 229.874 245.429 245.311C245.438 247.69 245.6 252.699 247.513 247.355C250.006 240.39 251.311 232.988 253.195 225.853C257.173 210.791 262.499 196.107 267.993 181.542C269.52 177.494 269.001 178.975 270.037 175.983C271.259 172.453 267.918 183.15 267.012 186.775C262.618 204.351 258.591 222.932 258.591 241.141C258.591 242.062 258.766 247.665 260.717 243.676C263.529 237.923 265.17 231.348 267.502 225.404C273.453 210.238 279.981 195.022 288.636 181.175C289.641 179.566 294.645 170.799 291.701 177.864C287.786 187.26 283.745 197.689 283.117 207.949C282.917 211.216 284.221 210.127 285.488 208.153C288.705 203.141 290.871 197.393 292.928 191.843C295.731 184.281 298.131 176.57 300.776 168.952C301.364 167.258 304.265 161.603 304.046 159.305C303.926 158.043 302.747 161.492 302.248 162.657C299.379 169.35 297.126 176.293 295.462 183.382C294.01 189.568 292.831 196.078 293.255 202.472C293.268 202.674 293.741 209.496 295.626 205.987C300.805 196.343 301.971 182.735 303.801 172.059C304.17 169.906 306.178 164.571 304.21 165.519C302.487 166.348 300.898 173.652 300.613 174.634C297.906 183.936 296.336 193.377 295.871 203.044C295.52 210.336 295.058 188.449 294.072 181.215C293.329 175.759 291.399 161.866 282.954 163.72C276.489 165.139 269.787 170.74 265.622 175.738C262.058 180.014 269.573 176.595 270.691 175.656C276.236 170.995 284.373 161.726 285.488 154.237C286.474 147.618 265.887 158.94 265.622 159.305C263.268 162.55 268.628 168.165 268.238 172.386C267.891 176.141 272.171 172.887 272.816 172.263C278.25 167.008 282.124 158.401 283.853 151.13C284.662 147.727 282.915 149.137 281.605 150.803C278.555 154.679 276.16 159.252 274.124 163.72C272.626 167.009 265.324 184.235 271.345 187.102C274.617 188.66 279.336 176.924 280.419 174.757" stroke="#FF7777" stroke-width="20" stroke-linecap="round"/>
<path d="M409.484 344.039C413.12 346.492 416.734 348.978 420.336 351.48C421.446 352.252 421.075 351.988 420.212 351.605C417.995 350.619 415.746 349.847 413.453 349.062C411.31 348.329 400.338 342.838 407.5 347.636C412.862 351.229 410.561 349.421 414.507 350.736" stroke="#FF7777" stroke-width="20" stroke-linecap="round"/>
<path d="M115.371 158.754C113.684 161.301 108.978 169.142 110.286 166.381C111.429 163.968 116.456 156.739 115.123 154.072C114.193 152.212 107.43 163.9 107.155 164.521C106.293 166.46 105.102 168.952 105.015 171.156C104.942 173.031 106.841 167.867 107.558 166.133C107.835 165.463 110.92 155.728 110.658 155.777C108.809 156.124 107.151 162.77 106.504 164.118C106.288 164.568 106.067 165.016 105.822 165.451C105.75 165.577 105.77 165.152 105.822 165.017C107.055 161.779 108.365 158.587 109.418 155.281C111.368 149.159 107.794 158.191 107.31 159.529C106.431 161.955 103.62 169.166 104.612 166.784C106.23 162.902 107.817 158.911 109.108 154.909C109.933 152.352 106.334 159.513 105.015 161.854C104.653 162.499 102.08 168.25 103.527 164.583C104.561 161.963 108.668 154.681 106.814 156.8C104.724 159.189 103.087 162.487 102.597 165.637C102.301 167.54 105.753 158.613 104.891 160.335C102.444 165.23 101.786 171.294 100.861 176.613" stroke="#FF7777" stroke-width="10" stroke-linecap="round"/>
<path d="M404.461 165.451C404.827 165.722 413.554 171.996 413.701 171.776C414.237 170.972 409.227 167.174 408.616 166.815C407.808 166.34 412.256 167.925 413.143 168.551C417.207 171.421 413.767 167.931 412.305 166.567C408.189 162.725 413.546 167.838 414.724 169.016C417.869 172.161 417.054 170.557 415.003 167.993C410.171 161.953 412.627 167.899 414.507 171.032" stroke="#FF7777" stroke-width="10" stroke-linecap="round"/>
<path d="M113.139 364.131C114.095 363.727 121.833 359.217 118.223 361.712C115.796 363.391 113.361 365.108 111.03 366.921C107.197 369.902 112.411 367.067 114.007 366.239C114.444 366.012 116.664 363.801 115.681 364.503C113.769 365.869 112.055 367.268 109.79 368.037C107.205 368.915 108.266 366.871 109.79 366.363" stroke="#FF7777" stroke-width="10" stroke-linecap="round"/>
<path d="M398.88 355.201C399.173 354.807 403.279 350.13 402.384 349.434C401.154 348.477 397.46 351.947 396.772 352.535C394.919 354.116 393.218 355.943 392.028 358.085C391.154 359.658 394.277 355.268 395.284 353.775C396.08 352.594 398.486 350.339 398.632 348.876C398.81 347.101 396.108 351.401 394.943 352.752C394.1 353.728 390.447 356.869 390.447 358.302C390.447 358.862 396.098 352.974 396.4 352.535C396.913 351.789 399.468 347.917 399.252 348.163C397.402 350.278 395.881 352.61 394.54 355.077C394.341 355.443 391.513 361.131 392.741 360.689C396.364 359.385 400.082 354.424 402.973 351.946C403.038 351.89 407.631 348.359 407.438 348.07C407.061 347.504 405.81 348.826 405.639 349.031C404.056 350.931 409.929 346.496 412.275 345.714" stroke="#FF7777" stroke-width="10" stroke-linecap="round"/>
<path d="M418.012 196.095C433.77 189.341 450.086 183.31 466.574 178.599C467.732 178.268 478.351 175.811 477.202 176.31C469.136 179.817 460.445 181.799 452.021 184.199C441.369 187.235 410.462 199.518 420.996 196.095C426.991 194.146 432.635 190.827 438.328 188.165C443.077 185.943 450.144 183.857 453.82 179.826C454.03 179.595 446.986 181.213 446.462 181.379C441.023 183.105 435.717 185.22 430.275 186.938C427.761 187.732 420.562 189.784 422.426 187.919C428.041 182.305 437.871 179.817 445.072 177.332C455.675 173.674 487.797 163.738 476.916 166.459C471.949 167.7 466.85 168.331 461.832 169.32C458.144 170.047 455.496 170.603 451.981 171.691C451.108 171.961 450.24 172.26 449.405 172.631C449.102 172.766 450.063 172.869 450.386 172.795C457.983 171.042 465.376 168.443 472.95 166.581C482.081 164.338 491.377 162.974 500.583 161.104C503.266 160.559 511.305 158.918 508.595 159.305C503.489 160.035 498.377 161.53 493.471 163.066C490.003 164.151 479.758 167.722 483.333 167.072C488.883 166.063 494.312 164.413 499.888 163.434C504.062 162.701 508.247 162.152 512.438 161.554C514.802 161.216 507.672 161.97 505.325 162.412C498.532 163.691 494.837 172.675 488.075 174.103C487.934 174.133 475.076 168.581 481.616 167.072C487.51 165.712 493.49 164.793 499.439 163.72C499.813 163.653 508.911 161.609 508.227 163.148C506.532 166.963 506.977 177.668 504.998 181.379C499.756 191.209 492.524 194.641 491.223 205.701C490.63 210.733 490.11 216.964 492.326 221.766C494.248 225.928 495.187 216.235 495.269 215.552C495.976 209.71 496.556 192.272 497.64 198.057C500.434 212.957 502.429 227.95 504.058 243.022C504.685 248.824 505.436 254.669 505.162 260.517C505.162 260.52 505.207 265.468 504.262 264.523C496.428 256.689 495.4 239.331 495.024 229.205C494.794 223.001 495.304 216.804 496.005 210.647C496.295 208.102 496.092 203.612 497.477 201.327C499.622 197.788 499.734 209.321 500.256 213.427C501.819 225.704 502.28 238.088 503.731 250.379C504.165 254.055 505.041 264.833 505.979 261.253C507.913 253.867 507.402 245.236 507.287 237.708C507.132 227.523 506.411 217.347 505.979 207.172C505.824 203.521 505.729 199.868 505.57 196.217C505.507 194.748 505.722 190.563 504.998 191.843C502.305 196.608 502.295 206.615 501.81 211.628C500.524 224.917 501.138 237.976 502.791 251.197C504.385 263.951 509.043 302.176 508.473 289.335C508.295 285.348 507.92 281.389 507.083 277.481C506.734 275.852 506.274 273.518 505.938 276.745C504.105 294.345 506.962 313.048 509.249 330.499C509.822 334.865 510.682 339.166 511.457 343.497C511.523 343.866 512.202 348.183 511.293 344.887C509.503 338.399 509.546 318.021 510.026 324.735C511.012 338.534 510.202 352.344 510.884 366.143C511.011 368.699 510.951 372.221 512.029 374.646C513.28 377.461 511.366 368.52 511.13 365.449C510.666 359.415 510.721 341.248 510.721 347.299C510.721 357.477 510.721 367.656 510.721 377.834C510.721 384.177 510.256 373.579 510.149 372.275C509.661 366.368 509.491 374.195 508.881 376.363C508.544 377.562 506.752 384.074 506.592 383.843C505.622 382.442 505.036 378.552 502.627 379.469C500.123 380.423 496.783 381.058 494.125 381.35C493.005 381.472 481.776 379.985 484.151 378.243C487.531 375.764 495.049 377.098 499.03 377.098C504.205 377.098 488.714 375.835 483.742 374.401C482.633 374.08 470.635 369.417 474.586 369.904C483.94 371.057 492.679 374.999 500.134 380.655C500.801 381.161 505.028 385.441 501.646 381.881C498.03 378.074 494.877 373.63 492.204 369.127C479.444 347.637 478.132 320.606 479.082 296.244C479.092 295.976 479.574 286.386 479.654 285.125C479.723 284.052 479.554 281.038 480.145 281.937C481.649 284.223 481.647 287.202 482.27 289.867C484.571 299.691 486.647 309.567 488.811 319.421C489.152 320.975 490.871 335.476 493.553 336.548C494.599 336.967 493.391 334.286 493.103 333.196C491.559 327.357 489.66 321.612 488.075 315.783C481.49 291.568 477.818 266.093 478.673 240.978C478.986 231.806 479.027 221.267 482.025 212.446C482.147 212.088 483.261 209.096 484.069 211.464C486.169 217.617 485.501 225.866 485.704 232.148C486.808 266.366 489.717 300.661 499.357 333.687C500.303 336.927 501.057 339.177 502.341 342.067C503.037 343.632 503.011 343.323 502.627 341.658C498.999 325.933 494.75 310.445 491.917 294.527C486.727 265.359 484.438 235.585 487.748 206.069C488.62 198.295 487.891 204.73 487.421 208.521C485.25 226.054 484.389 243.246 484.723 260.926C485.015 276.364 486.404 291.813 486.563 307.24C486.588 309.744 486.37 310.394 485.541 307.526C484.232 302.999 483.725 298.614 483.292 293.873C481.696 276.378 482.056 258.71 482.802 241.182C483.088 234.458 483.461 228.707 483.783 222.052C483.919 219.23 485.184 211.973 483.579 208.93C481.188 204.4 477.076 217.173 475.648 222.093C469.778 242.316 466.787 263.722 465.674 284.716C465.034 296.793 465.602 309.016 468.618 320.77C471.81 333.217 471.338 316.402 471.234 313.412C470.304 286.722 469.7 260.169 469.476 233.456C469.461 231.623 471.012 214.445 467.432 213.059C460.519 210.383 454.683 245.049 454.556 245.801C450.804 267.941 448.575 291.238 451.04 313.657C451.994 322.328 453.235 335.849 458.398 343.416C459.224 344.626 459.238 340.544 459.134 339.083C458.822 334.698 457.654 325.762 457.172 321.669C454.82 301.697 453.68 281.637 453.084 261.539C452.818 252.556 453.248 243.62 453.248 234.642C453.248 230.577 452.91 217.35 449.896 229.287C446.184 243.985 445.197 259.475 445.481 274.579C445.613 281.576 446.355 290.732 447.116 297.797C447.686 303.087 447.942 309.808 450.1 314.843C450.448 315.653 451.341 317.742 452.512 316.028C453.927 313.955 454.083 309.518 454.188 307.607C454.881 294.981 453.563 282.125 452.553 269.551C451.708 259.034 451.297 247.817 448.465 237.585C444.976 224.98 439.527 248.302 439.104 250.379C436.044 265.417 435.271 281.276 436.325 296.571C436.913 305.106 438.313 314.873 443.274 322.16C446.243 326.52 448.434 322.904 449.324 319.38C451.967 308.909 450.559 297.35 449.283 286.801C448.979 284.293 448.419 279.876 447.852 277.154C447.679 276.325 447.266 274.307 446.667 274.906C443.302 278.27 445.24 290.733 445.522 294.404C446.873 311.97 450.916 331.919 462.404 345.868C464.116 347.947 462.226 345.662 461.832 345.133C459.136 341.506 456.679 337.629 453.656 334.259C452.179 332.612 448.465 328.621 445.808 328.782C445.065 328.827 455.849 338.584 456.027 338.715C462.904 343.761 469.897 348.825 477.079 353.431C478.927 354.616 481.946 356.839 484.437 356.456C485.777 356.249 474.702 347.415 474.259 347.095C474.185 347.042 467.263 342.258 467.228 342.435C466.966 343.743 471.778 347.844 472.378 348.484C475.373 351.679 478.526 355.894 482.434 358.05C486.36 360.216 484.643 350.658 484.846 349.016C485.892 340.531 491.335 344.062 494.656 348.607C496.667 351.359 498.708 355.228 501.687 357.069C505.186 359.23 502.205 346.014 502.055 345.214C501.876 344.258 501.328 335.922 500.256 335.24C500.016 335.087 499.423 343.757 499.439 344.07C499.695 349.05 500.996 353.921 501.564 358.867C502.444 366.528 501.479 357.236 501.728 354.698C502.273 349.153 503.577 343.789 505.448 338.551C505.571 338.206 506.815 334.166 507.328 336.835C507.396 337.188 507.478 341.398 506.47 339.859C501.081 331.635 498.827 319.105 496.332 309.815C492.895 297.018 490.123 283.961 488.402 270.818C486.902 259.364 487.292 247.511 485.214 236.154C481.415 215.4 456.43 230.759 447.77 239.751C447.635 239.892 440.053 249.396 444.991 243.471C453.261 233.547 460.907 223.04 468.74 212.773C474.043 205.821 481.659 197.985 485.091 189.718C485.775 188.07 485.584 187.606 483.783 188.492C479.063 190.812 474.944 194.952 470.907 198.22C463.628 204.113 456.295 209.951 448.915 215.716C444.714 218.997 443.683 219.254 447.607 215.225C458.639 203.899 496.803 175.676 485.622 186.856C480.162 192.317 472.629 196.399 466.328 200.796C458.987 205.919 451.666 211.061 444.704 216.697C424.97 232.672 450.734 211.912 438.941 221.561C437.674 222.598 438.52 221.653 439.145 220.825C443.373 215.229 447.728 209.767 450.223 203.126C450.325 202.854 451.938 195.469 451.694 195.686C446.701 200.125 443.342 210.044 440.985 215.879C438.657 221.64 429.534 239.258 430.275 245.801C430.74 249.911 438.652 228.723 439.227 224.627C439.906 219.787 441.033 212.936 438.368 208.44C435.982 204.413 432.119 207.966 430.275 210.402C426.479 215.415 425.376 221.739 425.329 227.897C425.292 232.701 428.141 241.631 432.482 233.211C435.011 228.307 430.47 199.598 422.018 206.641C418.307 209.733 420.631 217.936 421.527 221.643C422.047 223.795 425.816 235.755 429.621 229.205C432.877 223.6 431.711 207.879 424.061 205.905C415.287 203.641 421.694 222.701 422.999 220.744C425.049 217.668 423.764 210.839 423.407 207.499C422.86 202.377 421.606 197.436 420.342 192.457C418.274 184.316 421.652 192.73 422.508 195.604C423.481 198.87 415.098 195.007 415.559 198.302C415.66 199.021 422.004 208.957 418.747 204.434C415.599 200.06 413.181 195.073 408.978 191.516C405.231 188.346 413.233 200.544 413.842 205.415C414.098 207.463 410.9 202.496 409.673 200.836C406.146 196.065 395.145 196.918 392.055 191.843C391.301 190.607 396.865 181.184 397.9 182.196C401.54 185.755 404.304 190.201 407.833 193.887C407.876 193.932 412.351 198.076 409.1 194.909C404.826 190.744 401.178 186.168 398.023 181.093C395.656 177.285 393.392 173.178 392.055 168.871C391.265 166.325 397.111 173.466 397.164 173.531C398.464 175.096 412.632 191.028 410.899 193.233C409.479 195.04 396.554 172.794 395.815 170.547C391.401 157.112 406.24 171.103 409.264 174.103C411.103 175.927 414.2 178.334 415.15 180.888C415.875 182.837 409.869 179.632 409.591 179.458C407.13 177.913 405.403 175.989 404.154 173.367C403.615 172.235 401.796 169.77 403.051 169.77C404.201 169.77 406.523 172.819 407.138 173.408C410.092 176.233 413.308 178.842 415.477 182.36C417.701 185.966 408.412 178.036 407.384 177.209C400.532 171.706 383.965 150.998 389.684 157.67C394.857 163.705 400.447 172.099 403.051 179.621C403.617 181.258 404.016 183.835 401.538 182.074C395.938 178.095 391.259 172.026 386.782 166.908C381.013 160.316 375.749 153.325 370.104 146.633C367.352 143.372 364.031 138.966 360.13 136.905C353.482 133.393 369.533 148.672 374.805 154.032C376.903 156.166 378.903 158.353 380.609 160.818C381.608 162.261 377.843 158.655 376.481 157.548C365.23 148.406 355.522 137.558 344.351 128.32C342.667 126.928 340.868 125.817 343.125 128.402C346.141 131.856 349.549 134.957 352.608 138.376C355.348 141.438 358.118 144.596 360.62 147.86C361.122 148.514 369.504 155.737 366 154.032C357.079 149.692 345.761 140.682 338.383 134.329C335.215 131.602 331.682 129.24 328 127.258C327.013 126.726 331.768 131.917 332.497 132.653C333.398 133.564 343.8 143.497 338.301 140.747C332.224 137.709 326.433 133.756 320.888 129.874" stroke="#FF7777" stroke-width="20" stroke-linecap="round"/>
<path d="M179.63 198.502C162.716 205.7 148.534 218.921 135.424 231.48C129.252 237.393 123.567 244.728 118.935 251.934C115.448 257.358 113.308 263.256 111.436 269.405C106.155 286.756 105.407 306.036 108.767 323.858C110.096 330.911 112.198 337.758 115.048 344.312C116.413 347.451 118.484 350.38 119.563 353.617" stroke="#FF7777" stroke-width="30" stroke-linecap="round"/>
<path d="M113.696 149.271C121.485 135.942 131.039 126.918 145.237 120.335C176.903 105.654 214.318 98.5522 248.913 96.4735C283.089 94.42 318.644 98.8003 349.571 114.438C372.031 125.795 389.972 142.778 408.677 159.145" stroke="#061C00" stroke-width="12" stroke-linecap="round"/>
<path d="M-38.6637 233.473C-39.9029 234.968 -41.5944 236.416 -43.4887 237.582C-42.4166 236.363 -41.3075 235.176 -40.1722 234.022C-39.3159 233.151 -36.1586 230.453 -38.6637 233.473Z" fill="#FF7777"/>
<path d="M-14.1528 148.262C-30.9658 153.666 -44.9658 168.032 -51.1432 182.87C-57.6807 198.573 -65.4385 217.449 -59.0971 234.571C-55.4113 244.522 -43.5383 239.352 -38.6637 233.473C-36.1586 230.453 -39.3159 233.151 -40.1722 234.022C-44.0516 237.967 -47.6259 242.281 -50.4575 247.05C-70.5753 280.933 -84.423 338.397 -55.3944 371.296C-35.9581 393.324 -0.556064 400.792 27.2992 395.706C62.6783 389.248 77.6056 387.86 108.942 371.296" stroke="#061C00" stroke-width="12" stroke-linecap="round"/>
<path d="M-11.751 147.661C26.2048 138.624 67.0051 153.896 100.119 171.488" stroke="#061C00" stroke-width="12" stroke-linecap="round"/>
<path d="M127.557 362.027C140.166 377.639 161.087 390.533 180.893 398.998C210.797 411.778 242.918 417.925 275.27 415.468C296.811 413.832 320.625 408.26 340.726 400.301C359.201 392.985 376.536 376.827 391.16 363.828" stroke="#061C00" stroke-width="12" stroke-linecap="round"/>
<path d="M116.497 280C111.693 307.468 115.896 331.039 124.303 340.046" stroke="#061C00" stroke-width="12" stroke-linecap="round"/>
<path d="M391 239C405.554 260.145 410.889 289.044 408.959 314.408C407.671 331.346 406.662 333.134 397.992 347.583" stroke="#061C00" stroke-width="12" stroke-linecap="round"/>
<path d="M503.653 146.46C515.372 146.589 523.563 146.889 533.116 154.377C544.575 163.359 549.412 173.555 543.317 187.267C538.314 198.524 542.506 202.15 550.826 210.608C565.349 225.373 574.914 243.833 581.839 263.249C589.349 284.306 592.237 306.145 591.143 328.458C589.942 352.947 585.828 383.218 561.435 395.87C536.904 408.594 503.241 397.986 479.496 389.015C457.445 380.683 437.035 370.178 416.98 358.002" stroke="#061C00" stroke-width="12" stroke-linecap="round"/>
<path d="M506.966 146.552C474.541 146.552 447.752 157.991 420.499 175.765" stroke="#061C00" stroke-width="12" stroke-linecap="round"/>
<path d="M326.264 308.154C318.336 311.742 312.603 320.362 314.244 329.325C317.583 347.559 341.025 354.327 356.904 351.213C363.266 349.966 370.391 346.101 372.766 339.658C374.896 333.878 374.631 326.332 370.131 321.772C359.873 311.374 345.734 311.604 332.172 312.599" stroke="#FFC077" stroke-width="6" stroke-linecap="round"/>
<path d="M323.436 318.992C325.355 317.842 327.444 316.45 328.853 314.678C329.833 313.444 326.23 316.438 325.034 317.462C323.844 318.481 324.738 317.558 325.043 317.108C325.624 316.25 326.193 315.357 326.689 314.447C327.626 312.725 323.96 315.703 323.546 315.99C322.296 316.857 323.203 315.648 323.684 315.207C324.392 314.558 327.2 312.527 325.415 314.715C325.176 315.008 322.944 317.328 324.058 317.218C324.759 317.149 329.599 315.258 329.712 315.687C329.843 316.184 328.547 317.477 328.365 317.697C327.159 319.151 325.921 320.571 324.779 322.077C323.788 323.385 322.41 324.888 321.856 326.461C321.539 327.36 323.655 325.731 324.379 325.109C325.986 323.726 327.421 322.167 328.861 320.615C329.491 319.936 331.432 318.163 330.534 318.394C328.849 318.827 327.126 320.518 325.786 321.524C323.425 323.298 321.072 325.082 318.639 326.756C318.149 327.093 316.68 328.004 317.029 327.522C318.142 325.984 319.757 324.66 321.178 323.428C323.113 321.751 329.281 317.259 326.999 318.418C324.758 319.555 322.372 321.134 320.63 322.956C320.052 323.561 320.825 322.854 320.89 322.794C321.782 321.976 322.768 321.282 323.848 320.731C324.513 320.392 326.753 319.077 327.326 320.264C327.784 321.211 326.217 321.795 326.18 322.747C326.118 324.386 328.882 323.382 329.654 323.238C331.469 322.901 333.884 323.078 335.496 322.07C335.655 321.97 336.318 321.485 336.116 321.166C335.836 320.726 334.103 321.392 333.836 321.483C331.878 322.149 330.213 323.314 328.698 324.709C326.757 326.496 324.05 329.01 323.413 331.713C322.808 334.279 326.359 334.322 327.933 334.219C331.176 334.009 334.272 332.671 337.18 331.327C340.184 329.938 343.161 328.414 346.026 326.756C347.907 325.667 350.328 324.451 351.834 322.832C351.97 322.685 352.221 322.423 352.078 322.282C351.857 322.065 351.463 322.129 351.155 322.164C350.371 322.254 349.604 322.456 348.841 322.655C345.438 323.538 342.193 324.867 339.032 326.389C336.973 327.381 334.952 328.447 332.93 329.51C332.149 329.921 329.802 330.994 330.679 330.9C331.19 330.845 331.603 330.443 332.037 330.168C333.56 329.204 335.06 328.163 336.518 327.109C339.512 324.946 342.933 322.682 345.247 319.742C346.296 318.41 345.621 317.766 344.047 317.982C340.228 318.509 336.593 320.781 333.399 322.778C332.504 323.337 329.066 325.133 328.495 326.461C328.354 326.789 329.225 326.477 329.559 326.352C330.395 326.038 331.624 325.42 332.378 325.001C334.32 323.922 336.169 322.64 337.987 321.367C338.955 320.689 340.44 319.884 341.107 318.851C341.492 318.254 339.646 318.833 338.993 319.112C335.785 320.482 332.742 322.354 329.814 324.23C327.481 325.724 324.929 327.332 323.024 329.383C322.759 329.668 322.225 330.287 322.314 330.788C322.425 331.413 322.956 331.322 323.264 331.791" stroke="#FFC077" stroke-width="6" stroke-linecap="round"/>
<path d="M346.627 322.718C343.269 320.274 339.652 319.885 335.564 320.095C334.717 320.138 332.262 320.758 331.474 320.168C330.967 319.788 334.598 318.018 334.774 317.94C335.901 317.441 337.069 317.002 338.229 316.588C339.034 316.302 337.526 316.725 337.475 316.738C336.375 317.029 335.27 317.367 334.203 317.77C333.843 317.906 332.342 318.63 333.647 318.354C334.395 318.195 338.135 316.958 335.362 317.127C333.29 317.253 331.25 317.856 329.216 318.248C327.221 318.632 325.18 318.821 323.2 319.285C322.817 319.374 321.882 319.522 321.643 319.944C321.521 320.159 322.087 320.213 322.151 320.35C322.446 320.979 321.142 321.218 320.847 321.257C319.775 321.402 319.641 320.683 320.184 321.969C320.618 322.996 320.737 324.142 320.889 325.241C321.182 327.362 326.211 329.412 326.5 331.533C326.826 333.925 321.569 337.918 323.697 339.546C325.611 341.01 324.282 338.332 323.772 337.573C322.51 335.693 320.747 334.352 319.272 332.686C319.02 332.402 319.008 332.302 319.402 332.531C320.505 333.174 321.435 334.081 322.328 334.992C324.427 337.132 326.337 339.607 328.821 341.294C330.974 342.757 333.366 344.463 335.799 345.385C338.064 346.244 340.315 346.21 342.689 346.25C344.927 346.287 347.155 346.388 349.388 346.497C352.524 346.65 355.389 346.496 358.486 346.152C361.197 345.851 363.875 344.264 366.093 342.711C368.544 340.994 368.821 337.57 368.972 334.809C369.122 332.049 369.233 327.28 367.777 325.031C366.938 323.736 364.313 324.301 363.233 323.21C361.998 321.962 360.561 320.381 359.005 319.572C355.873 317.943 352.023 318.072 348.613 317.683C344.758 317.243 341.716 319.288 340.786 323.209C340.124 326.001 339.857 328.929 341.245 331.533C342.76 334.376 345.543 335.75 348.666 335.858C352.495 335.991 357.427 335.08 360.594 332.671C361.448 332.022 369.229 326.567 368.972 325.404C368.615 323.793 359.372 327.755 358.097 327.472C353.492 326.451 348.093 327.632 344.645 331.15C343.538 332.28 342.255 334.058 342.657 335.778C343.093 337.646 345.314 338.114 346.892 337.799C351.008 336.978 355.288 333.276 357.01 329.386C357.539 328.191 357.849 326.409 356.75 325.404C354.862 323.675 350.631 325.146 348.599 325.778C346.507 326.429 344.149 327.253 342.398 328.651C340.095 330.49 337.153 333.69 336.62 336.751C335.601 342.61 344.191 340.166 346.939 339.098C349.355 338.159 351.615 336.883 353.702 335.316C355.435 334.015 357.959 332.02 357.845 329.502C357.775 327.951 356.22 327.408 354.983 327.152C352.239 326.585 349.335 326.759 346.648 327.563C344.012 328.351 341.6 329.664 339.391 331.337C337.632 332.67 335.006 334.707 335.122 337.275C335.372 342.85 344.889 339.975 347.618 339.131C350.291 338.304 352.845 337.391 355.061 335.586C355.857 334.937 358.801 332.728 357.446 331.38C355.943 329.884 353.61 329.81 351.662 329.967C348.147 330.25 344.8 331.071 341.661 332.75C339.351 333.986 337.098 335.402 336.018 337.949C335.221 339.832 335.473 341.66 337.724 341.929C340.704 342.285 345.74 344.988 348.599 344.28C351.896 343.463 353.345 338.72 356.477 337.369C357.565 336.9 359.548 336.296 360.115 335.056C360.842 333.464 357.796 334.168 357.292 334.349C355.977 334.821 350.551 339.033 353.836 340.421C355.584 341.159 357.981 340.511 359.707 339.994C361.553 339.441 363.463 338.607 365.039 337.458C365.332 337.245 367.221 335.98 366.224 335.486C364.702 334.733 362.591 335.501 361.274 336.336C359.495 337.463 357.916 339.036 356.715 340.79C356.336 341.343 354.574 344.254 356.429 344.28C358.07 344.303 359.917 342.828 361.191 341.929C362.679 340.879 364.386 339.582 365.273 337.918C365.544 337.408 365.795 336.491 364.996 336.343C363.723 336.109 362.212 337.454 361.262 338.135C360.632 338.586 359.928 339.046 359.375 339.602C359.219 339.759 360.745 338.492 360.863 338.374C362.261 336.981 364.727 333.449 361.105 332.986C357.263 332.495 352.991 333.688 349.282 334.56C344.497 335.686 339.75 337.215 335.151 338.989C334.535 339.226 331.234 340.238 331.064 341.188C330.996 341.565 336.16 340.196 336.433 340.102C338.312 339.455 340.244 338.748 342.016 337.825C342.343 337.655 344.384 336.623 343.016 336.397C338.631 335.674 334.431 338.025 330.182 338.625C330.109 338.635 329.906 338.584 329.973 338.555C331.383 337.951 332.877 337.485 334.307 336.939C336.299 336.178 338.268 335.434 340.311 334.842" stroke="#FFC077" stroke-width="6" stroke-linecap="round"/>
<path d="M329.031 314.604C328.936 312.946 328.77 311.164 330.578 310.583C331.266 310.362 331.996 310.209 332.696 310.442C333.127 310.586 333.098 310.658 333.53 310.419" stroke="#FFC077" stroke-width="6" stroke-linecap="round"/>
<path d="M159.019 320.384C152.999 320.295 148.749 321.807 144.762 326.532C141.966 329.845 140.553 334.81 140.747 339.101C141.551 356.884 167.887 353.472 178.819 349.99C184.451 348.196 192.101 345.466 195.119 339.896C197.216 336.027 198.163 331.478 195.595 327.653C189.494 318.567 175.282 314.854 165.118 316.939" stroke="#FFC077" stroke-width="6" stroke-linecap="round"/>
<path d="M160.417 329.836C157.682 330.275 155.333 330.551 153.092 332.247C150.339 334.331 149.964 334.248 151.988 331.083C152.362 330.498 155.46 326.738 155.103 325.99C155.058 325.894 149.669 332.315 149.18 332.911C147.799 334.59 147.139 335.195 148.793 332.968C150.631 330.491 152.352 327.819 154.477 325.574C157.13 322.772 145.15 337.875 147.45 334.776C149.174 332.454 151.218 330.18 152.638 327.654C153.278 326.516 149.092 330.176 148.773 330.542C148.334 331.045 145.041 337.091 146.014 336.712C149.756 335.251 153.1 330.073 155.734 327.196C157.534 325.23 158.216 324.701 156.791 327.661C154.695 332.017 151.324 336.667 150.625 341.537C150.039 345.617 155.353 337.843 155.85 337.149C157.757 334.487 161.092 330.833 161.864 327.588C162.425 325.233 158.569 331.158 157.178 333.139C156.816 333.655 151.074 342.232 151.993 342.379C154.582 342.795 159.403 335.059 160.573 333.371C162.682 330.33 168.871 321.163 166.405 323.923C164.668 325.868 163.466 329.022 162.511 331.39C161.939 332.808 157.947 343.594 162.851 339.417C166.721 336.121 169.233 331.47 173.171 328.231C175.509 326.309 178.193 325.709 177.532 329.45C177.018 332.36 175.637 335.029 174.998 337.903C174.119 341.855 177.682 338.198 178.677 337.189C180.216 335.626 181.78 334.085 183.292 332.496C183.65 332.119 184.494 330.956 184.468 331.474C184.38 333.223 182.366 335.601 181.6 337.095C181.536 337.22 179.432 340.888 180.095 341.046C181.924 341.481 185.248 337.533 186.37 336.503C187.405 335.552 189.676 334.275 187.42 336.347C184.245 339.265 180.464 340.304 176.318 341.096C172.181 341.887 168.064 342.165 163.86 342.036C161.918 341.976 156.537 340.324 158.053 341.539C162.388 345.012 168.805 344.47 173.742 342.777C175.715 342.1 178.926 341.002 180.184 339.169C181.84 336.756 175.288 342.38 172.775 343.88C167.631 346.95 156.293 351.957 151.325 346.46C147.778 342.536 157.435 344.97 158.535 345.365C161.584 346.462 164.496 347.913 167.771 348.235C168.639 348.321 171.702 347.136 171.559 347.11C169.18 346.69 166.22 347.34 163.804 347.382C159.85 347.45 156.043 347.284 152.252 346.041C151.351 345.746 146.8 344.314 146.977 342.839C147.108 341.746 150.102 343.483 150.367 343.608C152.36 344.549 154.285 345.628 156.195 346.728C157.872 347.695 158.306 347.586 156.375 346.419C153.283 344.552 149.644 343.478 146.387 341.909C145.586 341.523 142.861 340.348 145.028 341.885C150.79 345.97 157.29 346.244 164.044 345.567C170.413 344.929 177.602 345.113 183.736 343.134C184.741 342.81 186.35 342.315 187.043 341.43C187.561 340.768 187.597 339.767 186.537 339.923C181.269 340.703 176.606 343.766 171.524 344.969C170.353 345.246 172.808 345.231 172.916 345.215C175.438 344.842 178.068 343.332 180.25 342.096C181.489 341.395 189.324 335.372 183.699 334.864C181.607 334.676 179.325 336.092 177.657 337.17C176.509 337.913 173.748 341.126 172.231 340.967C168.375 340.561 172.469 332.705 174.007 331.779C178.698 328.957 183.518 332.802 187.288 335.068C189.718 336.528 193.372 336.213 190.635 332.878C187.385 328.918 180.946 324.29 175.884 323.085C175.226 322.929 179.664 323.999 180.243 324.107C181.672 324.372 186.622 324.249 187.627 325.528C187.943 325.929 184.652 325.646 184.593 325.638C181.051 325.15 177.734 323.728 174.182 323.224C173.333 323.104 164.063 322.361 165.096 323.664C166.425 325.341 166.013 327.198 164.26 324.692C163.299 323.319 161.199 320.79 159.182 321.489C157.909 321.931 154.225 324.406 157.743 323.594C159.628 323.16 161.099 321.883 162.863 321.171C163.53 320.901 165.674 320.831 164.725 322.11C164.276 322.715 158.545 326.525 158.41 325.049C158.243 323.228 165.174 321.119 166.35 321.446C168.061 321.922 159.528 323.359 161.284 323.099C162.212 322.961 164.737 321.119 163.034 321.371C162.509 321.449 164.133 321.333 164.601 321.083C165.579 320.562 166.221 320.158 164.655 320.68C163.997 320.899 158.886 322.962 160.35 321.938C160.862 321.58 166.77 319.257 166.774 319.349C166.817 320.541 160.307 320.751 159.408 320.722C156.66 320.631 161.602 319.856 162.16 319.665C163.198 319.309 166.325 318.029 163.298 318.762C162.349 318.992 160.011 320.405 160.477 319.547C160.9 318.765 163.097 317.992 163.898 317.854C166.585 317.393 160.71 319.058 159.993 319.336C159.329 319.594 155.987 322.168 158.195 320.732C159.923 319.607 166.052 318.326 164.012 318.628C161.119 319.056 158.642 319.468 156.018 320.715C155.496 320.963 153.854 321.747 153.972 322.542C154.008 322.788 156.056 321.104 156.177 321.03C158.014 319.913 161.594 317.515 163.786 317.673C166.044 317.835 159.312 318.837 157.457 320.135C156.887 320.534 152.517 323.372 155.113 321.47C157.172 319.96 159.377 318.15 161.082 320.587" stroke="#FFC077" stroke-width="6" stroke-linecap="round"/>
<path d="M169.869 328.437C170.959 328.592 174.567 329.74 175.624 328.772C176.015 328.414 176.683 326.447 175.546 326.722C174.665 326.935 169.621 331.072 170.902 331.222C173.232 331.494 175.31 325.901 174.745 326.078C173.853 326.357 169.169 330.34 169.48 331.15C169.835 332.077 175.275 327.012 175.846 326.649C176.091 326.494 175.678 327.885 175.671 327.946C175.474 329.783 174.511 346.024 175.671 347.5C178.046 350.523 184.788 333.739 186.506 331.314C187.86 329.403 190.477 325.6 191.5 328.772C191.818 329.758 190.606 334.247 192.279 333.68C193.096 333.403 194.421 330.191 194.261 331.042C193.863 333.155 193.231 335.185 193.075 337.346C192.977 338.713 194.158 334.331 195.493 334.023C197.199 333.63 188.548 346.916 193.541 338.774C196.257 334.345 194.192 339.416 194.814 338.981" stroke="#FFC077" stroke-width="6" stroke-linecap="round"/>
<path d="M164.388 269.555C157.259 284.368 145.925 301.806 154.832 318.763C160.494 329.542 172.279 327.119 178.478 318.556C183.562 311.534 184.804 306.184 181.201 292.373C176.63 282.643 173.995 275.56 168.591 269.555" stroke="#061C00" stroke-width="12" stroke-linecap="round"/>
<path d="M176.132 301.614C171.079 303.686 164.155 305.616 162.854 311.545C162.683 312.325 163.718 310.141 163.9 309.362C164.462 306.96 169.307 285.719 167.697 295.982C166.729 302.155 162.163 320.131 165.122 314.54C168.77 307.647 167.935 284.001 166.123 291.508C164.085 299.951 163.392 310.123 164.965 318.619C167.034 329.795 166.123 295.543 163.194 284.555C160.132 273.068 158.587 299.009 158.508 301.18C157.975 315.866 163.159 310.262 164.896 299.656C165.852 293.822 166.675 287.582 165.739 281.716C165.122 277.854 162.715 277.925 161.447 281.482C159.937 285.72 156.459 310.364 162.928 312.041C171.293 314.209 171.429 289.897 171.073 286.431C169.504 271.14 164.065 288.473 163.376 294.521C163.184 296.215 163.726 316.69 168.769 307.338C170.705 303.749 172.091 299.353 172.936 295.425C173.108 294.625 172.274 288.039 171.117 291.349C167.962 300.369 168.454 313.43 169.823 322.68C169.999 323.871 175.459 308.984 176.698 305.441" stroke="#061C00" stroke-width="12" stroke-linecap="round"/>
<path d="M352.166 266.162C346.453 275.2 329.09 296.139 332.606 308.941C334.917 317.355 344.017 326.371 352.521 323.113C362.852 319.155 365.708 310.201 364.039 299.581C362.573 290.247 357.789 274.72 354.134 267.153" stroke="#061C00" stroke-width="12" stroke-linecap="round"/>
<path d="M348.066 296.386C347.279 298.475 339.813 314.316 347.183 310.837C351.789 308.663 353.463 302.004 353.023 296.603C352.142 285.795 338.242 310.676 346.959 314.254C355.291 317.674 359.681 298.594 354.029 293.844C347.405 288.277 343.782 319.389 347.762 312.955C350.709 308.192 351.781 301.424 351.518 295.768C351.467 294.661 351.432 284.413 348.88 286.469C345.416 289.261 343.523 298.077 343.396 302.633C343.291 306.435 345.541 314.753 349.439 308.956C352.547 304.335 353.589 279.224 350.418 283.47C348.14 286.522 343.778 305.272 348.591 300.69" stroke="#061C00" stroke-width="12" stroke-linecap="round"/>
<path d="M254.667 350.667C256.44 350.448 261.357 349.78 259.642 349.451C258.122 349.159 256.743 349.484 255.297 349.641" stroke="#061C00" stroke-width="6" stroke-linecap="round"/>
<path d="M242.667 373.333L262.239 372L270.667 373.333" stroke="#061C00" stroke-width="6" stroke-linecap="round"/>
<path d="M194 179.333C190.443 219.354 202.599 267.189 242.747 287.263" stroke="#061C00" stroke-width="12" stroke-linecap="round"/>
<path d="M312.667 160.667C339.625 215.242 288.37 260.454 247.333 290" stroke="#061C00" stroke-width="12" stroke-linecap="round"/>
</g>
<defs>
<clipPath id="clip0_2_13">
<rect width="512" height="512" fill="white"/>
</clipPath>
</defs>
</svg>
